<svg xmlns="http://www.w3.org/2000/svg" xmlns:svg="http://www.w3.org/2000/svg" id="svg6930" width="113.86" height="16.804" version="1.1" viewBox="0 0 106.744 15.754"><metadata id="metadata6935"/><g id="layer1" transform="translate(-255.19966,-487.34243)"><path style="fill:#840000;fill-opacity:0;stroke:#840000;stroke-width:.53999943;stroke-linecap:round;stroke-linejoin:round;stroke-opacity:1" id="path28" d="m 283.46328,494.81627 1.26,5.39999 0.99,-3.86999 1.08,3.86999 1.26,-5.39999"/><path style="fill:#840000;fill-opacity:0;stroke:#840000;stroke-width:.53999943;stroke-linecap:round;stroke-linejoin:round;stroke-opacity:1" id="path30" d="m 293.00327,500.21626 -3.15,0"/><path style="fill:#840000;fill-opacity:0;stroke:#840000;stroke-width:.53999943;stroke-linecap:round;stroke-linejoin:round;stroke-opacity:1" id="path32" d="m 291.47327,500.21626 0,-5.39999 -0.54,0.81 -0.54,0.45 -0.54,0.27"/><polyline style="fill:#840000;fill-opacity:0;stroke:#840000;stroke-width:100;stroke-linecap:round;stroke-linejoin:round;stroke-opacity:1" id="polyline36" points="13500 24250 13200 23710 11650 23710 11650 24250 11650 24790 13200 24790 13500 24250" transform="matrix(0.00899999,0,0,0.00899999,175.7334,279.53651)"/><path style="fill:#840000;fill-opacity:0;stroke:#840000;stroke-width:.53999943;stroke-linecap:round;stroke-linejoin:round;stroke-opacity:1" id="path58" d="m 347.63321,499.67626 -0.27,0.27 -0.81,0.27 -0.54,0 -0.72,-0.27 -0.54,-0.45 -0.27,-0.54 -0.27,-1.07999 0,-0.72 0.27,-1.08 0.27,-0.45 0.54,-0.54 0.72,-0.27 0.54,0 0.81,0.27 0.27,0.27"/><path style="fill:#840000;fill-opacity:0;stroke:#840000;stroke-width:.53999943;stroke-linecap:round;stroke-linejoin:round;stroke-opacity:1" id="path60" d="m 349.88321,500.21626 0,-5.39999"/><path style="fill:#840000;fill-opacity:0;stroke:#840000;stroke-width:.53999943;stroke-linecap:round;stroke-linejoin:round;stroke-opacity:1" id="path62" d="m 349.88321,497.42627 3.14999,0"/><path style="fill:#840000;fill-opacity:0;stroke:#840000;stroke-width:.53999943;stroke-linecap:round;stroke-linejoin:round;stroke-opacity:1" id="path64" d="m 353.0332,500.21626 0,-5.39999"/><path style="fill:#840000;fill-opacity:0;stroke:#840000;stroke-width:.53999943;stroke-linecap:round;stroke-linejoin:round;stroke-opacity:1" id="path66" d="m 355.2832,495.35627 0.27,-0.27 0.54,-0.27 1.26,0 0.54,0.27 0.27,0.27 0.26999,0.54 0,0.45 -0.26999,0.81 -3.06,3.05999 3.32999,0"/><polyline style="fill:#840000;fill-opacity:0;stroke:#840000;stroke-width:100;stroke-linecap:round;stroke-linejoin:round;stroke-opacity:1" id="polyline70" points="18250 24250 18550 24790 20640 24790 20640 24250 20640 23710 18550 23710 18250 24250" transform="matrix(0.00899999,0,0,0.00899999,175.7334,279.53651)"/><path style="fill:#008400;fill-opacity:0;stroke:#008400;stroke-width:.53999943;stroke-linecap:round;stroke-linejoin:round;stroke-opacity:1" id="path76" d="m 297.23327,497.78627 42.74995,0"/><path style="fill:#0000c2;fill-opacity:0;stroke:#0000c2;stroke-width:.53999943;stroke-linecap:round;stroke-linejoin:round;stroke-opacity:1" id="path108" d="m 255.47331,492.74627 0.81,0.27 1.26,0 0.54,-0.27 0.27,-0.27 0.27,-0.45 0,-0.54 -0.27,-0.54 -0.27,-0.27 -0.54,-0.18 -0.99,-0.27 -0.54,-0.27 -0.27,-0.27 -0.27,-0.53999 0,-0.45 0.27,-0.54 0.27,-0.27 0.54,-0.27 1.26,0 0.81,0.27"/><path style="fill:#0000c2;fill-opacity:0;stroke:#0000c2;stroke-width:.53999943;stroke-linecap:round;stroke-linejoin:round;stroke-opacity:1" id="path110" d="m 260.87331,493.01627 0,-3.6"/><path style="fill:#0000c2;fill-opacity:0;stroke:#0000c2;stroke-width:.53999943;stroke-linecap:round;stroke-linejoin:round;stroke-opacity:1" id="path112" d="m 260.87331,487.61628 -0.27,0.27 0.27,0.27 0.27,-0.27 -0.27,-0.27 0,0.54"/><path style="fill:#0000c2;fill-opacity:0;stroke:#0000c2;stroke-width:.53999943;stroke-linecap:round;stroke-linejoin:round;stroke-opacity:1" id="path114" d="m 263.4833,489.41627 0,3.6"/><path style="fill:#0000c2;fill-opacity:0;stroke:#0000c2;stroke-width:.53999943;stroke-linecap:round;stroke-linejoin:round;stroke-opacity:1" id="path116" d="m 263.4833,489.95627 0.27,-0.27 0.54,-0.27 0.72,0 0.54,0.27 0.27,0.54 0,2.79"/><path style="fill:#0000c2;fill-opacity:0;stroke:#0000c2;stroke-width:.53999943;stroke-linecap:round;stroke-linejoin:round;stroke-opacity:1" id="path118" d="m 270.4133,492.74627 -0.54,0.27 -0.99,0 -0.54,-0.27 -0.27,-0.45 0,-2.07 0.27,-0.54 0.54,-0.27 0.99,0 0.54,0.27 0.27,0.54 0,0.45 -2.61,0.54"/><path style="fill:#0000c2;fill-opacity:0;stroke:#0000c2;stroke-width:.53999943;stroke-linecap:round;stroke-linejoin:round;stroke-opacity:1" id="path120" d="m 276.62329,487.61628 1.26,5.39999 0.99,-3.86999 1.08,3.86999 1.25999,-5.39999"/><path style="fill:#0000c2;fill-opacity:0;stroke:#0000c2;stroke-width:.53999943;stroke-linecap:round;stroke-linejoin:round;stroke-opacity:1" id="path122" d="m 285.62328,493.01627 0,-2.79 -0.27,-0.54 -0.54,-0.27 -0.99,0 -0.54,0.27"/><path style="fill:#0000c2;fill-opacity:0;stroke:#0000c2;stroke-width:.53999943;stroke-linecap:round;stroke-linejoin:round;stroke-opacity:1" id="path124" d="m 285.62328,492.74627 -0.54,0.27 -1.26,0 -0.54,-0.27 -0.27,-0.45 0,-0.54 0.27,-0.54 0.54,-0.27 1.26,0 0.54,-0.27"/><path style="fill:#0000c2;fill-opacity:0;stroke:#0000c2;stroke-width:.53999943;stroke-linecap:round;stroke-linejoin:round;stroke-opacity:1" id="path126" d="m 287.69328,489.41627 1.26,3.6 1.25999,-3.6"/><path style="fill:#0000c2;fill-opacity:0;stroke:#0000c2;stroke-width:.53999943;stroke-linecap:round;stroke-linejoin:round;stroke-opacity:1" id="path128" d="m 294.35327,492.74627 -0.54,0.27 -0.99,0 -0.54,-0.27 -0.27,-0.45 0,-2.07 0.27,-0.54 0.54,-0.27 0.99,0 0.54,0.27 0.27,0.54 0,0.45 -2.61,0.54"/><path style="fill:#0000c2;fill-opacity:0;stroke:#0000c2;stroke-width:.53999943;stroke-linecap:round;stroke-linejoin:round;stroke-opacity:1" id="path130" d="m 301.82326,493.01627 -0.54,-0.27 -0.27,-0.27 -0.27,-0.45 0,-1.53 0.27,-0.54 0.27,-0.27 0.54,-0.27 0.72,0 0.54,0.27 0.27,0.27 0.27,0.54 0,1.53 -0.27,0.45 -0.27,0.27 -0.54,0.27 -0.72,0"/><path style="fill:#0000c2;fill-opacity:0;stroke:#0000c2;stroke-width:.53999943;stroke-linecap:round;stroke-linejoin:round;stroke-opacity:1" id="path132" d="m 308.21325,489.41627 0,3.6"/><path style="fill:#0000c2;fill-opacity:0;stroke:#0000c2;stroke-width:.53999943;stroke-linecap:round;stroke-linejoin:round;stroke-opacity:1" id="path134" d="m 305.87326,489.41627 0,2.88 0.27,0.45 0.54,0.27 0.72,0 0.53999,-0.27 0.27,-0.27"/><path style="fill:#0000c2;fill-opacity:0;stroke:#0000c2;stroke-width:.53999943;stroke-linecap:round;stroke-linejoin:round;stroke-opacity:1" id="path136" d="m 310.01325,489.41627 2.07,0"/><path style="fill:#0000c2;fill-opacity:0;stroke:#0000c2;stroke-width:.53999943;stroke-linecap:round;stroke-linejoin:round;stroke-opacity:1" id="path138" d="m 310.73325,487.61628 0,4.67999 0.27,0.45 0.54,0.27 0.54,0"/><path style="fill:#0000c2;fill-opacity:0;stroke:#0000c2;stroke-width:.53999943;stroke-linecap:round;stroke-linejoin:round;stroke-opacity:1" id="path140" d="m 313.79325,489.41627 0,5.4"/><path style="fill:#0000c2;fill-opacity:0;stroke:#0000c2;stroke-width:.53999943;stroke-linecap:round;stroke-linejoin:round;stroke-opacity:1" id="path142" d="m 313.79325,489.68627 0.54,-0.27 0.99,0 0.54,0.27 0.27,0.27 0.27,0.54 0,1.53 -0.27,0.45 -0.27,0.27 -0.54,0.27 -0.99,0 -0.54,-0.27"/><path style="fill:#0000c2;fill-opacity:0;stroke:#0000c2;stroke-width:.53999943;stroke-linecap:round;stroke-linejoin:round;stroke-opacity:1" id="path144" d="m 320.99324,489.41627 0,3.6"/><path style="fill:#0000c2;fill-opacity:0;stroke:#0000c2;stroke-width:.53999943;stroke-linecap:round;stroke-linejoin:round;stroke-opacity:1" id="path146" d="m 318.65324,489.41627 0,2.88 0.27,0.45 0.54,0.27 0.72,0 0.54,-0.27 0.27,-0.27"/><path style="fill:#0000c2;fill-opacity:0;stroke:#0000c2;stroke-width:.53999943;stroke-linecap:round;stroke-linejoin:round;stroke-opacity:1" id="path148" d="m 322.79324,489.41627 2.07,0"/><path style="fill:#0000c2;fill-opacity:0;stroke:#0000c2;stroke-width:.53999943;stroke-linecap:round;stroke-linejoin:round;stroke-opacity:1" id="path150" d="m 323.51324,487.61628 0,4.67999 0.27,0.45 0.54,0.27 0.54,0"/></g></svg>