<svg xmlns="http://www.w3.org/2000/svg" xmlns:svg="http://www.w3.org/2000/svg" id="svg7597" width="110.116" height="33.604" version="1.1" viewBox="0 0 103.234 31.504"><metadata id="metadata7602"/><g id="layer1" transform="translate(-311.24027,-550.89601)"><path style="fill:#840000;fill-opacity:0;stroke:#840000;stroke-width:.53999943;stroke-linecap:round;stroke-linejoin:round;stroke-opacity:1" id="path484" d="m 400.16402,578.97983 -0.27,0.27 -0.80999,0.27 -0.54,0 -0.72,-0.27 -0.54,-0.45 -0.27,-0.54 -0.27,-1.08 0,-0.72 0.27,-1.08 0.27,-0.45 0.54,-0.54 0.72,-0.27 0.54,0 0.80999,0.27 0.27,0.27"/><path style="fill:#840000;fill-opacity:0;stroke:#840000;stroke-width:.53999943;stroke-linecap:round;stroke-linejoin:round;stroke-opacity:1" id="path486" d="m 402.41402,579.51983 0,-5.4"/><path style="fill:#840000;fill-opacity:0;stroke:#840000;stroke-width:.53999943;stroke-linecap:round;stroke-linejoin:round;stroke-opacity:1" id="path488" d="m 402.41402,576.72983 3.15,0"/><path style="fill:#840000;fill-opacity:0;stroke:#840000;stroke-width:.53999943;stroke-linecap:round;stroke-linejoin:round;stroke-opacity:1" id="path490" d="m 405.56402,579.51983 0,-5.4"/><path style="fill:#840000;fill-opacity:0;stroke:#840000;stroke-width:.53999943;stroke-linecap:round;stroke-linejoin:round;stroke-opacity:1" id="path492" d="m 407.81402,574.65983 0.27,-0.27 0.53999,-0.27 1.26,0 0.54,0.27 0.27,0.27 0.27,0.54 0,0.45 -0.27,0.81 -3.05999,3.06 3.32999,0"/><polyline style="fill:#840000;fill-opacity:0;stroke:#840000;stroke-width:100;stroke-linecap:round;stroke-linejoin:round;stroke-opacity:1" id="polyline496" points="18500 29000 18800 29540 20890 29540 20890 29000 20890 28460 18800 28460 18500 29000" transform="matrix(0.00899999,0,0,0.00899999,226.01422,316.09012)"/><path style="fill:#008400;fill-opacity:0;stroke:#008400;stroke-width:.53999943;stroke-linecap:round;stroke-linejoin:round;stroke-opacity:1" id="path502" d="m 392.51403,577.08983 -42.74995,0"/><path style="fill:#008400;fill-opacity:0;stroke:#008400;stroke-width:.53999943;stroke-linecap:round;stroke-linejoin:round;stroke-opacity:1" id="path504" d="m 349.76408,577.08983 0,-20.24998"/><path style="fill:#008400;fill-opacity:0;stroke:#008400;stroke-width:.53999943;stroke-linecap:round;stroke-linejoin:round;stroke-opacity:1" id="path506" d="m 349.76408,556.83985 -38.24996,0"/><path style="fill:#008400;fill-opacity:0;stroke:#008400;stroke-width:.53999943;stroke-linecap:round;stroke-linejoin:round;stroke-opacity:1" id="path508" d="m 311.51412,556.83985 0,-4.49999"/><path style="fill:#0000c2;fill-opacity:0;stroke:#0000c2;stroke-width:.53999943;stroke-linecap:round;stroke-linejoin:round;stroke-opacity:1" id="path512" d="m 317.63412,556.56985 -2.61,0 0,-5.39999"/><path style="fill:#0000c2;fill-opacity:0;stroke:#0000c2;stroke-width:.53999943;stroke-linecap:round;stroke-linejoin:round;stroke-opacity:1" id="path514" d="m 320.24411,556.56985 -0.54,-0.27 -0.27,-0.27 -0.27,-0.45 0,-1.53 0.27,-0.54 0.27,-0.27 0.54,-0.26999 0.72,0 0.54,0.26999 0.27,0.27 0.27,0.54 0,1.53 -0.27,0.45 -0.27,0.27 -0.54,0.27 -0.72,0"/><path style="fill:#0000c2;fill-opacity:0;stroke:#0000c2;stroke-width:.53999943;stroke-linecap:round;stroke-linejoin:round;stroke-opacity:1" id="path516" d="m 324.29411,552.96986 0,3.59999"/><path style="fill:#0000c2;fill-opacity:0;stroke:#0000c2;stroke-width:.53999943;stroke-linecap:round;stroke-linejoin:round;stroke-opacity:1" id="path518" d="m 324.29411,553.50985 0.27,-0.27 0.54,-0.26999 0.72,0 0.54,0.26999 0.27,0.54 0,2.79"/><path style="fill:#0000c2;fill-opacity:0;stroke:#0000c2;stroke-width:.53999943;stroke-linecap:round;stroke-linejoin:round;stroke-opacity:1" id="path520" d="m 331.4941,552.96986 0,4.40999 -0.27,0.45 -0.27,0.27 -0.45,0.27 -0.81,0 -0.54,-0.27"/><path style="fill:#0000c2;fill-opacity:0;stroke:#0000c2;stroke-width:.53999943;stroke-linecap:round;stroke-linejoin:round;stroke-opacity:1" id="path522" d="m 331.4941,556.29985 -0.54,0.27 -0.99,0 -0.54,-0.27 -0.27,-0.27 -0.27,-0.45 0,-1.53 0.27,-0.54 0.27,-0.27 0.54,-0.26999 0.99,0 0.54,0.26999"/><path style="fill:#0000c2;fill-opacity:0;stroke:#0000c2;stroke-width:.53999943;stroke-linecap:round;stroke-linejoin:round;stroke-opacity:1" id="path524" d="m 337.70409,551.16986 1.26,5.39999 0.99,-3.86999 1.08,3.86999 1.26,-5.39999"/><path style="fill:#0000c2;fill-opacity:0;stroke:#0000c2;stroke-width:.53999943;stroke-linecap:round;stroke-linejoin:round;stroke-opacity:1" id="path526" d="m 344.36409,556.56985 0,-3.59999"/><path style="fill:#0000c2;fill-opacity:0;stroke:#0000c2;stroke-width:.53999943;stroke-linecap:round;stroke-linejoin:round;stroke-opacity:1" id="path528" d="m 344.36409,551.16986 -0.27,0.27 0.27,0.27 0.27,-0.27 -0.27,-0.27 0,0.54"/><path style="fill:#0000c2;fill-opacity:0;stroke:#0000c2;stroke-width:.53999943;stroke-linecap:round;stroke-linejoin:round;stroke-opacity:1" id="path530" d="m 346.97408,556.56985 0,-3.59999"/><path style="fill:#0000c2;fill-opacity:0;stroke:#0000c2;stroke-width:.53999943;stroke-linecap:round;stroke-linejoin:round;stroke-opacity:1" id="path532" d="m 346.97408,554.04985 0.27,-0.54 0.27,-0.27 0.54,-0.26999 0.45,0"/><path style="fill:#0000c2;fill-opacity:0;stroke:#0000c2;stroke-width:.53999943;stroke-linecap:round;stroke-linejoin:round;stroke-opacity:1" id="path534" d="m 352.37408,556.29985 -0.54,0.27 -0.99,0 -0.54,-0.27 -0.27,-0.45 0,-2.07 0.27,-0.54 0.54,-0.26999 0.99,0 0.54,0.26999 0.27,0.54 0,0.45 -2.61,0.54"/></g></svg>