<svg xmlns="http://www.w3.org/2000/svg" xmlns:svg="http://www.w3.org/2000/svg" id="svg5597" width="85.536" height="23.524" version="1.1" viewBox="0 0 80.19 22.054"><metadata id="metadata5602"/><g id="layer1" transform="translate(-359.90504,-538.47815)"><path style="fill:#840000;fill-opacity:0;stroke:#840000;stroke-width:.53999943;stroke-linecap:round;stroke-linejoin:round;stroke-opacity:1" id="path260" d="m 425.78497,554.05198 -0.27,0.27 -0.81,0.27 -0.54,0 -0.72,-0.27 -0.54,-0.45 -0.27,-0.54 -0.26999,-1.08 0,-0.72 0.26999,-1.08 0.27,-0.45 0.54,-0.54 0.72,-0.26999 0.54,0 0.81,0.26999 0.27,0.27"/><path style="fill:#840000;fill-opacity:0;stroke:#840000;stroke-width:.53999943;stroke-linecap:round;stroke-linejoin:round;stroke-opacity:1" id="path262" d="m 428.03497,554.59198 0,-5.39999"/><path style="fill:#840000;fill-opacity:0;stroke:#840000;stroke-width:.53999943;stroke-linecap:round;stroke-linejoin:round;stroke-opacity:1" id="path264" d="m 428.03497,551.80198 3.15,0"/><path style="fill:#840000;fill-opacity:0;stroke:#840000;stroke-width:.53999943;stroke-linecap:round;stroke-linejoin:round;stroke-opacity:1" id="path266" d="m 431.18497,554.59198 0,-5.39999"/><path style="fill:#840000;fill-opacity:0;stroke:#840000;stroke-width:.53999943;stroke-linecap:round;stroke-linejoin:round;stroke-opacity:1" id="path268" d="m 436.58496,554.59198 -3.15,0"/><path style="fill:#840000;fill-opacity:0;stroke:#840000;stroke-width:.53999943;stroke-linecap:round;stroke-linejoin:round;stroke-opacity:1" id="path270" d="m 435.05496,554.59198 0,-5.39999 -0.54,0.80999 -0.54,0.45 -0.54,0.27"/><polyline style="fill:#840000;fill-opacity:0;stroke:#840000;stroke-width:100;stroke-linecap:round;stroke-linejoin:round;stroke-opacity:1" id="polyline274" points="17250 15000 17550 15540 19640 15540 19640 15000 19640 14460 17550 14460 17250 15000" transform="matrix(0.00899999,0,0,0.00899999,262.88515,417.16213)"/><rect style="fill:#840000;fill-opacity:1;stroke:#840000;stroke-width:.53999943;stroke-linecap:round;stroke-linejoin:round;stroke-opacity:1" id="rect280" width=".9" height="16.2" x="396.265" y="544.062" rx="0"/><rect style="fill:#840000;fill-opacity:1;stroke:#840000;stroke-width:.53999943;stroke-linecap:round;stroke-linejoin:round;stroke-opacity:1" id="rect282" width=".9" height="16.2" x="391.135" y="544.062" rx="0"/><rect style="fill:#840000;fill-opacity:1;stroke:#840000;stroke-width:.53999943;stroke-linecap:round;stroke-linejoin:round;stroke-opacity:1" id="rect284" width="1.8" height="10.8" x="398.335" y="546.942" rx="0"/><rect style="fill:#840000;fill-opacity:1;stroke:#840000;stroke-width:.53999943;stroke-linecap:round;stroke-linejoin:round;stroke-opacity:1" id="rect286" width="1.8" height="10.8" x="393.205" y="546.942" rx="0"/><polyline style="fill:#840000;fill-opacity:0;stroke:#840000;stroke-width:100;stroke-linecap:round;stroke-linejoin:round;stroke-opacity:1" id="polyline290" points="13800 14800 13800 14400" transform="matrix(0.00899999,0,0,0.00899999,262.88515,417.16213)"/><polyline style="fill:#840000;fill-opacity:0;stroke:#840000;stroke-width:100;stroke-linecap:round;stroke-linejoin:round;stroke-opacity:1" id="polyline292" points="13600 14600 14000 14600" transform="matrix(0.00899999,0,0,0.00899999,262.88515,417.16213)"/><path style="fill:#840000;fill-opacity:0;stroke:#840000;stroke-width:.53999943;stroke-linecap:round;stroke-linejoin:round;stroke-opacity:1" id="path296" d="m 391.13501,552.16198 -8.99999,0"/><path style="fill:#840000;fill-opacity:0;stroke:#840000;stroke-width:.53999943;stroke-linecap:round;stroke-linejoin:round;stroke-opacity:1" id="path298" d="m 400.135,552.16198 8.99999,0"/><path style="fill:#008484;fill-opacity:0;stroke:#008484;stroke-width:.53999943;stroke-linecap:round;stroke-linejoin:round;stroke-opacity:1" id="path302" d="m 385.64502,540.82199 0.63,0.27 0.17999,0.18 0.18,0.45 0,0.63 -0.18,0.45 -0.17999,0.18 -0.45,0.27 -1.71,0 0,-4.49999 1.53,0 0.36,0.18 0.27,0.18 0.17999,0.45 0,0.45 -0.17999,0.44999 -0.27,0.18 -0.36,0.18 -1.53,0"/><path style="fill:#008484;fill-opacity:0;stroke:#008484;stroke-width:.53999943;stroke-linecap:round;stroke-linejoin:round;stroke-opacity:1" id="path304" d="m 390.50501,543.25199 0,-2.43 -0.18,-0.36 -0.45,-0.26999 -0.81,0 -0.45,0.26999"/><path style="fill:#008484;fill-opacity:0;stroke:#008484;stroke-width:.53999943;stroke-linecap:round;stroke-linejoin:round;stroke-opacity:1" id="path306" d="m 390.50501,542.98199 -0.36,0.27 -1.08,0 -0.45,-0.27 -0.18,-0.45 0,-0.36 0.18,-0.45 0.45,-0.18 1.08,0 0.36,-0.27"/><path style="fill:#008484;fill-opacity:0;stroke:#008484;stroke-width:.53999943;stroke-linecap:round;stroke-linejoin:round;stroke-opacity:1" id="path308" d="m 392.03501,540.192 1.71,0"/><path style="fill:#008484;fill-opacity:0;stroke:#008484;stroke-width:.53999943;stroke-linecap:round;stroke-linejoin:round;stroke-opacity:1" id="path310" d="m 392.66501,538.752 0,3.77999 0.18,0.45 0.45,0.27 0.45,0"/><path style="fill:#008484;fill-opacity:0;stroke:#008484;stroke-width:.53999943;stroke-linecap:round;stroke-linejoin:round;stroke-opacity:1" id="path312" d="m 394.64501,540.192 1.70999,0"/><path style="fill:#008484;fill-opacity:0;stroke:#008484;stroke-width:.53999943;stroke-linecap:round;stroke-linejoin:round;stroke-opacity:1" id="path314" d="m 395.27501,538.752 0,3.77999 0.17999,0.45 0.45,0.27 0.45,0"/><path style="fill:#008484;fill-opacity:0;stroke:#008484;stroke-width:.53999943;stroke-linecap:round;stroke-linejoin:round;stroke-opacity:1" id="path316" d="m 399.595,542.98199 -0.45,0.27 -0.81,0 -0.45,-0.27 -0.18,-0.45 0,-1.71 0.18,-0.36 0.45,-0.26999 0.81,0 0.45,0.26999 0.18,0.36 0,0.45 -2.07,0.45"/><path style="fill:#008484;fill-opacity:0;stroke:#008484;stroke-width:.53999943;stroke-linecap:round;stroke-linejoin:round;stroke-opacity:1" id="path318" d="m 401.755,543.25199 0,-3.05999"/><path style="fill:#008484;fill-opacity:0;stroke:#008484;stroke-width:.53999943;stroke-linecap:round;stroke-linejoin:round;stroke-opacity:1" id="path320" d="m 401.755,541.09199 0.18,-0.45 0.27,-0.18 0.36,-0.26999 0.45,0"/><path style="fill:#008484;fill-opacity:0;stroke:#008484;stroke-width:.53999943;stroke-linecap:round;stroke-linejoin:round;stroke-opacity:1" id="path322" d="m 404.095,540.192 1.07999,3.05999"/><path style="fill:#008484;fill-opacity:0;stroke:#008484;stroke-width:.53999943;stroke-linecap:round;stroke-linejoin:round;stroke-opacity:1" id="path324" d="m 406.25499,540.192 -1.08,3.05999 -0.45,1.08 -0.18,0.18 -0.44999,0.18"/><path style="fill:#008400;fill-opacity:0;stroke:#008400;stroke-width:.53999943;stroke-linecap:round;stroke-linejoin:round;stroke-opacity:1" id="path328" d="m 409.13499,552.16198 8.99999,0"/><path style="fill:#840000;fill-opacity:0;stroke:#840000;stroke-width:.53999943;stroke-linecap:round;stroke-linejoin:round;stroke-opacity:1" id="path332" d="m 366.56504,549.46198 -0.54,-0.26999 -0.81,0 -0.72,0.26999 -0.54,0.54 -0.27,0.45 -0.27,1.08 0,0.72 0.27,1.08 0.27,0.54 0.54,0.45 0.72,0.27 0.54,0 0.81,-0.27 0.27,-0.27 0,-1.8 -1.08,0"/><path style="fill:#840000;fill-opacity:0;stroke:#840000;stroke-width:.53999943;stroke-linecap:round;stroke-linejoin:round;stroke-opacity:1" id="path334" d="m 369.08503,554.59198 0,-5.39999 3.15,5.39999 0,-5.39999"/><path style="fill:#840000;fill-opacity:0;stroke:#840000;stroke-width:.53999943;stroke-linecap:round;stroke-linejoin:round;stroke-opacity:1" id="path336" d="m 374.75503,554.59198 0,-5.39999 1.35,0 0.72,0.26999 0.54,0.54 0.26999,0.45 0.27,1.08 0,0.72 -0.27,1.08 -0.26999,0.54 -0.54,0.45 -0.72,0.27 -1.35,0"/><polyline style="fill:#840000;fill-opacity:0;stroke:#840000;stroke-width:100;stroke-linecap:round;stroke-linejoin:round;stroke-opacity:1" id="polyline340" points="13250 15000 12950 14460 10830 14460 10830 15000 10830 15540 12950 15540 13250 15000" transform="matrix(0.00899999,0,0,0.00899999,262.88515,417.16213)"/></g></svg>