<svg xmlns="http://www.w3.org/2000/svg" xmlns:svg="http://www.w3.org/2000/svg" id="svg6266" width="99.172" height="19.204" version="1.1" viewBox="0 0 92.974 18.004"><metadata id="metadata6271"/><g id="layer1" transform="translate(-199.22741,-291.93172)"><path style="fill:#840000;fill-opacity:0;stroke:#840000;stroke-width:.53999943;stroke-linecap:round;stroke-linejoin:round;stroke-opacity:1" id="path14" d="m 210.39125,307.05555 0,-5.4 2.07,0 0.53999,0.27 0.27,0.27 0.27,0.54 0,0.72 -0.27,0.54 -0.27,0.27 -0.53999,0.27 -2.07,0"/><path style="fill:#840000;fill-opacity:0;stroke:#840000;stroke-width:.53999943;stroke-linecap:round;stroke-linejoin:round;stroke-opacity:1" id="path16" d="m 215.07124,301.65555 1.8,5.4 1.8,-5.4"/><path style="fill:#840000;fill-opacity:0;stroke:#840000;stroke-width:.53999943;stroke-linecap:round;stroke-linejoin:round;stroke-opacity:1" id="path18" d="m 223.26123,307.05555 -3.14999,0"/><path style="fill:#840000;fill-opacity:0;stroke:#840000;stroke-width:.53999943;stroke-linecap:round;stroke-linejoin:round;stroke-opacity:1" id="path20" d="m 221.73123,307.05555 0,-5.4 -0.53999,0.81 -0.54,0.45 -0.54,0.27"/><polyline style="fill:#840000;fill-opacity:0;stroke:#840000;stroke-width:100;stroke-linecap:round;stroke-linejoin:round;stroke-opacity:1" id="polyline24" points="13500 19750 13200 19210 11230 19210 11230 19750 11230 20290 13200 20290 13500 19750" transform="matrix(0.00899999,0,0,0.00899999,105.99136,126.87575)"/><path style="fill:#840000;fill-opacity:0;stroke:#840000;stroke-width:.53999943;stroke-linecap:round;stroke-linejoin:round;stroke-opacity:1" id="path40" d="m 277.89117,306.51555 -0.27,0.27 -0.81,0.27 -0.54,0 -0.71999,-0.27 -0.54,-0.45 -0.27,-0.54 -0.27,-1.08 0,-0.72 0.27,-1.08 0.27,-0.45 0.54,-0.54 0.71999,-0.27 0.54,0 0.81,0.27 0.27,0.27"/><path style="fill:#840000;fill-opacity:0;stroke:#840000;stroke-width:.53999943;stroke-linecap:round;stroke-linejoin:round;stroke-opacity:1" id="path42" d="m 280.14117,307.05555 0,-5.4"/><path style="fill:#840000;fill-opacity:0;stroke:#840000;stroke-width:.53999943;stroke-linecap:round;stroke-linejoin:round;stroke-opacity:1" id="path44" d="m 280.14117,304.26555 3.15,0"/><path style="fill:#840000;fill-opacity:0;stroke:#840000;stroke-width:.53999943;stroke-linecap:round;stroke-linejoin:round;stroke-opacity:1" id="path46" d="m 283.29117,307.05555 0,-5.4"/><path style="fill:#840000;fill-opacity:0;stroke:#840000;stroke-width:.53999943;stroke-linecap:round;stroke-linejoin:round;stroke-opacity:1" id="path48" d="m 288.69116,307.05555 -3.15,0"/><path style="fill:#840000;fill-opacity:0;stroke:#840000;stroke-width:.53999943;stroke-linecap:round;stroke-linejoin:round;stroke-opacity:1" id="path50" d="m 287.16116,307.05555 0,-5.4 -0.54,0.81 -0.54,0.45 -0.54,0.27"/><polyline style="fill:#840000;fill-opacity:0;stroke:#840000;stroke-width:100;stroke-linecap:round;stroke-linejoin:round;stroke-opacity:1" id="polyline54" points="18250 19750 18550 20290 20640 20290 20640 19750 20640 19210 18550 19210 18250 19750" transform="matrix(0.00899999,0,0,0.00899999,105.99136,126.87575)"/><path style="fill:#008400;fill-opacity:0;stroke:#008400;stroke-width:.53999943;stroke-linecap:round;stroke-linejoin:round;stroke-opacity:1" id="path78" d="m 227.49123,304.62555 42.74995,0"/><path style="fill:#0000c2;fill-opacity:0;stroke:#0000c2;stroke-width:.53999943;stroke-linecap:round;stroke-linejoin:round;stroke-opacity:1" id="path82" d="m 199.50126,297.60556 0,-5.39999 1.35,0 0.72,0.26999 0.54,0.54 0.27,0.45 0.27,1.08 0,0.72 -0.27,1.08 -0.27,0.54 -0.54,0.45 -0.72,0.27 -1.35,0"/><path style="fill:#0000c2;fill-opacity:0;stroke:#0000c2;stroke-width:.53999943;stroke-linecap:round;stroke-linejoin:round;stroke-opacity:1" id="path84" d="m 208.05125,297.06556 -0.27,0.27 -0.81,0.27 -0.54,0 -0.72,-0.27 -0.54,-0.45 -0.27,-0.54 -0.27,-1.08 0,-0.72 0.27,-1.08 0.27,-0.45 0.54,-0.54 0.72,-0.26999 0.54,0 0.81,0.26999 0.27,0.27"/><path style="fill:#0000c2;fill-opacity:0;stroke:#0000c2;stroke-width:.53999943;stroke-linecap:round;stroke-linejoin:round;stroke-opacity:1" id="path86" d="m 215.25124,297.60556 -0.54,-0.27 -0.27,-0.27 -0.27,-0.45 0,-1.53 0.27,-0.54 0.27,-0.27 0.54,-0.27 0.72,0 0.54,0.27 0.27,0.27 0.27,0.54 0,1.53 -0.27,0.45 -0.27,0.27 -0.54,0.27 -0.72,0"/><path style="fill:#0000c2;fill-opacity:0;stroke:#0000c2;stroke-width:.53999943;stroke-linecap:round;stroke-linejoin:round;stroke-opacity:1" id="path88" d="m 221.64124,294.00556 0,3.6"/><path style="fill:#0000c2;fill-opacity:0;stroke:#0000c2;stroke-width:.53999943;stroke-linecap:round;stroke-linejoin:round;stroke-opacity:1" id="path90" d="m 219.30124,294.00556 0,2.88 0.27,0.45 0.54,0.27 0.72,0 0.54,-0.27 0.27,-0.27"/><path style="fill:#0000c2;fill-opacity:0;stroke:#0000c2;stroke-width:.53999943;stroke-linecap:round;stroke-linejoin:round;stroke-opacity:1" id="path92" d="m 223.44123,294.00556 2.07,0"/><path style="fill:#0000c2;fill-opacity:0;stroke:#0000c2;stroke-width:.53999943;stroke-linecap:round;stroke-linejoin:round;stroke-opacity:1" id="path94" d="m 224.16123,292.20557 0,4.67999 0.27,0.45 0.54,0.27 0.54,0"/><path style="fill:#0000c2;fill-opacity:0;stroke:#0000c2;stroke-width:.53999943;stroke-linecap:round;stroke-linejoin:round;stroke-opacity:1" id="path96" d="m 227.22123,294.00556 0,5.4"/><path style="fill:#0000c2;fill-opacity:0;stroke:#0000c2;stroke-width:.53999943;stroke-linecap:round;stroke-linejoin:round;stroke-opacity:1" id="path98" d="m 227.22123,294.27556 0.54,-0.27 0.99,0 0.54,0.27 0.27,0.27 0.27,0.54 0,1.53 -0.27,0.45 -0.27,0.27 -0.54,0.27 -0.99,0 -0.54,-0.27"/><path style="fill:#0000c2;fill-opacity:0;stroke:#0000c2;stroke-width:.53999943;stroke-linecap:round;stroke-linejoin:round;stroke-opacity:1" id="path100" d="m 234.42122,294.00556 0,3.6"/><path style="fill:#0000c2;fill-opacity:0;stroke:#0000c2;stroke-width:.53999943;stroke-linecap:round;stroke-linejoin:round;stroke-opacity:1" id="path102" d="m 232.08122,294.00556 0,2.88 0.27,0.45 0.54,0.27 0.72,0 0.54,-0.27 0.27,-0.27"/><path style="fill:#0000c2;fill-opacity:0;stroke:#0000c2;stroke-width:.53999943;stroke-linecap:round;stroke-linejoin:round;stroke-opacity:1" id="path104" d="m 236.22122,294.00556 2.07,0"/><path style="fill:#0000c2;fill-opacity:0;stroke:#0000c2;stroke-width:.53999943;stroke-linecap:round;stroke-linejoin:round;stroke-opacity:1" id="path106" d="m 236.94122,292.20557 0,4.67999 0.27,0.45 0.54,0.27 0.54,0"/></g></svg>