<svg xmlns="http://www.w3.org/2000/svg" xmlns:svg="http://www.w3.org/2000/svg" id="svg2" width="178.848" height="116.928" version="1.1" viewBox="0 0 18629.994 12180"><metadata id="metadata2838"/><title id="title4">SVG Picture created as filter.sch.svg date 2016/06/15 18:35:45</title><desc id="desc6">Picture generated by Eeschema-SVG</desc><g style="fill:#840000;fill-opacity:0;stroke:#840000;stroke-width:100;stroke-linecap:round;stroke-linejoin:round;stroke-opacity:1" id="g2028" transform="translate(-59810.02,-9410)"><rect id="rect2030" width="800" height="2000" x="62600" y="11250" rx="0"/></g><g style="fill:#840000;fill-opacity:0;stroke:#840000;stroke-width:60;stroke-linecap:round;stroke-linejoin:round;stroke-opacity:1" id="g2032" transform="translate(-59810.02,-9410)"><path id="path2034" d="m 63000,11250 0,-500"/><path id="path2036" d="m 63000,13250 0,500"/></g><g style="fill:#008484;fill-opacity:0;stroke:#008484;stroke-width:60;stroke-linecap:round;stroke-linejoin:round;stroke-opacity:1" id="g2038" transform="translate(-59810.02,-9410)"><path id="path2040" d="m 64000,12540 -240,160"/><path id="path2042" d="m 64000,12820 -500,0 0,-190 20,-50 20,-20 50,-20 70,0 50,20 20,20 30,50 0,190"/><path id="path2044" d="m 64000,12080 0,240 -500,0"/><path id="path2046" d="m 64000,11660 0,280"/><path id="path2048" d="m 64000,11800 -500,0 70,50 50,50 20,40"/><path id="path2050" d="m 63200,12360 0,280"/><path id="path2052" d="m 63200,12500 -500,0 70,50 50,50 20,40"/><path id="path2054" d="m 63200,12140 -500,0"/><path id="path2056" d="m 63200,11860 -290,210"/><path id="path2058" d="m 62700,11860 280,280"/></g><g style="fill:#840000;fill-opacity:0;stroke:#840000;stroke-width:100;stroke-linecap:round;stroke-linejoin:round;stroke-opacity:1" id="g2064" transform="translate(-59810.02,-9410)"><rect id="rect2066" width="800" height="2000" x="74600" y="11250" rx="0"/></g><g style="fill:#840000;fill-opacity:0;stroke:#840000;stroke-width:60;stroke-linecap:round;stroke-linejoin:round;stroke-opacity:1" id="g2068" transform="translate(-59810.02,-9410)"><path id="path2070" d="m 75000,11250 0,-500"/><path id="path2072" d="m 75000,13250 0,500"/></g><g style="fill:#008484;fill-opacity:0;stroke:#008484;stroke-width:60;stroke-linecap:round;stroke-linejoin:round;stroke-opacity:1" id="g2074" transform="translate(-59810.02,-9410)"><path id="path2076" d="m 76000,12540 -240,160"/><path id="path2078" d="m 76000,12820 -500,0 0,-190 20,-50 20,-20 50,-20 70,0 50,20 20,20 30,50 0,190"/><path id="path2080" d="m 76000,12080 0,240 -500,0"/><path id="path2082" d="m 75540,11940 -20,-20 -20,-50 0,-120 20,-40 20,-30 50,-20 50,0 70,20 290,290 0,-310"/><path id="path2084" d="m 75200,12360 0,280"/><path id="path2086" d="m 75200,12500 -500,0 70,50 50,50 20,40"/><path id="path2088" d="m 75200,12140 -500,0"/><path id="path2090" d="m 75200,11860 -290,210"/><path id="path2092" d="m 74700,11860 280,280"/></g><g style="fill:#840000;fill-opacity:0;stroke:#840000;stroke-width:100;stroke-linecap:round;stroke-linejoin:round;stroke-opacity:1" id="g2098" transform="translate(-59810.02,-9410)"><rect id="rect2100" width="800" height="2000" x="66850" y="11250" rx="0"/></g><g style="fill:#840000;fill-opacity:0;stroke:#840000;stroke-width:60;stroke-linecap:round;stroke-linejoin:round;stroke-opacity:1" id="g2102" transform="translate(-59810.02,-9410)"><path id="path2104" d="m 67250,11250 0,-500"/><path id="path2106" d="m 67250,13250 0,500"/></g><g style="fill:#008484;fill-opacity:0;stroke:#008484;stroke-width:60;stroke-linecap:round;stroke-linejoin:round;stroke-opacity:1" id="g2108" transform="translate(-59810.02,-9410)"><path id="path2110" d="m 68250,12340 -240,160"/><path id="path2112" d="m 68250,12620 -500,0 0,-190 20,-50 20,-20 50,-20 70,0 50,20 20,20 30,50 0,190"/><path id="path2114" d="m 67790,12140 -20,-20 -20,-50 0,-120 20,-40 20,-30 50,-20 50,0 70,20 290,290 0,-310"/><path id="path2116" d="m 67450,12600 0,280"/><path id="path2118" d="m 67450,12740 -500,0 70,50 50,50 20,40"/><path id="path2120" d="m 66950,12290 0,-50 20,-50 20,-20 50,-30 100,-20 120,0 90,20 50,30 20,20 30,50 0,50 -30,40 -20,30 -50,20 -90,20 -120,0 -100,-20 -50,-20 -20,-30 -20,-40"/><path id="path2122" d="m 67450,11900 -500,0"/><path id="path2124" d="m 67450,11620 -290,210"/><path id="path2126" d="m 66950,11620 280,280"/></g><g style="fill:#840000;fill-opacity:0;stroke:#840000;stroke-width:100;stroke-linecap:round;stroke-linejoin:round;stroke-opacity:1" id="g2132" transform="translate(-59810.02,-9410)"><rect id="rect2134" width="800" height="2000" x="70100" y="11250" rx="0"/></g><g style="fill:#840000;fill-opacity:0;stroke:#840000;stroke-width:60;stroke-linecap:round;stroke-linejoin:round;stroke-opacity:1" id="g2136" transform="translate(-59810.02,-9410)"><path id="path2138" d="m 70500,11250 0,-500"/><path id="path2140" d="m 70500,13250 0,500"/></g><g style="fill:#008484;fill-opacity:0;stroke:#008484;stroke-width:60;stroke-linecap:round;stroke-linejoin:round;stroke-opacity:1" id="g2142" transform="translate(-59810.02,-9410)"><path id="path2144" d="m 71500,12340 -240,160"/><path id="path2146" d="m 71500,12620 -500,0 0,-190 20,-50 20,-20 50,-20 70,0 50,20 20,20 30,50 0,190"/><path id="path2148" d="m 71500,11860 0,280"/><path id="path2150" d="m 71500,12000 -500,0 70,50 50,50 20,40"/><path id="path2152" d="m 70700,12600 0,280"/><path id="path2154" d="m 70700,12740 -500,0 70,50 50,50 20,40"/><path id="path2156" d="m 70200,12290 0,-50 20,-50 20,-20 50,-30 100,-20 120,0 90,20 50,30 20,20 30,50 0,50 -30,40 -20,30 -50,20 -90,20 -120,0 -100,-20 -50,-20 -20,-30 -20,-40"/><path id="path2158" d="m 70700,11900 -500,0"/><path id="path2160" d="m 70700,11620 -290,210"/><path id="path2162" d="m 70200,11620 280,280"/></g><g style="fill:#840000;fill-opacity:0;stroke:#840000;stroke-width:200;stroke-linecap:round;stroke-linejoin:round;stroke-opacity:1" id="g2168" transform="translate(-59810.02,-9410)"><polyline id="polyline2170" fill="none;" points="64700 12950 64700 14550"/><polyline id="polyline2172" fill="none;" points="65300 12950 65300 14550"/></g><g style="fill:#840000;fill-opacity:0;stroke:#840000;stroke-width:60;stroke-linecap:round;stroke-linejoin:round;stroke-opacity:1" id="g2174" transform="translate(-59810.02,-9410)"><path id="path2176" d="m 65400,13750 1100,0"/><path id="path2178" d="m 64600,13750 -1100,0"/></g><g style="fill:#008484;fill-opacity:0;stroke:#008484;stroke-width:60;stroke-linecap:round;stroke-linejoin:round;stroke-opacity:1" id="g2180" transform="translate(-59810.02,-9410)"><path id="path2182" d="m 64460,14950 50,0 50,20 20,20 30,50 20,100 0,120 -20,90 -30,50 -20,20 -50,30 -50,0 -40,-30 -30,-20 -20,-50 -20,-90 0,-120 20,-100 20,-50 30,-20 40,-20"/><path id="path2184" d="m 64850,15400 20,20 -20,30 -20,-30 20,-20 0,50"/><path id="path2186" d="m 65350,15450 -280,0"/><path id="path2188" d="m 65210,15450 0,-500 -50,70 -50,50 -40,20"/><path id="path2190" d="m 65780,15110 0,340"/><path id="path2192" d="m 65570,15110 0,260 20,50 50,30 70,0 50,-30 20,-20"/><path id="path2194" d="m 66190,15180 -170,0"/><path id="path2196" d="m 66020,15450 0,-500 240,0"/></g><g style="fill:#840000;fill-opacity:0;stroke:#840000;stroke-width:200;stroke-linecap:round;stroke-linejoin:round;stroke-opacity:1" id="g2202" transform="translate(-59810.02,-9410)"><polyline id="polyline2204" fill="none;" points="72450 12950 72450 14550"/><polyline id="polyline2206" fill="none;" points="73050 12950 73050 14550"/></g><g style="fill:#840000;fill-opacity:0;stroke:#840000;stroke-width:60;stroke-linecap:round;stroke-linejoin:round;stroke-opacity:1" id="g2208" transform="translate(-59810.02,-9410)"><path id="path2210" d="m 73150,13750 1100,0"/><path id="path2212" d="m 72350,13750 -1100,0"/></g><g style="fill:#008484;fill-opacity:0;stroke:#008484;stroke-width:60;stroke-linecap:round;stroke-linejoin:round;stroke-opacity:1" id="g2214" transform="translate(-59810.02,-9410)"><path id="path2216" d="m 72210,14950 50,0 50,20 20,20 30,50 20,100 0,120 -20,90 -30,50 -20,20 -50,30 -50,0 -40,-30 -30,-20 -20,-50 -20,-90 0,-120 20,-100 20,-50 30,-20 40,-20"/><path id="path2218" d="m 72600,15400 20,20 -20,30 -20,-30 20,-20 0,50"/><path id="path2220" d="m 73100,15450 -280,0"/><path id="path2222" d="m 72960,15450 0,-500 -50,70 -50,50 -40,20"/><path id="path2224" d="m 73530,15110 0,340"/><path id="path2226" d="m 73320,15110 0,260 20,50 50,30 70,0 50,-30 20,-20"/><path id="path2228" d="m 73940,15180 -170,0"/><path id="path2230" d="m 73770,15450 0,-500 240,0"/></g><g style="fill:#840000;fill-opacity:0;stroke:#840000;stroke-width:100;stroke-linecap:round;stroke-linejoin:round;stroke-opacity:1" id="g2236" transform="translate(-59810.02,-9410)"><circle id="circle2238" cx="63500" cy="17500" r="1110"/></g><g style="fill:#840000;fill-opacity:0;stroke:#840000;stroke-width:60;stroke-linecap:round;stroke-linejoin:round;stroke-opacity:1" id="g2240" transform="translate(-59810.02,-9410)"><polyline id="polyline2242" fill="none;" points="64000 17500 63750 17500"/><polyline id="polyline2244" fill="none;" points="63000 18500 63750 17750"/><polyline id="polyline2246" fill="none;" points="63000 16500 63750 17250"/></g><g style="fill:#840000;fill-opacity:0;stroke:#840000;stroke-width:200;stroke-linecap:round;stroke-linejoin:round;stroke-opacity:1" id="g2248" transform="translate(-59810.02,-9410)"><polyline id="polyline2250" fill="none;" points="63750 16750 63750 18250 63750 18250"/></g><g style="fill:#840000;fill-opacity:0;stroke:#840000;stroke-width:60;stroke-linecap:round;stroke-linejoin:round;stroke-opacity:1" id="g2252" transform="translate(-59810.02,-9410)"><polyline id="polyline2254" fill="none;" points="63050 18450 63250 18250 63250 18250"/></g><g style="fill:#840000;fill-opacity:1;stroke:#840000;stroke-width:60;stroke-linecap:round;stroke-linejoin:round;stroke-opacity:1" id="g2256" transform="translate(-59810.02,-9410)"><polyline style="fill-rule:evenodd" id="polyline2258" points="63450 18250 63250 18050 63050 18450 63450 18250 63450 18250"/></g><g style="fill:#840000;fill-opacity:0;stroke:#840000;stroke-width:60;stroke-linecap:round;stroke-linejoin:round;stroke-opacity:1" id="g2260" transform="translate(-59810.02,-9410)"><path id="path2262" d="m 63000,18500 0,1000"/></g><g style="fill:#008484;fill-opacity:0;stroke:#008484;stroke-width:60;stroke-linecap:round;stroke-linejoin:round;stroke-opacity:1" id="g2264" transform="translate(-59810.02,-9410)"><path id="path2266" d="m 62610,19100 0,-170"/><path id="path2268" d="m 62880,18860 0,240 -500,0 0,-240"/></g><g style="fill:#840000;fill-opacity:0;stroke:#840000;stroke-width:60;stroke-linecap:round;stroke-linejoin:round;stroke-opacity:1" id="g2270" transform="translate(-59810.02,-9410)"><path id="path2272" d="m 63580,18860 0,280"/><path id="path2274" d="m 63580,19000 -500,0 70,50 50,50 20,40"/><path id="path2276" d="m 64000,17500 2000,0"/></g><g style="fill:#008484;fill-opacity:0;stroke:#008484;stroke-width:60;stroke-linecap:round;stroke-linejoin:round;stroke-opacity:1" id="g2278" transform="translate(-59810.02,-9410)"><path id="path2280" d="m 65040,17110 70,30 20,20 20,50 0,70 -20,50 -20,20 -50,30 -190,0 0,-500 170,0 40,20 30,20 20,50 0,50 -20,50 -30,20 -40,20 -170,0"/></g><g style="fill:#840000;fill-opacity:0;stroke:#840000;stroke-width:60;stroke-linecap:round;stroke-linejoin:round;stroke-opacity:1" id="g2282" transform="translate(-59810.02,-9410)"><path id="path2284" d="m 64860,17620 20,-20 50,-20 120,0 40,20 30,20 20,50 0,50 -20,70 -290,290 310,0"/><path id="path2286" d="m 63000,16500 0,-1000"/></g><g style="fill:#008484;fill-opacity:0;stroke:#008484;stroke-width:60;stroke-linecap:round;stroke-linejoin:round;stroke-opacity:1" id="g2288" transform="translate(-59810.02,-9410)"><path id="path2290" d="m 62830,15850 20,20 30,70 0,50 -30,70 -50,50 -40,20 -100,20 -70,0 -90,-20 -50,-20 -50,-50 -20,-70 0,-50 20,-70 20,-20"/></g><g style="fill:#840000;fill-opacity:0;stroke:#840000;stroke-width:60;stroke-linecap:round;stroke-linejoin:round;stroke-opacity:1" id="g2292" transform="translate(-59810.02,-9410)"><path id="path2294" d="m 63080,16170 0,-310 190,170 0,-80 20,-40 20,-30 50,-20 120,0 50,20 20,30 30,40 0,150 -30,40 -20,30"/></g><g style="fill:#008484;fill-opacity:0;stroke:#008484;stroke-width:60;stroke-linecap:round;stroke-linejoin:round;stroke-opacity:1" id="g2296" transform="translate(-59810.02,-9410)"><path id="path2298" d="m 61300,18650 -20,-20 -20,-50 0,-120 20,-40 20,-30 50,-20 50,0 70,20 290,290 0,-310"/><path id="path2300" d="m 61760,18150 -500,0 500,-280 -500,0"/><path id="path2302" d="m 61300,17650 -20,-20 -20,-50 0,-120 20,-40 20,-30 50,-20 50,0 70,20 290,290 0,-310"/><path id="path2304" d="m 61300,17170 -20,-20 -20,-50 0,-120 20,-40 20,-30 50,-20 50,0 70,20 290,290 0,-310"/><path id="path2306" d="m 61300,16690 -20,-20 -20,-50 0,-120 20,-40 20,-30 50,-20 50,0 70,20 290,290 0,-310"/><path id="path2308" d="m 61300,16210 -20,-20 -20,-50 0,-120 20,-40 20,-30 50,-20 50,0 70,20 290,290 0,-310"/></g><g style="fill:#840000;fill-opacity:0;stroke:#840000;stroke-width:100;stroke-linecap:round;stroke-linejoin:round;stroke-opacity:1" id="g2314" transform="translate(-59810.02,-9410)"><circle id="circle2316" cx="74500" cy="17500" r="1110"/></g><g style="fill:#840000;fill-opacity:0;stroke:#840000;stroke-width:60;stroke-linecap:round;stroke-linejoin:round;stroke-opacity:1" id="g2318" transform="translate(-59810.02,-9410)"><polyline id="polyline2320" fill="none;" points="74000 17500 74250 17500"/><polyline id="polyline2322" fill="none;" points="75000 18500 74250 17750"/><polyline id="polyline2324" fill="none;" points="75000 16500 74250 17250"/></g><g style="fill:#840000;fill-opacity:0;stroke:#840000;stroke-width:200;stroke-linecap:round;stroke-linejoin:round;stroke-opacity:1" id="g2326" transform="translate(-59810.02,-9410)"><polyline id="polyline2328" fill="none;" points="74250 16750 74250 18250 74250 18250"/></g><g style="fill:#840000;fill-opacity:0;stroke:#840000;stroke-width:60;stroke-linecap:round;stroke-linejoin:round;stroke-opacity:1" id="g2330" transform="translate(-59810.02,-9410)"><polyline id="polyline2332" fill="none;" points="74950 18450 74750 18250 74750 18250"/></g><g style="fill:#840000;fill-opacity:1;stroke:#840000;stroke-width:60;stroke-linecap:round;stroke-linejoin:round;stroke-opacity:1" id="g2334" transform="translate(-59810.02,-9410)"><polyline style="fill-rule:evenodd" id="polyline2336" points="74550 18250 74750 18050 74950 18450 74550 18250 74550 18250"/></g><g style="fill:#840000;fill-opacity:0;stroke:#840000;stroke-width:60;stroke-linecap:round;stroke-linejoin:round;stroke-opacity:1" id="g2338" transform="translate(-59810.02,-9410)"><path id="path2340" d="m 75000,18500 0,1000"/></g><g style="fill:#008484;fill-opacity:0;stroke:#008484;stroke-width:60;stroke-linecap:round;stroke-linejoin:round;stroke-opacity:1" id="g2342" transform="translate(-59810.02,-9410)"><path id="path2344" d="m 74610,19100 0,-170"/><path id="path2346" d="m 74880,18860 0,240 -500,0 0,-240"/></g><g style="fill:#840000;fill-opacity:0;stroke:#840000;stroke-width:60;stroke-linecap:round;stroke-linejoin:round;stroke-opacity:1" id="g2348" transform="translate(-59810.02,-9410)"><path id="path2350" d="m 75580,18860 0,280"/><path id="path2352" d="m 75580,19000 -500,0 70,50 50,50 20,40"/><path id="path2354" d="m 74000,17500 -2000,0"/></g><g style="fill:#008484;fill-opacity:0;stroke:#008484;stroke-width:60;stroke-linecap:round;stroke-linejoin:round;stroke-opacity:1" id="g2356" transform="translate(-59810.02,-9410)"><path id="path2358" d="m 73040,17110 70,30 20,20 20,50 0,70 -20,50 -20,20 -50,30 -190,0 0,-500 170,0 40,20 30,20 20,50 0,50 -20,50 -30,20 -40,20 -170,0"/></g><g style="fill:#840000;fill-opacity:0;stroke:#840000;stroke-width:60;stroke-linecap:round;stroke-linejoin:round;stroke-opacity:1" id="g2360" transform="translate(-59810.02,-9410)"><path id="path2362" d="m 72860,17620 20,-20 50,-20 120,0 40,20 30,20 20,50 0,50 -20,70 -290,290 310,0"/><path id="path2364" d="m 75000,16500 0,-1000"/></g><g style="fill:#008484;fill-opacity:0;stroke:#008484;stroke-width:60;stroke-linecap:round;stroke-linejoin:round;stroke-opacity:1" id="g2366" transform="translate(-59810.02,-9410)"><path id="path2368" d="m 74830,15850 20,20 30,70 0,50 -30,70 -50,50 -40,20 -100,20 -70,0 -90,-20 -50,-20 -50,-50 -20,-70 0,-50 20,-70 20,-20"/></g><g style="fill:#840000;fill-opacity:0;stroke:#840000;stroke-width:60;stroke-linecap:round;stroke-linejoin:round;stroke-opacity:1" id="g2370" transform="translate(-59810.02,-9410)"><path id="path2372" d="m 75080,16170 0,-310 190,170 0,-80 20,-40 20,-30 50,-20 120,0 50,20 20,30 30,40 0,150 -30,40 -20,30"/></g><g style="fill:#008484;fill-opacity:0;stroke:#008484;stroke-width:60;stroke-linecap:round;stroke-linejoin:round;stroke-opacity:1" id="g2374" transform="translate(-59810.02,-9410)"><path id="path2376" d="m 76240,18650 -20,-20 -20,-50 0,-120 20,-40 20,-30 50,-20 50,0 70,20 290,290 0,-310"/><path id="path2378" d="m 76700,18150 -500,0 500,-280 -500,0"/><path id="path2380" d="m 76240,17650 -20,-20 -20,-50 0,-120 20,-40 20,-30 50,-20 50,0 70,20 290,290 0,-310"/><path id="path2382" d="m 76240,17170 -20,-20 -20,-50 0,-120 20,-40 20,-30 50,-20 50,0 70,20 290,290 0,-310"/><path id="path2384" d="m 76240,16690 -20,-20 -20,-50 0,-120 20,-40 20,-30 50,-20 50,0 70,20 290,290 0,-310"/><path id="path2386" d="m 76240,16210 -20,-20 -20,-50 0,-120 20,-40 20,-30 50,-20 50,0 70,20 290,290 0,-310"/></g><g style="fill:#840000;fill-opacity:0;stroke:#840000;stroke-width:60;stroke-linecap:round;stroke-linejoin:round;stroke-opacity:1" id="g2388" transform="translate(-59810.02,-9410)"><path id="path2390" d="m 61270,20700 -60,-30 -90,0 -80,30 -60,60 -30,50 -30,120 0,80 30,120 30,60 60,50 80,30 60,0 90,-30 30,-30 0,-200 -120,0"/><path id="path2392" d="m 61550,21270 0,-600 350,600 0,-600"/><path id="path2394" d="m 62180,21270 0,-600 150,0 80,30 60,60 30,50 30,120 0,80 -30,120 -30,60 -60,50 -80,30 -150,0"/></g><g style="fill:#840000;fill-opacity:0;stroke:#840000;stroke-width:100;stroke-linecap:round;stroke-linejoin:round;stroke-opacity:1" id="g2396" transform="translate(-59810.02,-9410)"><polyline id="polyline2398" fill="none;" points="63000 21000 62700 20460 60580 20460 60580 21000 60580 21540 62700 21540 63000 21000"/></g><g style="fill:#840000;fill-opacity:0;stroke:#840000;stroke-width:60;stroke-linecap:round;stroke-linejoin:round;stroke-opacity:1" id="g2400" transform="translate(-59810.02,-9410)"><path id="path2402" d="m 60790,9670 370,0 -200,230 80,0 60,30 30,30 30,50 0,150 -30,50 -30,30 -60,30 -170,0 -60,-30 -20,-30"/><path id="path2404" d="m 61410,10210 30,30 -30,30 -30,-30 30,-30 0,60"/><path id="path2406" d="m 61650,9670 370,0 -200,230 80,0 60,30 30,30 30,50 0,150 -30,50 -30,30 -60,30 -170,0 -60,-30 -20,-30"/><path id="path2408" d="m 62190,9670 200,600 200,-600"/></g><g style="fill:#840000;fill-opacity:0;stroke:#840000;stroke-width:100;stroke-linecap:round;stroke-linejoin:round;stroke-opacity:1" id="g2410" transform="translate(-59810.02,-9410)"><polyline id="polyline2412" fill="none;" points="63000 10000 62700 9460 60470 9460 60470 10000 60470 10540 62700 10540 63000 10000"/></g><g style="fill:#840000;fill-opacity:0;stroke:#840000;stroke-width:60;stroke-linecap:round;stroke-linejoin:round;stroke-opacity:1" id="g2414" transform="translate(-59810.02,-9410)"><path id="path2416" d="m 60580,13960 -30,30 -90,30 -60,0 -80,-30 -60,-50 -30,-60 -30,-120 0,-80 30,-120 30,-50 60,-60 80,-30 60,0 90,30 30,30"/><path id="path2418" d="m 60830,14020 0,-600"/><path id="path2420" d="m 60830,13710 350,0"/><path id="path2422" d="m 61180,14020 0,-600"/><path id="path2424" d="m 61780,14020 -350,0"/><path id="path2426" d="m 61610,14020 0,-600 -60,90 -60,50 -60,30"/></g><g style="fill:#840000;fill-opacity:0;stroke:#840000;stroke-width:100;stroke-linecap:round;stroke-linejoin:round;stroke-opacity:1" id="g2428" transform="translate(-59810.02,-9410)"><polyline id="polyline2430" fill="none;" points="62250 13750 61950 13210 59860 13210 59860 13750 59860 14290 61950 14290 62250 13750"/></g><g style="fill:#840000;fill-opacity:0;stroke:#840000;stroke-width:60;stroke-linecap:round;stroke-linejoin:round;stroke-opacity:1" id="g2432" transform="translate(-59810.02,-9410)"><path id="path2434" d="m 76850,13960 -30,30 -90,30 -60,0 -80,-30 -60,-50 -30,-60 -30,-120 0,-80 30,-120 30,-50 60,-60 80,-30 60,0 90,30 30,30"/><path id="path2436" d="m 77100,14020 0,-600"/><path id="path2438" d="m 77100,13710 350,0"/><path id="path2440" d="m 77450,14020 0,-600"/><path id="path2442" d="m 77700,13480 30,-30 60,-30 140,0 60,30 30,30 30,60 0,50 -30,90 -340,340 370,0"/></g><g style="fill:#840000;fill-opacity:0;stroke:#840000;stroke-width:100;stroke-linecap:round;stroke-linejoin:round;stroke-opacity:1" id="g2444" transform="translate(-59810.02,-9410)"><polyline id="polyline2446" fill="none;" points="76000 13750 76300 14290 78390 14290 78390 13750 78390 13210 76300 13210 76000 13750"/></g><g style="fill:#008400;fill-opacity:0;stroke:#008400;stroke-width:60;stroke-linecap:round;stroke-linejoin:round;stroke-opacity:1" id="g2752" transform="translate(-59810.02,-9410)"><path id="path2772" d="m 62250,13750 1250,0"/><path id="path2774" d="m 63000,19500 0,1500"/><path id="path2776" d="m 63000,21000 12000,0"/><path id="path2778" d="m 74250,13750 1750,0"/><path id="path2780" d="m 66500,13750 750,0"/><path id="path2782" d="m 71250,13750 -750,0"/><path id="path2784" d="m 63000,10750 12000,0"/></g><g style="fill:#008400;fill-opacity:1;stroke:#008400;stroke-width:100;stroke-linecap:round;stroke-linejoin:round;stroke-opacity:1" id="g2788" transform="translate(-59810.02,-9410)"><circle id="circle2790" cx="67250" cy="10750" r="200"/></g><g style="fill:#008400;fill-opacity:1;stroke:#008400;stroke-width:100;stroke-linecap:round;stroke-linejoin:round;stroke-opacity:1" id="g2794" transform="translate(-59810.02,-9410)"><circle id="circle2796" cx="70500" cy="10750" r="200"/></g><g style="fill:#008400;fill-opacity:0;stroke:#008400;stroke-width:60;stroke-linecap:round;stroke-linejoin:round;stroke-opacity:1" id="g2800" transform="translate(-59810.02,-9410)"><path id="path2802" d="m 63000,10000 0,750"/></g><g style="fill:#008400;fill-opacity:1;stroke:#008400;stroke-width:100;stroke-linecap:round;stroke-linejoin:round;stroke-opacity:1" id="g2806" transform="translate(-59810.02,-9410)"><circle id="circle2808" cx="63000" cy="13750" r="200"/></g><g style="fill:#008400;fill-opacity:1;stroke:#008400;stroke-width:100;stroke-linecap:round;stroke-linejoin:round;stroke-opacity:1" id="g2812" transform="translate(-59810.02,-9410)"><circle id="circle2814" cx="75000" cy="13750" r="200"/></g><g style="fill:#008400;fill-opacity:0;stroke:#008400;stroke-width:60;stroke-linecap:round;stroke-linejoin:round;stroke-opacity:1" id="g2818" transform="translate(-59810.02,-9410)"><path id="path2820" d="m 75000,21000 0,-1500"/><path id="path2822" d="m 63000,13750 0,1750"/><path id="path2824" d="m 75000,13750 0,1750"/><path id="path2826" d="m 72000,17500 -1000,0"/><path id="path2828" d="M 71000,17500 67250,13750"/><path id="path2830" d="m 70500,13750 -3000,3750"/><path id="path2832" d="m 67500,17500 -1500,0"/></g></svg>