<svg xmlns="http://www.w3.org/2000/svg" xmlns:svg="http://www.w3.org/2000/svg" id="svg9369" width="118.272" height="29.382" version="1.1" viewBox="0 0 110.88 27.546"><metadata id="metadata9374"/><g id="layer1" transform="translate(-233.13149,-498.58943)"><path style="fill:#840000;fill-opacity:0;stroke:#840000;stroke-width:.53999943;stroke-linecap:round;stroke-linejoin:round;stroke-opacity:1" id="path2600" d="m 330.51138,514.70115 -0.27,0.27 -0.81,0.27 -0.54,0 -0.72,-0.27 -0.53999,-0.45 -0.27,-0.54 -0.27,-1.08 0,-0.72 0.27,-1.08 0.27,-0.45 0.53999,-0.54 0.72,-0.27 0.54,0 0.81,0.27 0.27,0.27"/><path style="fill:#840000;fill-opacity:0;stroke:#840000;stroke-width:.53999943;stroke-linecap:round;stroke-linejoin:round;stroke-opacity:1" id="path2602" d="m 332.49138,513.71115 2.61,0"/><path style="fill:#840000;fill-opacity:0;stroke:#840000;stroke-width:.53999943;stroke-linecap:round;stroke-linejoin:round;stroke-opacity:1" id="path2604" d="m 332.04138,515.24115 1.8,-5.4 1.8,5.4"/><path style="fill:#840000;fill-opacity:0;stroke:#840000;stroke-width:.53999943;stroke-linecap:round;stroke-linejoin:round;stroke-opacity:1" id="path2606" d="m 337.35137,515.24115 0,-5.4 2.07,0 0.54,0.27 0.27,0.27 0.27,0.54 0,0.72 -0.27,0.54 -0.27,0.27 -0.54,0.27 -2.07,0"/><polyline style="fill:#840000;fill-opacity:0;stroke:#840000;stroke-width:100;stroke-linecap:round;stroke-linejoin:round;stroke-opacity:1" id="polyline2610" points="66000 40000 66300 40540 68300 40540 68300 40000 68300 39460 66300 39460 66000 40000" transform="matrix(0.00899999,0,0,0.00899999,-271.13795,152.81155)"/><path style="fill:#840000;fill-opacity:0;stroke:#840000;stroke-width:.53999943;stroke-linecap:round;stroke-linejoin:round;stroke-opacity:1" id="path2614" d="m 239.79148,510.11115 -0.54,-0.27 -0.81,0 -0.71999,0.27 -0.54,0.54 -0.27,0.45 -0.27,1.08 0,0.72 0.27,1.08 0.27,0.54 0.54,0.45 0.71999,0.27 0.54,0 0.81,-0.27 0.27,-0.27 0,-1.8 -1.08,0"/><path style="fill:#840000;fill-opacity:0;stroke:#840000;stroke-width:.53999943;stroke-linecap:round;stroke-linejoin:round;stroke-opacity:1" id="path2616" d="m 242.31148,515.24115 0,-5.4 3.15,5.4 0,-5.4"/><path style="fill:#840000;fill-opacity:0;stroke:#840000;stroke-width:.53999943;stroke-linecap:round;stroke-linejoin:round;stroke-opacity:1" id="path2618" d="m 247.98147,515.24115 0,-5.4 1.35,0 0.72,0.27 0.54,0.54 0.27,0.45 0.27,1.08 0,0.72 -0.27,1.08 -0.27,0.54 -0.54,0.45 -0.72,0.27 -1.35,0"/><polyline style="fill:#840000;fill-opacity:0;stroke:#840000;stroke-width:100;stroke-linecap:round;stroke-linejoin:round;stroke-opacity:1" id="polyline2622" points="58500 40000 58200 39460 56080 39460 56080 40000 56080 40540 58200 40540 58500 40000" transform="matrix(0.00899999,0,0,0.00899999,-271.13795,152.81155)"/><polyline style="fill:#840000;fill-opacity:0;stroke:#840000;stroke-width:200;stroke-linecap:round;stroke-linejoin:round;stroke-opacity:1" id="polyline2732" points="60200 39200 60200 40800" transform="matrix(0.00899999,0,0,0.00899999,-271.13795,152.81155)"/><polyline style="fill:#840000;fill-opacity:0;stroke:#840000;stroke-width:200;stroke-linecap:round;stroke-linejoin:round;stroke-opacity:1" id="polyline2734" points="60800 39200 60800 40800" transform="matrix(0.00899999,0,0,0.00899999,-271.13795,152.81155)"/><path style="fill:#840000;fill-opacity:0;stroke:#840000;stroke-width:.53999943;stroke-linecap:round;stroke-linejoin:round;stroke-opacity:1" id="path2738" d="m 276.96144,512.81115 9.89999,0"/><path style="fill:#840000;fill-opacity:0;stroke:#840000;stroke-width:.53999943;stroke-linecap:round;stroke-linejoin:round;stroke-opacity:1" id="path2740" d="m 269.76145,512.81115 -9.89999,0"/><path style="fill:#008484;fill-opacity:0;stroke:#008484;stroke-width:.53999943;stroke-linecap:round;stroke-linejoin:round;stroke-opacity:1" id="path2744" d="m 265.71145,525.41114 -0.18,0.18 -0.62999,0.26999 -0.45,0 -0.63,-0.26999 -0.45,-0.45 -0.18,-0.36 -0.18,-0.9 0,-0.63 0.18,-0.81 0.18,-0.45 0.45,-0.45 0.63,-0.18 0.45,0 0.62999,0.18 0.18,0.18"/><path style="fill:#008484;fill-opacity:0;stroke:#008484;stroke-width:.53999943;stroke-linecap:round;stroke-linejoin:round;stroke-opacity:1" id="path2746" d="m 270.03145,525.86113 -2.52,0"/><path style="fill:#008484;fill-opacity:0;stroke:#008484;stroke-width:.53999943;stroke-linecap:round;stroke-linejoin:round;stroke-opacity:1" id="path2748" d="m 268.77145,525.86113 0,-4.49999 -0.45,0.63 -0.45,0.45 -0.36,0.18"/><path style="fill:#008484;fill-opacity:0;stroke:#008484;stroke-width:.53999943;stroke-linecap:round;stroke-linejoin:round;stroke-opacity:1" id="path2750" d="m 281.28144,503.36116 -2.52,0"/><path style="fill:#008484;fill-opacity:0;stroke:#008484;stroke-width:.53999943;stroke-linecap:round;stroke-linejoin:round;stroke-opacity:1" id="path2752" d="m 280.02144,503.36116 0,-4.5 -0.45,0.63 -0.45,0.45 -0.36,0.18"/><path style="fill:#008484;fill-opacity:0;stroke:#008484;stroke-width:.53999943;stroke-linecap:round;stroke-linejoin:round;stroke-opacity:1" id="path2754" d="m 284.07143,498.86116 0.45,0 0.45,0.18 0.18,0.18 0.27,0.45 0.18,0.9 0,1.08 -0.18,0.81 -0.27,0.45 -0.18,0.18 -0.45,0.27 -0.45,0 -0.36,-0.27 -0.27,-0.18 -0.18,-0.45 -0.18,-0.81 0,-1.08 0.18,-0.9 0.18,-0.45 0.27,-0.18 0.36,-0.18"/><path style="fill:#008484;fill-opacity:0;stroke:#008484;stroke-width:.53999943;stroke-linecap:round;stroke-linejoin:round;stroke-opacity:1" id="path2756" d="m 288.39143,498.86116 0.45,0 0.45,0.18 0.18,0.18 0.27,0.45 0.18,0.9 0,1.08 -0.18,0.81 -0.27,0.45 -0.18,0.18 -0.45,0.27 -0.45,0 -0.36,-0.27 -0.27,-0.18 -0.18,-0.45 -0.18,-0.81 0,-1.08 0.18,-0.9 0.18,-0.45 0.27,-0.18 0.36,-0.18"/><path style="fill:#008484;fill-opacity:0;stroke:#008484;stroke-width:.53999943;stroke-linecap:round;stroke-linejoin:round;stroke-opacity:1" id="path2758" d="m 291.90143,500.30116 0,4.5"/><path style="fill:#008484;fill-opacity:0;stroke:#008484;stroke-width:.53999943;stroke-linecap:round;stroke-linejoin:round;stroke-opacity:1" id="path2760" d="m 291.90143,500.57116 0.44999,-0.27 0.81,0 0.45,0.27 0.18,0.18 0.27,0.45 0,1.26 -0.27,0.45 -0.18,0.18 -0.45,0.27 -0.81,0 -0.44999,-0.27"/><path style="fill:#008484;fill-opacity:0;stroke:#008484;stroke-width:.53999943;stroke-linecap:round;stroke-linejoin:round;stroke-opacity:1" id="path2762" d="m 297.48142,500.93116 -1.53,0"/><path style="fill:#008484;fill-opacity:0;stroke:#008484;stroke-width:.53999943;stroke-linecap:round;stroke-linejoin:round;stroke-opacity:1" id="path2764" d="m 295.95142,503.36116 0,-4.5 2.16,0"/><polyline style="fill:#840000;fill-opacity:0;stroke:#840000;stroke-width:200;stroke-linecap:round;stroke-linejoin:round;stroke-opacity:1" id="polyline2772" points="63700 39200 63700 40800" transform="matrix(0.00899999,0,0,0.00899999,-271.13795,152.81155)"/><polyline style="fill:#840000;fill-opacity:0;stroke:#840000;stroke-width:200;stroke-linecap:round;stroke-linejoin:round;stroke-opacity:1" id="polyline2774" points="64300 39200 64300 40800" transform="matrix(0.00899999,0,0,0.00899999,-271.13795,152.81155)"/><path style="fill:#840000;fill-opacity:0;stroke:#840000;stroke-width:.53999943;stroke-linecap:round;stroke-linejoin:round;stroke-opacity:1" id="path2778" d="m 308.46141,512.81115 9.89999,0"/><path style="fill:#840000;fill-opacity:0;stroke:#840000;stroke-width:.53999943;stroke-linecap:round;stroke-linejoin:round;stroke-opacity:1" id="path2780" d="m 301.26141,512.81115 -9.89998,0"/><path style="fill:#008484;fill-opacity:0;stroke:#008484;stroke-width:.53999943;stroke-linecap:round;stroke-linejoin:round;stroke-opacity:1" id="path2784" d="m 297.21142,525.41114 -0.18,0.18 -0.63,0.26999 -0.45,0 -0.63,-0.26999 -0.45,-0.45 -0.18,-0.36 -0.18,-0.9 0,-0.63 0.18,-0.81 0.18,-0.45 0.45,-0.45 0.63,-0.18 0.45,0 0.63,0.18 0.18,0.18"/><path style="fill:#008484;fill-opacity:0;stroke:#008484;stroke-width:.53999943;stroke-linecap:round;stroke-linejoin:round;stroke-opacity:1" id="path2786" d="m 299.01142,521.72114 0.18,-0.18 0.45,-0.18 1.08,0 0.36,0.18 0.26999,0.18 0.18,0.45 0,0.45 -0.18,0.63 -2.60999,2.60999 2.78999,0"/><path style="fill:#008484;fill-opacity:0;stroke:#008484;stroke-width:.53999943;stroke-linecap:round;stroke-linejoin:round;stroke-opacity:1" id="path2788" d="m 312.7814,503.36116 -2.52,0"/><path style="fill:#008484;fill-opacity:0;stroke:#008484;stroke-width:.53999943;stroke-linecap:round;stroke-linejoin:round;stroke-opacity:1" id="path2790" d="m 311.5214,503.36116 0,-4.5 -0.45,0.63 -0.45,0.45 -0.36,0.18"/><path style="fill:#008484;fill-opacity:0;stroke:#008484;stroke-width:.53999943;stroke-linecap:round;stroke-linejoin:round;stroke-opacity:1" id="path2792" d="m 315.5714,498.86116 0.45,0 0.45,0.18 0.18,0.18 0.27,0.45 0.18,0.9 0,1.08 -0.18,0.81 -0.27,0.45 -0.18,0.18 -0.45,0.27 -0.45,0 -0.36,-0.27 -0.27,-0.18 -0.18,-0.45 -0.18,-0.81 0,-1.08 0.18,-0.9 0.18,-0.45 0.27,-0.18 0.36,-0.18"/><path style="fill:#008484;fill-opacity:0;stroke:#008484;stroke-width:.53999943;stroke-linecap:round;stroke-linejoin:round;stroke-opacity:1" id="path2794" d="m 319.89139,498.86116 0.45,0 0.45,0.18 0.18,0.18 0.27,0.45 0.18,0.9 0,1.08 -0.18,0.81 -0.27,0.45 -0.18,0.18 -0.45,0.27 -0.45,0 -0.36,-0.27 -0.27,-0.18 -0.18,-0.45 -0.17999,-0.81 0,-1.08 0.17999,-0.9 0.18,-0.45 0.27,-0.18 0.36,-0.18"/><path style="fill:#008484;fill-opacity:0;stroke:#008484;stroke-width:.53999943;stroke-linecap:round;stroke-linejoin:round;stroke-opacity:1" id="path2796" d="m 323.40139,500.30116 0,4.5"/><path style="fill:#008484;fill-opacity:0;stroke:#008484;stroke-width:.53999943;stroke-linecap:round;stroke-linejoin:round;stroke-opacity:1" id="path2798" d="m 323.40139,500.57116 0.45,-0.27 0.81,0 0.45,0.27 0.18,0.18 0.27,0.45 0,1.26 -0.27,0.45 -0.18,0.18 -0.45,0.27 -0.81,0 -0.45,-0.27"/><path style="fill:#008484;fill-opacity:0;stroke:#008484;stroke-width:.53999943;stroke-linecap:round;stroke-linejoin:round;stroke-opacity:1" id="path2800" d="m 328.98138,500.93116 -1.52999,0"/><path style="fill:#008484;fill-opacity:0;stroke:#008484;stroke-width:.53999943;stroke-linecap:round;stroke-linejoin:round;stroke-opacity:1" id="path2802" d="m 327.45139,503.36116 0,-4.5 2.15999,0"/><path style="fill:#008400;fill-opacity:0;stroke:#008400;stroke-width:.53999943;stroke-linecap:round;stroke-linejoin:round;stroke-opacity:1" id="path3154" d="m 291.36143,512.81115 -4.5,0"/><path style="fill:#008400;fill-opacity:0;stroke:#008400;stroke-width:.53999943;stroke-linecap:round;stroke-linejoin:round;stroke-opacity:1" id="path3156" d="m 259.86146,512.81115 -4.49999,0"/><path style="fill:#008400;fill-opacity:0;stroke:#008400;stroke-width:.53999943;stroke-linecap:round;stroke-linejoin:round;stroke-opacity:1" id="path3158" d="m 318.3614,512.81115 4.49999,0"/></g></svg>