<svg xmlns="http://www.w3.org/2000/svg" xmlns:svg="http://www.w3.org/2000/svg" id="svg2" width="85.536" height="50.404" version="1.1" viewBox="0 0 8909.997 5250.427"><metadata id="metadata3772"/><title id="title4">SVG Picture created as halfwave.sch.svg date 2016/06/13 03:07:35</title><desc id="desc6">Picture generated by Eeschema-SVG</desc><g style="fill:#840000;fill-opacity:0;stroke:#840000;stroke-width:60;stroke-linecap:round;stroke-linejoin:round;stroke-opacity:1" id="g3652" transform="translate(-6280.0203,-23339.573)"><path id="path3654" d="m 6850,26520 0,-600 230,0 60,30 30,30 30,60 0,80 -30,60 -30,30 -60,30 -230,0"/><path id="path3656" d="m 7370,25920 200,600 200,-600"/><path id="path3658" d="m 8280,26520 -350,0"/><path id="path3660" d="m 8110,26520 0,-600 -60,90 -60,50 -60,30"/></g><g style="fill:#840000;fill-opacity:0;stroke:#840000;stroke-width:100;stroke-linecap:round;stroke-linejoin:round;stroke-opacity:1" id="g3662" transform="translate(-6280.0203,-23339.573)"><polyline id="polyline3664" fill="none;" points="8750 26250 8450 25710 6480 25710 6480 26250 6480 26790 8450 26790 8750 26250"/></g><g style="fill:#840000;fill-opacity:0;stroke:#840000;stroke-width:60;stroke-linecap:round;stroke-linejoin:round;stroke-opacity:1" id="g3666" transform="translate(-6280.0203,-23339.573)"><path id="path3668" d="m 13600,26460 -30,30 -90,30 -60,0 -80,-30 -60,-50 -30,-60 -30,-120 0,-80 30,-120 30,-50 60,-60 80,-30 60,0 90,30 30,30"/><path id="path3670" d="m 13850,26520 0,-600"/><path id="path3672" d="m 13850,26210 350,0"/><path id="path3674" d="m 14200,26520 0,-600"/><path id="path3676" d="m 14430,25920 370,0 -200,230 80,0 60,30 30,30 30,50 0,150 -30,50 -30,30 -60,30 -170,0 -60,-30 -20,-30"/></g><g style="fill:#840000;fill-opacity:0;stroke:#840000;stroke-width:100;stroke-linecap:round;stroke-linejoin:round;stroke-opacity:1" id="g3678" transform="translate(-6280.0203,-23339.573)"><polyline id="polyline3680" fill="none;" points="12750 26250 13050 26790 15140 26790 15140 26250 15140 25710 13050 25710 12750 26250"/></g><g style="fill:#840000;fill-opacity:0;stroke:#840000;stroke-width:60;stroke-linecap:round;stroke-linejoin:round;stroke-opacity:1" id="g3682" transform="translate(-6280.0203,-23339.573)"><path id="path3684" d="m 7020,27700 -60,-30 -90,0 -80,30 -60,60 -30,50 -30,120 0,80 30,120 30,60 60,50 80,30 60,0 90,-30 30,-30 0,-200 -120,0"/><path id="path3686" d="m 7300,28270 0,-600 350,600 0,-600"/><path id="path3688" d="m 7930,28270 0,-600 150,0 80,30 60,60 30,50 30,120 0,80 -30,120 -30,60 -60,50 -80,30 -150,0"/></g><g style="fill:#840000;fill-opacity:0;stroke:#840000;stroke-width:100;stroke-linecap:round;stroke-linejoin:round;stroke-opacity:1" id="g3690" transform="translate(-6280.0203,-23339.573)"><polyline id="polyline3692" fill="none;" points="8750 28000 8450 27460 6330 27460 6330 28000 6330 28540 8450 28540 8750 28000"/></g><g style="fill:#840000;fill-opacity:0;stroke:#840000;stroke-width:60;stroke-linecap:round;stroke-linejoin:round;stroke-opacity:1" id="g3696" transform="translate(-6280.0203,-23339.573)"><polyline id="polyline3698" fill="none;" points="9750 27500 9750 28500"/></g><g style="fill:#840000;fill-opacity:1;stroke:#840000;stroke-width:60;stroke-linecap:round;stroke-linejoin:round;stroke-opacity:1" id="g3700" transform="translate(-6280.0203,-23339.573)"><polyline style="fill-rule:evenodd" id="polyline3702" points="10750 27500 9750 28000 10750 28500"/></g><g style="fill:#840000;fill-opacity:0;stroke:#840000;stroke-width:60;stroke-linecap:round;stroke-linejoin:round;stroke-opacity:1" id="g3704" transform="translate(-6280.0203,-23339.573)"><path id="path3706" d="m 9750,28000 -1000,0"/><path id="path3708" d="m 10750,28000 1000,0"/></g><g style="fill:#0000c2;fill-opacity:0;stroke:#0000c2;stroke-width:60;stroke-linecap:round;stroke-linejoin:round;stroke-opacity:1" id="g3710" transform="translate(-6280.0203,-23339.573)"><path id="path3712" d="m 9140,23970 0,-600 150,0 80,30 60,60 30,50 30,120 0,80 -30,120 -30,60 -60,50 -80,30 -150,0"/><path id="path3714" d="m 9740,23970 0,-400"/><path id="path3716" d="m 9740,23370 -30,30 30,30 30,-30 -30,-30 0,60"/><path id="path3718" d="m 10120,23970 -60,-30 -30,-30 -30,-50 0,-170 30,-60 30,-30 60,-30 80,0 60,30 30,30 30,60 0,170 -30,50 -30,30 -60,30 -80,0"/><path id="path3720" d="m 10830,23970 0,-600"/><path id="path3722" d="m 10830,23940 -60,30 -110,0 -60,-30 -30,-30 -30,-50 0,-170 30,-60 30,-30 60,-30 110,0 60,30"/><path id="path3724" d="m 11340,23940 -60,30 -110,0 -60,-30 -30,-50 0,-230 30,-60 60,-30 110,0 60,30 30,60 0,50 -290,60"/><path id="path3726" d="m 12080,23970 0,-600"/><path id="path3728" d="m 12290,23370 200,600 200,-600"/></g><g style="fill:#008400;fill-opacity:0;stroke:#008400;stroke-width:60;stroke-linecap:round;stroke-linejoin:round;stroke-opacity:1" id="g3730" transform="translate(-6280.0203,-23339.573)"><path id="path3732" d="m 11750,28000 1000,0"/></g><g style="fill:#840000;fill-opacity:0;stroke:#840000;stroke-width:100;stroke-linecap:round;stroke-linejoin:round;stroke-opacity:1" id="g3738" transform="translate(-6280.0203,-23339.573)"><rect id="rect3740" width="2000" height="800" x="9750" y="25850" rx="0"/></g><g style="fill:#840000;fill-opacity:0;stroke:#840000;stroke-width:60;stroke-linecap:round;stroke-linejoin:round;stroke-opacity:1" id="g3742" transform="translate(-6280.0203,-23339.573)"><path id="path3744" d="m 11750,26250 500,0"/><path id="path3746" d="m 9750,26250 -500,0"/></g><g style="fill:#008484;fill-opacity:0;stroke:#008484;stroke-width:60;stroke-linecap:round;stroke-linejoin:round;stroke-opacity:1" id="g3748" transform="translate(-6280.0203,-23339.573)"><path id="path3750" d="m 10640,26450 -280,0"/><path id="path3752" d="m 10500,26450 0,-500 -50,70 -50,50 -40,20"/><path id="path3754" d="m 10860,26450 0,-500"/><path id="path3756" d="m 11140,26450 -210,-290"/><path id="path3758" d="m 11140,25950 -280,280"/></g><g style="fill:#008400;fill-opacity:0;stroke:#008400;stroke-width:60;stroke-linecap:round;stroke-linejoin:round;stroke-opacity:1" id="g3760" transform="translate(-6280.0203,-23339.573)"><path id="path3762" d="m 8750,26250 500,0"/><path id="path3764" d="m 12250,26250 500,0"/><path id="path3766" d="m 12750,26250 0,1750"/></g></svg>