<svg xmlns="http://www.w3.org/2000/svg" xmlns:svg="http://www.w3.org/2000/svg" id="svg2" width="86.116" height="122.994" version="1.1" viewBox="0 0 8970.424 12811.851"><metadata id="metadata1078"/><title id="title4">SVG Picture created as diodes.sch.svg date 2016/06/16 13:12:25</title><desc id="desc6">Picture generated by Eeschema-SVG</desc><path style="fill:#840000;fill-opacity:0;stroke:#840000;stroke-width:60;stroke-linecap:round;stroke-linejoin:round;stroke-opacity:1" id="path464" d="m 1000.4069,3330.4273 140,600 110,-430 120,430 140,-600"/><path style="fill:#840000;fill-opacity:0;stroke:#840000;stroke-width:60;stroke-linecap:round;stroke-linejoin:round;stroke-opacity:1" id="path466" d="m 2060.4069,3930.4273 -350,0"/><path style="fill:#840000;fill-opacity:0;stroke:#840000;stroke-width:60;stroke-linecap:round;stroke-linejoin:round;stroke-opacity:1" id="path468" d="m 1890.4069,3930.4273 0,-600 -60,90 -60,50 -60,30"/><polyline style="fill:#840000;fill-opacity:0;stroke:#840000;stroke-width:100;stroke-linecap:round;stroke-linejoin:round;stroke-opacity:1" id="polyline472" points="22750 11750 22450 11210 20900 11210 20900 11750 20900 12290 22450 12290 22750 11750" transform="translate(-20219.593,-8089.5727)"/><path style="fill:#840000;fill-opacity:0;stroke:#840000;stroke-width:60;stroke-linecap:round;stroke-linejoin:round;stroke-opacity:1" id="path476" d="m 7380.4069,3870.4273 -30,30 -90,30 -60,0 -80,-30 -60,-50 -30,-60 -30,-120 0,-80 30,-120 30,-50 60,-60 80,-30 60,0 90,30 30,30"/><path style="fill:#840000;fill-opacity:0;stroke:#840000;stroke-width:60;stroke-linecap:round;stroke-linejoin:round;stroke-opacity:1" id="path478" d="m 7630.4069,3930.4273 0,-600"/><path style="fill:#840000;fill-opacity:0;stroke:#840000;stroke-width:60;stroke-linecap:round;stroke-linejoin:round;stroke-opacity:1" id="path480" d="m 7630.4069,3620.4273 350,0"/><path style="fill:#840000;fill-opacity:0;stroke:#840000;stroke-width:60;stroke-linecap:round;stroke-linejoin:round;stroke-opacity:1" id="path482" d="m 7980.4069,3930.4273 0,-600"/><path style="fill:#840000;fill-opacity:0;stroke:#840000;stroke-width:60;stroke-linecap:round;stroke-linejoin:round;stroke-opacity:1" id="path484" d="m 8580.4069,3930.4273 -350,0"/><path style="fill:#840000;fill-opacity:0;stroke:#840000;stroke-width:60;stroke-linecap:round;stroke-linejoin:round;stroke-opacity:1" id="path486" d="m 8410.4069,3930.4273 0,-600 -60,90 -60,50 -60,30"/><polyline style="fill:#840000;fill-opacity:0;stroke:#840000;stroke-width:100;stroke-linecap:round;stroke-linejoin:round;stroke-opacity:1" id="polyline490" points="26750 11750 27050 12290 29140 12290 29140 11750 29140 11210 27050 11210 26750 11750" transform="translate(-20219.593,-8089.5727)"/><path style="fill:#840000;fill-opacity:0;stroke:#840000;stroke-width:60;stroke-linecap:round;stroke-linejoin:round;stroke-opacity:1" id="path494" d="m 7380.4069,5620.4273 -30,30 -90,30 -60,0 -80,-30 -60,-50 -30,-60 -30,-120 0,-80 30,-120 30,-50 60,-60 80,-30 60,0 90,30 30,30"/><path style="fill:#840000;fill-opacity:0;stroke:#840000;stroke-width:60;stroke-linecap:round;stroke-linejoin:round;stroke-opacity:1" id="path496" d="m 7630.4069,5680.4273 0,-600"/><path style="fill:#840000;fill-opacity:0;stroke:#840000;stroke-width:60;stroke-linecap:round;stroke-linejoin:round;stroke-opacity:1" id="path498" d="m 7630.4069,5370.4273 350,0"/><path style="fill:#840000;fill-opacity:0;stroke:#840000;stroke-width:60;stroke-linecap:round;stroke-linejoin:round;stroke-opacity:1" id="path500" d="m 7980.4069,5680.4273 0,-600"/><path style="fill:#840000;fill-opacity:0;stroke:#840000;stroke-width:60;stroke-linecap:round;stroke-linejoin:round;stroke-opacity:1" id="path502" d="m 8230.4069,5140.4273 30,-30 60,-30 140,0 60,30 30,30 30,60 0,50 -30,90 -340,340 370,0"/><polyline style="fill:#840000;fill-opacity:0;stroke:#840000;stroke-width:100;stroke-linecap:round;stroke-linejoin:round;stroke-opacity:1" id="polyline506" points="26750 13500 27050 14040 29140 14040 29140 13500 29140 12960 27050 12960 26750 13500" transform="translate(-20219.593,-8089.5727)"/><polyline style="fill:#840000;fill-opacity:0;stroke:#840000;stroke-width:60;stroke-linecap:round;stroke-linejoin:round;stroke-opacity:1" id="polyline512" points="25250 17000 25250 16000" transform="translate(-20219.593,-8089.5727)"/><polyline id="polyline516" points="24250 17000 25250 16500 24250 16000" transform="translate(-20219.593,-8089.5727)" style="fill:#840000;fill-opacity:1;fill-rule:evenodd;stroke:#840000;stroke-width:60;stroke-linecap:round;stroke-linejoin:round;stroke-opacity:1"/><path style="fill:#840000;fill-opacity:0;stroke:#840000;stroke-width:60;stroke-linecap:round;stroke-linejoin:round;stroke-opacity:1" id="path520" d="m 5030.4069,8410.4273 1000,0"/><path style="fill:#840000;fill-opacity:0;stroke:#840000;stroke-width:60;stroke-linecap:round;stroke-linejoin:round;stroke-opacity:1" id="path522" d="m 4030.4069,8410.4273 -1000,0"/><rect style="fill:#840000;fill-opacity:0;stroke:#840000;stroke-width:100;stroke-linecap:round;stroke-linejoin:round;stroke-opacity:1" id="rect528" width="2000" height="800" x="3530.407" y="9760.428" rx="0"/><path style="fill:#840000;fill-opacity:0;stroke:#840000;stroke-width:60;stroke-linecap:round;stroke-linejoin:round;stroke-opacity:1" id="path532" d="m 5530.4069,10160.427 500,0"/><path style="fill:#840000;fill-opacity:0;stroke:#840000;stroke-width:60;stroke-linecap:round;stroke-linejoin:round;stroke-opacity:1" id="path534" d="m 3530.4069,10160.427 -500,0"/><path style="fill:#008484;fill-opacity:0;stroke:#008484;stroke-width:60;stroke-linecap:round;stroke-linejoin:round;stroke-opacity:1" id="path538" d="m 4180.4069,10360.427 -280,0"/><path style="fill:#008484;fill-opacity:0;stroke:#008484;stroke-width:60;stroke-linecap:round;stroke-linejoin:round;stroke-opacity:1" id="path540" d="m 4040.4069,10360.427 0,-499.9997 -50,70 -50,50 -40,19.9997"/><path style="fill:#008484;fill-opacity:0;stroke:#008484;stroke-width:60;stroke-linecap:round;stroke-linejoin:round;stroke-opacity:1" id="path542" d="m 4490.4069,9860.4273 50,0 50,20 20,20 30,50 20,99.9997 0,120 -20,90 -30,50 -20,20 -50,30 -50,0 -40,-30 -30,-20 -20,-50 -20,-90 0,-120 20,-99.9997 20,-50 30,-20 40,-20"/><path style="fill:#008484;fill-opacity:0;stroke:#008484;stroke-width:60;stroke-linecap:round;stroke-linejoin:round;stroke-opacity:1" id="path544" d="m 4880.4069,10360.427 0,-499.9997"/><path style="fill:#008484;fill-opacity:0;stroke:#008484;stroke-width:60;stroke-linecap:round;stroke-linejoin:round;stroke-opacity:1" id="path546" d="m 5160.4069,10360.427 -210,-290"/><path style="fill:#008484;fill-opacity:0;stroke:#008484;stroke-width:60;stroke-linecap:round;stroke-linejoin:round;stroke-opacity:1" id="path548" d="m 5160.4069,9860.4273 -280,279.9997"/><polyline style="fill:#840000;fill-opacity:0;stroke:#840000;stroke-width:200;stroke-linecap:round;stroke-linejoin:round;stroke-opacity:1" id="polyline556" points="24450 19200 24450 20800" transform="translate(-20219.593,-8089.5727)"/><polyline style="fill:#840000;fill-opacity:0;stroke:#840000;stroke-width:200;stroke-linecap:round;stroke-linejoin:round;stroke-opacity:1" id="polyline558" points="25050 19200 25050 20800" transform="translate(-20219.593,-8089.5727)"/><path style="fill:#840000;fill-opacity:0;stroke:#840000;stroke-width:60;stroke-linecap:round;stroke-linejoin:round;stroke-opacity:1" id="path562" d="m 4930.4069,11910.427 1100,0"/><path style="fill:#840000;fill-opacity:0;stroke:#840000;stroke-width:60;stroke-linecap:round;stroke-linejoin:round;stroke-opacity:1" id="path564" d="m 4130.4069,11910.427 -1100,0"/><path style="fill:#008484;fill-opacity:0;stroke:#008484;stroke-width:60;stroke-linecap:round;stroke-linejoin:round;stroke-opacity:1" id="path568" d="m 5410.4069,12610.427 -280,0"/><path style="fill:#008484;fill-opacity:0;stroke:#008484;stroke-width:60;stroke-linecap:round;stroke-linejoin:round;stroke-opacity:1" id="path570" d="m 5270.4069,12610.427 0,-500 -50,70 -50,50 -40,20"/><path style="fill:#008484;fill-opacity:0;stroke:#008484;stroke-width:60;stroke-linecap:round;stroke-linejoin:round;stroke-opacity:1" id="path572" d="m 5840.4069,12270.427 0,340"/><path style="fill:#008484;fill-opacity:0;stroke:#008484;stroke-width:60;stroke-linecap:round;stroke-linejoin:round;stroke-opacity:1" id="path574" d="m 5630.4069,12270.427 0,260 20,50 50,30 70,0 50,-30 20,-20"/><path style="fill:#008484;fill-opacity:0;stroke:#008484;stroke-width:60;stroke-linecap:round;stroke-linejoin:round;stroke-opacity:1" id="path576" d="m 6250.4069,12340.427 -170,0"/><path style="fill:#008484;fill-opacity:0;stroke:#008484;stroke-width:60;stroke-linecap:round;stroke-linejoin:round;stroke-opacity:1" id="path578" d="m 6080.4069,12610.427 0,-500 240,0"/><path style="fill:#840000;fill-opacity:0;stroke:#840000;stroke-width:60;stroke-linecap:round;stroke-linejoin:round;stroke-opacity:1" id="path582" d="m 1050.4069,9860.4273 -59.99997,-30 -90,0 -80,30 -60,60 -30,50 -30,119.9997 0,80 30,120 30,60 60,50 80,30 60,0 89.99997,-30 30,-30 0,-200 -119.99997,0"/><path style="fill:#840000;fill-opacity:0;stroke:#840000;stroke-width:60;stroke-linecap:round;stroke-linejoin:round;stroke-opacity:1" id="path584" d="m 1330.4069,10430.427 0,-599.9997 350,599.9997 0,-599.9997"/><path style="fill:#840000;fill-opacity:0;stroke:#840000;stroke-width:60;stroke-linecap:round;stroke-linejoin:round;stroke-opacity:1" id="path586" d="m 1960.4069,10430.427 0,-599.9997 150,0 80,30 60,60 30,50 30,119.9997 0,80 -30,120 -30,60 -60,50 -80,30 -150,0"/><polyline style="fill:#840000;fill-opacity:0;stroke:#840000;stroke-width:100;stroke-linecap:round;stroke-linejoin:round;stroke-opacity:1" id="polyline590" points="23000 18250 22700 17710 20580 17710 20580 18250 20580 18790 22700 18790 23000 18250" transform="translate(-20219.593,-8089.5727)"/><path style="fill:#840000;fill-opacity:0;stroke:#840000;stroke-width:60;stroke-linecap:round;stroke-linejoin:round;stroke-opacity:1" id="path594" d="m 1050.4069,11610.427 -59.99997,-30 -90,0 -80,30 -60,60 -30,50 -30,120 0,80 30,120 30,60 60,50 80,30 60,0 89.99997,-30 30,-30 0,-200 -119.99997,0"/><path style="fill:#840000;fill-opacity:0;stroke:#840000;stroke-width:60;stroke-linecap:round;stroke-linejoin:round;stroke-opacity:1" id="path596" d="m 1330.4069,12180.427 0,-600 350,600 0,-600"/><path style="fill:#840000;fill-opacity:0;stroke:#840000;stroke-width:60;stroke-linecap:round;stroke-linejoin:round;stroke-opacity:1" id="path598" d="m 1960.4069,12180.427 0,-600 150,0 80,30 60,60 30,50 30,120 0,80 -30,120 -30,60 -60,50 -80,30 -150,0"/><polyline style="fill:#840000;fill-opacity:0;stroke:#840000;stroke-width:100;stroke-linecap:round;stroke-linejoin:round;stroke-opacity:1" id="polyline602" points="23000 20000 22700 19460 20580 19460 20580 20000 20580 20540 22700 20540 23000 20000" transform="translate(-20219.593,-8089.5727)"/><path style="fill:#0000c2;fill-opacity:0;stroke:#0000c2;stroke-width:60;stroke-linecap:round;stroke-linejoin:round;stroke-opacity:1" id="path608" d="m 2870.4069,320.42727 -200,0"/><path style="fill:#0000c2;fill-opacity:0;stroke:#0000c2;stroke-width:60;stroke-linecap:round;stroke-linejoin:round;stroke-opacity:1" id="path610" d="m 2670.4069,630.42727 0,-599.999995 290,0"/><path style="fill:#0000c2;fill-opacity:0;stroke:#0000c2;stroke-width:60;stroke-linecap:round;stroke-linejoin:round;stroke-opacity:1" id="path612" d="m 3440.4069,230.42727 0,400"/><path style="fill:#0000c2;fill-opacity:0;stroke:#0000c2;stroke-width:60;stroke-linecap:round;stroke-linejoin:round;stroke-opacity:1" id="path614" d="m 3180.4069,230.42727 0,320 30,50 60,30 80,0 60,-30 30,-30"/><path style="fill:#0000c2;fill-opacity:0;stroke:#0000c2;stroke-width:60;stroke-linecap:round;stroke-linejoin:round;stroke-opacity:1" id="path616" d="m 3810.4069,630.42727 -60,-30 -30,-50 0,-519.999995"/><path style="fill:#0000c2;fill-opacity:0;stroke:#0000c2;stroke-width:60;stroke-linecap:round;stroke-linejoin:round;stroke-opacity:1" id="path618" d="m 4120.4069,630.42727 -60,-30 -30,-50 0,-519.999995"/><path style="fill:#0000c2;fill-opacity:0;stroke:#0000c2;stroke-width:60;stroke-linecap:round;stroke-linejoin:round;stroke-opacity:1" id="path620" d="m 4290.4069,230.42727 110,400 110,-280 120,280 110,-400"/><path style="fill:#0000c2;fill-opacity:0;stroke:#0000c2;stroke-width:60;stroke-linecap:round;stroke-linejoin:round;stroke-opacity:1" id="path622" d="m 5230.4069,630.42727 0,-310 -30,-60 -60,-30 -110,0 -60,30"/><path style="fill:#0000c2;fill-opacity:0;stroke:#0000c2;stroke-width:60;stroke-linecap:round;stroke-linejoin:round;stroke-opacity:1" id="path624" d="m 5230.4069,600.42727 -60,30 -140,0 -60,-30 -30,-50 0,-60 30,-60 60,-30 140,0 60,-30"/><path style="fill:#0000c2;fill-opacity:0;stroke:#0000c2;stroke-width:60;stroke-linecap:round;stroke-linejoin:round;stroke-opacity:1" id="path626" d="m 5460.4069,230.42727 140,400 140,-400"/><path style="fill:#0000c2;fill-opacity:0;stroke:#0000c2;stroke-width:60;stroke-linecap:round;stroke-linejoin:round;stroke-opacity:1" id="path628" d="m 6200.4069,600.42727 -60,30 -110,0 -60,-30 -30,-50 0,-230 30,-60 60,-30 110,0 60,30 30,60 0,50 -290,60"/><path style="fill:#840000;fill-opacity:0;stroke:#840000;stroke-width:60;stroke-linecap:round;stroke-linejoin:round;stroke-opacity:1" id="path632" d="m 1000.4069,5080.4273 140,600 110,-430 120,430 140,-600"/><polyline style="fill:#840000;fill-opacity:0;stroke:#840000;stroke-width:100;stroke-linecap:round;stroke-linejoin:round;stroke-opacity:1" id="polyline640" points="22750 13500 22450 12960 20900 12960 20900 13500 20900 14040 22450 14040 22750 13500" transform="translate(-20219.593,-8089.5727)"/><path style="fill:#840000;fill-opacity:0;stroke:#840000;stroke-width:60;stroke-linecap:round;stroke-linejoin:round;stroke-opacity:1" id="path644" d="m 7380.4069,8120.4273 -30,30 -90,30 -60,0 -80,-30 -60,-50 -30,-60 -30,-120 0,-80 30,-120 30,-50 60,-60 80,-30 60,0 90,30 30,30"/><path style="fill:#840000;fill-opacity:0;stroke:#840000;stroke-width:60;stroke-linecap:round;stroke-linejoin:round;stroke-opacity:1" id="path646" d="m 7630.4069,8180.4273 0,-600"/><path style="fill:#840000;fill-opacity:0;stroke:#840000;stroke-width:60;stroke-linecap:round;stroke-linejoin:round;stroke-opacity:1" id="path648" d="m 7630.4069,7870.4273 350,0"/><path style="fill:#840000;fill-opacity:0;stroke:#840000;stroke-width:60;stroke-linecap:round;stroke-linejoin:round;stroke-opacity:1" id="path650" d="m 7980.4069,8180.4273 0,-600"/><path style="fill:#840000;fill-opacity:0;stroke:#840000;stroke-width:60;stroke-linecap:round;stroke-linejoin:round;stroke-opacity:1" id="path652" d="m 8210.4069,7580.4273 370,0 -200,230 80,0 60,30 30,30 30,50 0,150 -30,50 -30,30 -60,30 -170,0 -60,-30 -20,-30"/><polyline style="fill:#840000;fill-opacity:0;stroke:#840000;stroke-width:100;stroke-linecap:round;stroke-linejoin:round;stroke-opacity:1" id="polyline656" points="26750 16000 27050 16540 29140 16540 29140 16000 29140 15460 27050 15460 26750 16000" transform="translate(-20219.593,-8089.5727)"/><polyline style="fill:#840000;fill-opacity:0;stroke:#840000;stroke-width:60;stroke-linecap:round;stroke-linejoin:round;stroke-opacity:1" id="polyline662" points="25250 15750 25250 14750" transform="translate(-20219.593,-8089.5727)"/><polyline id="polyline666" points="24250 15750 25250 15250 24250 14750" transform="translate(-20219.593,-8089.5727)" style="fill:#840000;fill-opacity:1;fill-rule:evenodd;stroke:#840000;stroke-width:60;stroke-linecap:round;stroke-linejoin:round;stroke-opacity:1"/><path style="fill:#840000;fill-opacity:0;stroke:#840000;stroke-width:60;stroke-linecap:round;stroke-linejoin:round;stroke-opacity:1" id="path670" d="m 5030.4069,7160.4273 1000,0"/><path style="fill:#840000;fill-opacity:0;stroke:#840000;stroke-width:60;stroke-linecap:round;stroke-linejoin:round;stroke-opacity:1" id="path672" d="m 4030.4069,7160.4273 -1000,0"/><path style="fill:#008400;fill-opacity:0;stroke:#008400;stroke-width:60;stroke-linecap:round;stroke-linejoin:round;stroke-opacity:1" id="path770" d="m 6530.4069,3660.4273 -4000,0"/><path style="fill:#008400;fill-opacity:0;stroke:#008400;stroke-width:60;stroke-linecap:round;stroke-linejoin:round;stroke-opacity:1" id="path772" d="m 2530.4069,5410.4273 4000,0"/><path style="fill:#008400;fill-opacity:0;stroke:#008400;stroke-width:60;stroke-linecap:round;stroke-linejoin:round;stroke-opacity:1" id="path774" d="m 3030.4069,10160.427 -250,0"/><circle style="fill:#008400;fill-opacity:1;stroke:#008400;stroke-width:100;stroke-linecap:round;stroke-linejoin:round;stroke-opacity:1" id="circle780" cx="6030.407" cy="10160.428" r="200"/><path style="fill:#008400;fill-opacity:0;stroke:#008400;stroke-width:60;stroke-linecap:round;stroke-linejoin:round;stroke-opacity:1" id="path786" d="m 3030.4069,11910.427 -250,0"/><path style="fill:#008400;fill-opacity:0;stroke:#008400;stroke-width:60;stroke-linecap:round;stroke-linejoin:round;stroke-opacity:1" id="path788" d="m 6030.4069,10160.427 0,1750"/><path style="fill:#0000c2;fill-opacity:0;stroke:#0000c2;stroke-width:60;stroke-linecap:round;stroke-linejoin:round;stroke-dasharray:136.85,158.425;stroke-opacity:1" id="path794" d="m 6030.4069,8410.4273 0,1749.9997"/><path style="fill:#008400;fill-opacity:0;stroke:#008400;stroke-width:60;stroke-linecap:round;stroke-linejoin:round;stroke-opacity:1" id="path800" d="m 3030.4069,3660.4273 0,-1250"/><path style="fill:#008400;fill-opacity:0;stroke:#008400;stroke-width:60;stroke-linecap:round;stroke-linejoin:round;stroke-opacity:1" id="path802" d="m 3030.4069,2410.4273 -2999.99997,0"/><path style="fill:#008400;fill-opacity:0;stroke:#008400;stroke-width:60;stroke-linecap:round;stroke-linejoin:round;stroke-opacity:1" id="path804" d="m 30.40693,2410.4273 0,6000"/><path style="fill:#008400;fill-opacity:0;stroke:#008400;stroke-width:60;stroke-linecap:round;stroke-linejoin:round;stroke-opacity:1" id="path806" d="m 30.40693,8410.4273 2999.99997,0"/><circle style="fill:#008400;fill-opacity:1;stroke:#008400;stroke-width:100;stroke-linecap:round;stroke-linejoin:round;stroke-opacity:1" id="circle812" cx="3030.407" cy="3660.427" r="200"/><path style="fill:#008400;fill-opacity:0;stroke:#008400;stroke-width:60;stroke-linecap:round;stroke-linejoin:round;stroke-opacity:1" id="path818" d="m 3030.4069,7160.4273 0,-1750"/><circle style="fill:#008400;fill-opacity:1;stroke:#008400;stroke-width:100;stroke-linecap:round;stroke-linejoin:round;stroke-opacity:1" id="circle824" cx="3030.407" cy="5410.427" r="200"/><path style="fill:#008400;fill-opacity:0;stroke:#008400;stroke-width:60;stroke-linecap:round;stroke-linejoin:round;stroke-opacity:1" id="path830" d="m 6530.4069,7910.4273 -500,0"/><path style="fill:#008400;fill-opacity:0;stroke:#008400;stroke-width:60;stroke-linecap:round;stroke-linejoin:round;stroke-opacity:1" id="path832" d="m 6030.4069,7160.4273 0,1250"/><circle style="fill:#008400;fill-opacity:1;stroke:#008400;stroke-width:100;stroke-linecap:round;stroke-linejoin:round;stroke-opacity:1" id="circle838" cx="6030.407" cy="7910.427" r="200"/><path style="fill:#840000;fill-opacity:0;stroke:#840000;stroke-width:59.99998856;stroke-linecap:round;stroke-linejoin:round;stroke-opacity:1" id="path502-3" d="m 1713.9201,5142.2994 30,-30 60,-30 139.9999,0 60,30 30,30 30,60 0,50 -30,90 -339.9999,339.9999 369.9999,0"/></svg>