<svg xmlns="http://www.w3.org/2000/svg" xmlns:svg="http://www.w3.org/2000/svg" id="svg2" width="121.888" height="94.16" version="1.1" viewBox="0 0 12696.645 9808.345"><metadata id="metadata776"/><title id="title4">SVG Picture created as halfwave.sch.svg date 2016/06/11 19:53:58</title><desc id="desc6">Picture generated by Eeschema-SVG</desc><g style="fill:#840000;fill-opacity:0;stroke:#840000;stroke-width:60;stroke-linecap:round;stroke-linejoin:round;stroke-opacity:1" id="g584" transform="translate(-23439.478,-20131.569)"><path id="path586" d="m 102760,75400 0,2560"/><path id="path588" d="m 26220,21920 140,600 110,-430 120,430 140,-600"/><path id="path590" d="m 27280,22520 -350,0"/><path id="path592" d="m 27110,22520 0,-600 -60,90 -60,50 -60,30"/></g><g style="fill:#840000;fill-opacity:0;stroke:#840000;stroke-width:100;stroke-linecap:round;stroke-linejoin:round;stroke-opacity:1" id="g594" transform="translate(-23439.478,-20131.569)"><polyline id="polyline596" fill="none;" points="27750 22250 27450 21710 25900 21710 25900 22250 25900 22790 27450 22790 27750 22250"/></g><g style="fill:#840000;fill-opacity:0;stroke:#840000;stroke-width:60;stroke-linecap:round;stroke-linejoin:round;stroke-opacity:1" id="g598" transform="translate(-23439.478,-20131.569)"><path id="path600" d="m 32600,22460 -30,30 -90,30 -60,0 -80,-30 -60,-50 -30,-60 -30,-120 0,-80 30,-120 30,-50 60,-60 80,-30 60,0 90,30 30,30"/><path id="path602" d="m 32850,22520 0,-600"/><path id="path604" d="m 32850,22210 350,0"/><path id="path606" d="m 33200,22520 0,-600"/><path id="path608" d="m 33800,22520 -350,0"/><path id="path610" d="m 33630,22520 0,-600 -60,90 -60,50 -60,30"/></g><g style="fill:#840000;fill-opacity:0;stroke:#840000;stroke-width:100;stroke-linecap:round;stroke-linejoin:round;stroke-opacity:1" id="g612" transform="translate(-23439.478,-20131.569)"><polyline id="polyline614" fill="none;" points="31750 22250 32050 22790 34140 22790 34140 22250 34140 21710 32050 21710 31750 22250"/></g><g style="fill:#840000;fill-opacity:0;stroke:#840000;stroke-width:60;stroke-linecap:round;stroke-linejoin:round;stroke-opacity:1" id="g616" transform="translate(-23439.478,-20131.569)"><path id="path618" d="m 32600,24210 -30,30 -90,30 -60,0 -80,-30 -60,-50 -30,-60 -30,-120 0,-80 30,-120 30,-50 60,-60 80,-30 60,0 90,30 30,30"/><path id="path620" d="m 32850,24270 0,-600"/><path id="path622" d="m 32850,23960 350,0"/><path id="path624" d="m 33200,24270 0,-600"/><path id="path626" d="m 33450,23730 30,-30 60,-30 140,0 60,30 30,30 30,60 0,50 -30,90 -340,340 370,0"/></g><g style="fill:#840000;fill-opacity:0;stroke:#840000;stroke-width:100;stroke-linecap:round;stroke-linejoin:round;stroke-opacity:1" id="g628" transform="translate(-23439.478,-20131.569)"><polyline id="polyline630" fill="none;" points="31750 24000 32050 24540 34140 24540 34140 24000 34140 23460 32050 23460 31750 24000"/></g><g style="fill:#840000;fill-opacity:0;stroke:#840000;stroke-width:60;stroke-linecap:round;stroke-linejoin:round;stroke-opacity:1" id="g634" transform="translate(-23439.478,-20131.569)"><polyline id="polyline636" fill="none;" points="29750 24500 29750 23500"/></g><g style="fill:#840000;fill-opacity:1;stroke:#840000;stroke-width:60;stroke-linecap:round;stroke-linejoin:round;stroke-opacity:1" id="g638" transform="translate(-23439.478,-20131.569)"><polyline style="fill-rule:evenodd" id="polyline640" points="28750 24500 29750 24000 28750 23500"/></g><g style="fill:#840000;fill-opacity:0;stroke:#840000;stroke-width:60;stroke-linecap:round;stroke-linejoin:round;stroke-opacity:1" id="g642" transform="translate(-23439.478,-20131.569)"><path id="path644" d="m 29750,24000 1000,0"/><path id="path646" d="m 28750,24000 -1000,0"/></g><g style="fill:#840000;fill-opacity:0;stroke:#840000;stroke-width:100;stroke-linecap:round;stroke-linejoin:round;stroke-opacity:1" id="g650" transform="translate(-23439.478,-20131.569)"><rect id="rect652" width="2000" height="800" x="29000" y="25350" rx="0"/></g><g style="fill:#840000;fill-opacity:0;stroke:#840000;stroke-width:60;stroke-linecap:round;stroke-linejoin:round;stroke-opacity:1" id="g654" transform="translate(-23439.478,-20131.569)"><path id="path656" d="m 31000,25750 500,0"/><path id="path658" d="m 29000,25750 -500,0"/></g><g style="fill:#008484;fill-opacity:0;stroke:#008484;stroke-width:60;stroke-linecap:round;stroke-linejoin:round;stroke-opacity:1" id="g660" transform="translate(-23439.478,-20131.569)"><path id="path662" d="m 29650,25950 -280,0"/><path id="path664" d="m 29510,25950 0,-500 -50,70 -50,50 -40,20"/><path id="path666" d="m 29960,25450 50,0 50,20 20,20 30,50 20,100 0,120 -20,90 -30,50 -20,20 -50,30 -50,0 -40,-30 -30,-20 -20,-50 -20,-90 0,-120 20,-100 20,-50 30,-20 40,-20"/><path id="path668" d="m 30350,25950 0,-500"/><path id="path670" d="m 30630,25950 -210,-290"/><path id="path672" d="m 30630,25450 -280,280"/></g><g style="fill:#840000;fill-opacity:0;stroke:#840000;stroke-width:200;stroke-linecap:round;stroke-linejoin:round;stroke-opacity:1" id="g678" transform="translate(-23439.478,-20131.569)"><polyline id="polyline680" fill="none;" points="29700 26700 29700 28300"/><polyline id="polyline682" fill="none;" points="30300 26700 30300 28300"/></g><g style="fill:#840000;fill-opacity:0;stroke:#840000;stroke-width:60;stroke-linecap:round;stroke-linejoin:round;stroke-opacity:1" id="g684" transform="translate(-23439.478,-20131.569)"><path id="path686" d="m 30400,27500 1100,0"/><path id="path688" d="m 29600,27500 -1100,0"/></g><g style="fill:#008484;fill-opacity:0;stroke:#008484;stroke-width:60;stroke-linecap:round;stroke-linejoin:round;stroke-opacity:1" id="g690" transform="translate(-23439.478,-20131.569)"><path id="path692" d="m 30880,28200 -280,0"/><path id="path694" d="m 30740,28200 0,-500 -50,70 -50,50 -40,20"/><path id="path696" d="m 31310,27860 0,340"/><path id="path698" d="m 31100,27860 0,260 20,50 50,30 70,0 50,-30 20,-20"/><path id="path700" d="m 31720,27930 -170,0"/><path id="path702" d="m 31550,28200 0,-500 240,0"/></g><g style="fill:#840000;fill-opacity:0;stroke:#840000;stroke-width:60;stroke-linecap:round;stroke-linejoin:round;stroke-opacity:1" id="g704" transform="translate(-23439.478,-20131.569)"><path id="path706" d="m 26520,25450 -60,-30 -90,0 -80,30 -60,60 -30,50 -30,120 0,80 30,120 30,60 60,50 80,30 60,0 90,-30 30,-30 0,-200 -120,0"/><path id="path708" d="m 26800,26020 0,-600 350,600 0,-600"/><path id="path710" d="m 27430,26020 0,-600 150,0 80,30 60,60 30,50 30,120 0,80 -30,120 -30,60 -60,50 -80,30 -150,0"/></g><g style="fill:#840000;fill-opacity:0;stroke:#840000;stroke-width:100;stroke-linecap:round;stroke-linejoin:round;stroke-opacity:1" id="g712" transform="translate(-23439.478,-20131.569)"><polyline id="polyline714" fill="none;" points="28250 25750 27950 25210 25830 25210 25830 25750 25830 26290 27950 26290 28250 25750"/></g><g style="fill:#840000;fill-opacity:0;stroke:#840000;stroke-width:60;stroke-linecap:round;stroke-linejoin:round;stroke-opacity:1" id="g716" transform="translate(-23439.478,-20131.569)"><path id="path718" d="m 26520,27200 -60,-30 -90,0 -80,30 -60,60 -30,50 -30,120 0,80 30,120 30,60 60,50 80,30 60,0 90,-30 30,-30 0,-200 -120,0"/><path id="path720" d="m 26800,27770 0,-600 350,600 0,-600"/><path id="path722" d="m 27430,27770 0,-600 150,0 80,30 60,60 30,50 30,120 0,80 -30,120 -30,60 -60,50 -80,30 -150,0"/></g><g style="fill:#840000;fill-opacity:0;stroke:#840000;stroke-width:100;stroke-linecap:round;stroke-linejoin:round;stroke-opacity:1" id="g724" transform="translate(-23439.478,-20131.569)"><polyline id="polyline726" fill="none;" points="28250 27500 27950 26960 25830 26960 25830 27500 25830 28040 27950 28040 28250 27500"/></g><g style="fill:#008400;fill-opacity:0;stroke:#008400;stroke-width:60;stroke-linecap:round;stroke-linejoin:round;stroke-opacity:1" id="g730" transform="translate(-23439.478,-20131.569)"><path id="path732" d="m 31750,22250 -4000,0"/><path id="path734" d="m 27750,22250 0,1750"/><path id="path736" d="m 30750,24000 1000,0"/></g><g style="fill:#008400;fill-opacity:1;stroke:#008400;stroke-width:100;stroke-linecap:round;stroke-linejoin:round;stroke-opacity:1" id="g740" transform="translate(-23439.478,-20131.569)"><circle id="circle742" cx="31500" cy="24000" r="200"/></g><g style="fill:#008400;fill-opacity:0;stroke:#008400;stroke-width:60;stroke-linecap:round;stroke-linejoin:round;stroke-opacity:1" id="g746" transform="translate(-23439.478,-20131.569)"><path id="path748" d="m 28500,25750 -250,0"/></g><g style="fill:#008400;fill-opacity:1;stroke:#008400;stroke-width:100;stroke-linecap:round;stroke-linejoin:round;stroke-opacity:1" id="g752" transform="translate(-23439.478,-20131.569)"><circle id="circle754" cx="31500" cy="25750" r="200"/></g><g style="fill:#008400;fill-opacity:0;stroke:#008400;stroke-width:60;stroke-linecap:round;stroke-linejoin:round;stroke-opacity:1" id="g758" transform="translate(-23439.478,-20131.569)"><path id="path760" d="m 28500,27500 -250,0"/><path id="path762" d="m 31500,25750 0,1750"/></g><g style="fill:#0000c2;fill-opacity:0;stroke:#0000c2;stroke-width:60;stroke-linecap:round;stroke-linejoin:round;stroke-dasharray:136.85,158.425;stroke-opacity:1" id="g766" transform="translate(-23439.478,-20131.569)"><path id="path768" d="m 31500,24000 0,1750"/></g></svg>