<svg xmlns="http://www.w3.org/2000/svg" xmlns:svg="http://www.w3.org/2000/svg" id="svg2" width="229.537" height="116.623" version="1.1" viewBox="0 0 23910.102 12148.208"><metadata id="metadata420"/><title id="title4">SVG Picture created as filter.sch.svg date 2016/06/12 18:21:46</title><desc id="desc6">Picture generated by Eeschema-SVG</desc><g style="fill:#840000;fill-opacity:0;stroke:#840000;stroke-width:60;stroke-linecap:round;stroke-linejoin:round;stroke-opacity:1" id="g12" transform="translate(-4777.358,-14572.942)"><path id="path14" d="m 21170,18170 200,600 200,-600"/><path id="path16" d="m 21760,18540 460,0"/></g><g style="fill:#840000;fill-opacity:0;stroke:#840000;stroke-width:100;stroke-linecap:round;stroke-linejoin:round;stroke-opacity:1" id="g18" transform="translate(-4900.3905,-8593.565)"><polyline id="polyline20" fill="none;" points="20750 18500 21050 19040 22590 19040 22590 18500 22590 17960 21050 17960 20750 18500"/></g><g style="fill:#840000;fill-opacity:0;stroke:#840000;stroke-width:60;stroke-linecap:round;stroke-linejoin:round;stroke-opacity:1" id="g22" transform="translate(-4900.3905,-2589.5818)"><path id="path24" d="m 21170,12170 200,600 200,-600"/><path id="path26" d="m 21760,12540 460,0"/><path id="path28" d="m 21990,12770 0,-460"/></g><g style="fill:#840000;fill-opacity:0;stroke:#840000;stroke-width:100;stroke-linecap:round;stroke-linejoin:round;stroke-opacity:1" id="g30" transform="translate(-4900.3905,-8593.565)"><polyline id="polyline32" fill="none;" points="20750 12500 21050 13040 22590 13040 22590 12500 22590 11960 21050 11960 20750 12500"/></g><g style="fill:#840000;fill-opacity:0;stroke:#840000;stroke-width:100;stroke-linecap:round;stroke-linejoin:round;stroke-opacity:1" id="g36" transform="translate(-4900.3905,-8593.565)"><rect id="rect38" width="800" height="2000" x="12100" y="15000" rx="0"/></g><g style="fill:#840000;fill-opacity:0;stroke:#840000;stroke-width:60;stroke-linecap:round;stroke-linejoin:round;stroke-opacity:1" id="g40" transform="translate(-4900.3905,-8593.565)"><path id="path42" d="m 12500,15000 0,-500"/><path id="path44" d="m 12500,17000 0,500"/></g><g style="fill:#008484;fill-opacity:0;stroke:#008484;stroke-width:60;stroke-linecap:round;stroke-linejoin:round;stroke-opacity:1" id="g46" transform="translate(-4900.3905,-8593.565)"><path id="path48" d="m 12700,16110 0,280"/><path id="path50" d="m 12700,16250 -500,0 70,50 50,50 20,40"/><path id="path52" d="m 12700,15890 -500,0"/><path id="path54" d="m 12700,15610 -290,210"/><path id="path56" d="m 12200,15610 280,280"/></g><g style="fill:#840000;fill-opacity:0;stroke:#840000;stroke-width:60;stroke-linecap:round;stroke-linejoin:round;stroke-opacity:1" id="g58" transform="translate(-4900.3905,-8593.565)"><path id="path60" d="m 7470,14170 140,600 110,-430 120,430 140,-600"/><path id="path62" d="m 8530,14770 -350,0"/><path id="path64" d="m 8360,14770 0,-600 -60,90 -60,50 -60,30"/></g><g style="fill:#840000;fill-opacity:0;stroke:#840000;stroke-width:100;stroke-linecap:round;stroke-linejoin:round;stroke-opacity:1" id="g66" transform="translate(-4900.3905,-8593.565)"><polyline id="polyline68" fill="none;" points="9000 14500 8700 13960 7150 13960 7150 14500 7150 15040 8700 15040 9000 14500"/></g><g style="fill:#840000;fill-opacity:0;stroke:#840000;stroke-width:60;stroke-linecap:round;stroke-linejoin:round;stroke-opacity:1" id="g70" transform="translate(-4900.3905,-8593.565)"><path id="path72" d="m 7770,17200 -60,-30 -90,0 -80,30 -60,60 -30,50 -30,120 0,80 30,120 30,60 60,50 80,30 60,0 90,-30 30,-30 0,-200 -120,0"/><path id="path74" d="m 8050,17770 0,-600 350,600 0,-600"/><path id="path76" d="m 8680,17770 0,-600 150,0 80,30 60,60 30,50 30,120 0,80 -30,120 -30,60 -60,50 -80,30 -150,0"/></g><g style="fill:#840000;fill-opacity:0;stroke:#840000;stroke-width:100;stroke-linecap:round;stroke-linejoin:round;stroke-opacity:1" id="g78" transform="translate(-4900.3905,-8593.565)"><polyline id="polyline80" fill="none;" points="9500 17500 9200 16960 7080 16960 7080 17500 7080 18040 9200 18040 9500 17500"/></g><g style="fill:#840000;fill-opacity:0;stroke:#840000;stroke-width:60;stroke-linecap:round;stroke-linejoin:round;stroke-opacity:1" id="g82" transform="translate(-4900.3905,-8593.565)"><path id="path84" d="m 26600,15710 -30,30 -90,30 -60,0 -80,-30 -60,-50 -30,-60 -30,-120 0,-80 30,-120 30,-50 60,-60 80,-30 60,0 90,30 30,30"/><path id="path86" d="m 26850,15770 0,-600"/><path id="path88" d="m 26850,15460 350,0"/><path id="path90" d="m 27200,15770 0,-600"/><path id="path92" d="m 27450,15230 30,-30 60,-30 140,0 60,30 30,30 30,60 0,50 -30,90 -340,340 370,0"/></g><g style="fill:#840000;fill-opacity:0;stroke:#840000;stroke-width:100;stroke-linecap:round;stroke-linejoin:round;stroke-opacity:1" id="g94" transform="translate(-4900.3905,-8593.565)"><polyline id="polyline96" fill="none;" points="25750 15500 26050 16040 28140 16040 28140 15500 28140 14960 26050 14960 25750 15500"/></g><g style="fill:#840000;fill-opacity:0;stroke:#840000;stroke-width:100;stroke-linecap:round;stroke-linejoin:round;stroke-opacity:1" id="g100" transform="translate(-4900.3905,-8593.565)"><rect id="rect102" width="800" height="2000" x="16100" y="12000" rx="0"/></g><g style="fill:#840000;fill-opacity:0;stroke:#840000;stroke-width:60;stroke-linecap:round;stroke-linejoin:round;stroke-opacity:1" id="g104" transform="translate(-4900.3905,-8593.565)"><path id="path106" d="m 16500,12000 0,-500"/><path id="path108" d="m 16500,14000 0,500"/></g><g style="fill:#008484;fill-opacity:0;stroke:#008484;stroke-width:60;stroke-linecap:round;stroke-linejoin:round;stroke-opacity:1" id="g110" transform="translate(-4900.3905,-8593.565)"><path id="path112" d="m 16200,13540 0,90 20,50 20,20 80,50 90,20 190,0 50,-20 20,-20 30,-50 0,-100 -30,-40 -20,-30 -50,-20 -120,0 -50,20 -20,30 -20,40 0,100 20,50 20,20 50,20"/><path id="path114" d="m 16650,13270 20,-20 30,20 -30,20 -20,-20 50,0"/><path id="path116" d="m 16410,12960 -20,50 -30,20 -40,20 -30,0 -50,-20 -20,-20 -20,-50 0,-100 20,-40 20,-30 50,-20 30,0 40,20 30,30 20,40 0,100 20,50 30,20 50,20 90,0 50,-20 20,-20 30,-50 0,-100 -30,-40 -20,-30 -50,-20 -90,0 -50,20 -30,30 -20,40"/><path id="path118" d="m 16700,12550 -500,0 350,-170 -350,-160 500,0"/></g><g style="fill:#840000;fill-opacity:0;stroke:#840000;stroke-width:100;stroke-linecap:round;stroke-linejoin:round;stroke-opacity:1" id="g124" transform="translate(-4900.3905,-8593.565)"><rect id="rect126" width="2000" height="800" x="9500" y="14100" rx="0"/></g><g style="fill:#840000;fill-opacity:0;stroke:#840000;stroke-width:60;stroke-linecap:round;stroke-linejoin:round;stroke-opacity:1" id="g128" transform="translate(-4900.3905,-8593.565)"><path id="path130" d="m 9500,14500 -500,0"/><path id="path132" d="m 11500,14500 500,0"/></g><g style="fill:#008484;fill-opacity:0;stroke:#008484;stroke-width:60;stroke-linecap:round;stroke-linejoin:round;stroke-opacity:1" id="g134" transform="translate(-4900.3905,-8593.565)"><path id="path136" d="m 10350,14760 -280,0"/><path id="path138" d="m 10210,14760 0,-500 -50,70 -50,50 -40,20"/><path id="path140" d="m 10570,14760 0,-500 170,350 160,-350 0,500"/></g><g style="fill:#008400;fill-opacity:0;stroke:#008400;stroke-width:60;stroke-linecap:round;stroke-linejoin:round;stroke-opacity:1" id="g142" transform="translate(-4900.3905,-8593.565)"><path id="path144" d="m 20750,18500 -1000,0"/><path id="path146" d="m 20750,12500 -1000,0"/><path id="path148" d="m 16000,14500 1250,0"/><path id="path150" d="m 24250,15500 1500,0"/></g><g style="fill:#ffffc2;fill-opacity:.6;stroke:#ffffc2;stroke-width:0;stroke-linecap:round;stroke-linejoin:round;stroke-opacity:1" id="g158" transform="translate(-4900.3905,-8593.565)"><polyline style="fill-rule:evenodd" id="polyline160" points="18750 17500 22750 15500 18750 13500 18750 17500"/></g><g style="fill:#840000;fill-opacity:0;stroke:#840000;stroke-width:60;stroke-linecap:round;stroke-linejoin:round;stroke-opacity:1" id="g164" transform="translate(-4900.3905,-8593.565)"><polyline id="polyline166" fill="none;" points="18750 17500 22750 15500 18750 13500 18750 17500"/><path id="path168" d="m 19750,14000 0,-1500"/></g><g style="fill:#008484;fill-opacity:0;stroke:#008484;stroke-width:60;stroke-linecap:round;stroke-linejoin:round;stroke-opacity:1" id="g170" transform="translate(-4900.3905,-8593.565)"><path id="path172" d="m 19530,14900 400,-130 -400,-130"/><path id="path174" d="m 19780,14500 0,-300"/></g><g style="fill:#840000;fill-opacity:0;stroke:#840000;stroke-width:60;stroke-linecap:round;stroke-linejoin:round;stroke-opacity:1" id="g176" transform="translate(-4900.3905,-8593.565)"><path id="path178" d="m 19360,13170 270,0"/><path id="path180" d="m 19210,13270 290,90 0,-240"/><path id="path182" d="m 19750,17000 0,1500"/></g><g style="fill:#008484;fill-opacity:0;stroke:#008484;stroke-width:60;stroke-linecap:round;stroke-linejoin:round;stroke-opacity:1" id="g184" transform="translate(-4900.3905,-8593.565)"><path id="path186" d="m 19530,16860 400,-130 -400,-130"/><path id="path188" d="m 19780,16460 0,-300"/><path id="path190" d="m 19930,16310 -300,0"/></g><g style="fill:#840000;fill-opacity:0;stroke:#840000;stroke-width:60;stroke-linecap:round;stroke-linejoin:round;stroke-opacity:1" id="g192" transform="translate(-4900.3905,-8593.565)"><path id="path194" d="m 19230,17880 0,-260 400,170"/><path id="path196" d="m 18750,14500 -1500,0"/></g><g style="fill:#008484;fill-opacity:0;stroke:#008484;stroke-width:60;stroke-linecap:round;stroke-linejoin:round;stroke-opacity:1" id="g198" transform="translate(-4900.3905,-8593.565)"><path id="path200" d="m 18950,14530 300,0"/></g><g style="fill:#840000;fill-opacity:0;stroke:#840000;stroke-width:60;stroke-linecap:round;stroke-linejoin:round;stroke-opacity:1" id="g202" transform="translate(-4900.3905,-8593.565)"><path id="path204" d="m 17890,14020 20,-20 30,-20 100,0 40,20 20,20 10,40 0,40 -10,50 -230,230 240,0"/><path id="path206" d="m 18750,16500 -1500,0"/></g><g style="fill:#008484;fill-opacity:0;stroke:#008484;stroke-width:60;stroke-linecap:round;stroke-linejoin:round;stroke-opacity:1" id="g208" transform="translate(-4900.3905,-8593.565)"><path id="path210" d="m 18950,16530 300,0"/><path id="path212" d="m 19100,16680 0,-300"/></g><g style="fill:#840000;fill-opacity:0;stroke:#840000;stroke-width:60;stroke-linecap:round;stroke-linejoin:round;stroke-opacity:1" id="g214" transform="translate(-4900.3905,-8593.565)"><path id="path216" d="m 17870,15980 240,0 -130,150 60,0 40,20 20,20 10,40 0,90 -10,40 -20,20 -40,20 -120,0 -30,-20 -20,-20"/><path id="path218" d="m 22750,15500 1500,0"/><path id="path220" d="m 23580,14980 -80,0 -40,20 -20,20 -30,60 -20,70 0,150 20,40 10,20 40,20 80,0 40,-20 20,-20 10,-40 0,-90 -10,-40 -20,-20 -40,-20 -80,0 -40,20 -10,20 -20,40"/></g><g style="fill:#008400;fill-opacity:0;stroke:#008400;stroke-width:60;stroke-linecap:round;stroke-linejoin:round;stroke-opacity:1" id="g276" transform="translate(-4900.3905,-8593.565)"><path id="path278" d="m 24500,11500 0,4000"/></g><g style="fill:#008400;fill-opacity:1;stroke:#008400;stroke-width:100;stroke-linecap:round;stroke-linejoin:round;stroke-opacity:1" id="g282" transform="translate(-4900.3905,-8593.565)"><circle id="circle284" cx="24500" cy="15500" r="200"/></g><g style="fill:#840000;fill-opacity:0;stroke:#840000;stroke-width:200;stroke-linecap:round;stroke-linejoin:round;stroke-opacity:1" id="g290" transform="translate(-4900.3905,-8593.565)"><polyline id="polyline292" fill="none;" points="11700 13300 13300 13300"/><polyline id="polyline294" fill="none;" points="11700 12700 13300 12700"/></g><g style="fill:#840000;fill-opacity:0;stroke:#840000;stroke-width:60;stroke-linecap:round;stroke-linejoin:round;stroke-opacity:1" id="g296" transform="translate(-4900.3905,-8593.565)"><path id="path298" d="m 12500,12600 0,-1100"/><path id="path300" d="m 12500,13400 0,1100"/></g><g style="fill:#008484;fill-opacity:0;stroke:#008484;stroke-width:60;stroke-linecap:round;stroke-linejoin:round;stroke-opacity:1" id="g302" transform="translate(-4900.3905,-8593.565)"><path id="path304" d="m 12200,11870 0,280"/><path id="path306" d="m 12200,12010 -500,0 70,50 50,50 20,40"/><path id="path308" d="m 11700,11560 0,-50 20,-50 20,-20 50,-30 100,-20 120,0 90,20 50,30 20,20 30,50 0,50 -30,40 -20,30 -50,20 -90,20 -120,0 -100,-20 -50,-20 -20,-30 -20,-40"/><path id="path310" d="m 11860,11170 340,0"/><path id="path312" d="m 11910,11170 -20,-20 -30,-50 0,-70 30,-50 40,-20 270,0"/><path id="path314" d="m 11930,10550 0,170"/><path id="path316" d="m 12200,10720 -500,0 0,-240"/></g><g style="fill:#840000;fill-opacity:0;stroke:#840000;stroke-width:200;stroke-linecap:round;stroke-linejoin:round;stroke-opacity:1" id="g322" transform="translate(-4900.3905,-8593.565)"><polyline id="polyline324" fill="none;" points="14200 13700 14200 15300"/><polyline id="polyline326" fill="none;" points="14800 13700 14800 15300"/></g><g style="fill:#840000;fill-opacity:0;stroke:#840000;stroke-width:60;stroke-linecap:round;stroke-linejoin:round;stroke-opacity:1" id="g328" transform="translate(-4900.3905,-8593.565)"><path id="path330" d="m 14900,14500 1100,0"/><path id="path332" d="m 14100,14500 -1100,0"/></g><g style="fill:#008484;fill-opacity:0;stroke:#008484;stroke-width:60;stroke-linecap:round;stroke-linejoin:round;stroke-opacity:1" id="g334" transform="translate(-4900.3905,-8593.565)"><path id="path336" d="m 14130,16200 -280,0"/><path id="path338" d="m 13990,16200 0,-500 -50,70 -50,50 -40,20"/><path id="path340" d="m 14350,15860 0,340"/><path id="path342" d="m 14350,15910 20,-20 50,-30 70,0 50,30 20,40 0,270"/><path id="path344" d="m 14970,15930 -170,0"/><path id="path346" d="m 14800,16200 0,-500 240,0"/></g><g style="fill:#008400;fill-opacity:0;stroke:#008400;stroke-width:60;stroke-linecap:round;stroke-linejoin:round;stroke-opacity:1" id="g348" transform="translate(-4900.3905,-8593.565)"><path id="path350" d="m 12000,14500 1000,0"/></g><g style="fill:#008400;fill-opacity:1;stroke:#008400;stroke-width:100;stroke-linecap:round;stroke-linejoin:round;stroke-opacity:1" id="g354" transform="translate(-4900.3905,-8593.565)"><circle id="circle356" cx="16500" cy="14500" r="200"/></g><g style="fill:#008400;fill-opacity:1;stroke:#008400;stroke-width:100;stroke-linecap:round;stroke-linejoin:round;stroke-opacity:1" id="g360" transform="translate(-4900.3905,-8593.565)"><circle id="circle362" cx="12500" cy="14500" r="200"/></g><g style="fill:#008400;fill-opacity:0;stroke:#008400;stroke-width:60;stroke-linecap:round;stroke-linejoin:round;stroke-opacity:1" id="g366" transform="translate(-4900.3905,-8593.565)"><path id="path368" d="m 12500,11500 12000,0"/></g><g style="fill:#008400;fill-opacity:1;stroke:#008400;stroke-width:100;stroke-linecap:round;stroke-linejoin:round;stroke-opacity:1" id="g372" transform="translate(-4900.3905,-8593.565)"><circle id="circle374" cx="16500" cy="11500" r="200"/></g><g style="fill:#008400;fill-opacity:0;stroke:#008400;stroke-width:60;stroke-linecap:round;stroke-linejoin:round;stroke-opacity:1" id="g378" transform="translate(-4900.3905,-8593.565)"><path id="path380" d="m 17250,17500 0,-1000"/><path id="path382" d="m 9500,17500 7750,0"/></g><g style="fill:#008400;fill-opacity:1;stroke:#008400;stroke-width:100;stroke-linecap:round;stroke-linejoin:round;stroke-opacity:1" id="g386" transform="translate(-4900.3905,-8593.565)"><circle id="circle388" cx="12500" cy="17500" r="200"/></g><g style="fill:#840000;fill-opacity:0;stroke:#840000;stroke-width:60;stroke-linecap:round;stroke-linejoin:round;stroke-opacity:1" id="g392" transform="translate(-4900.3905,-8593.565)"><path id="path394" d="m 7330,12460 -30,30 -90,30 -60,0 -80,-30 -60,-50 -30,-60 -30,-120 0,-80 30,-120 30,-50 60,-60 80,-30 60,0 90,30 30,30"/><path id="path396" d="m 7580,12520 0,-600"/><path id="path398" d="m 7580,12210 350,0"/><path id="path400" d="m 7930,12520 0,-600"/><path id="path402" d="m 8530,12520 -350,0"/><path id="path404" d="m 8360,12520 0,-600 -60,90 -60,50 -60,30"/></g><g style="fill:#840000;fill-opacity:0;stroke:#840000;stroke-width:100;stroke-linecap:round;stroke-linejoin:round;stroke-opacity:1" id="g406" transform="translate(-4900.3905,-8593.565)"><polyline id="polyline408" fill="none;" points="9000 12250 8700 11710 6610 11710 6610 12250 6610 12790 8700 12790 9000 12250"/></g><g style="fill:#008400;fill-opacity:0;stroke:#008400;stroke-width:60;stroke-linecap:round;stroke-linejoin:round;stroke-opacity:1" id="g412" transform="translate(-4900.3905,-8593.565)"><path id="path414" d="m 9000,12250 0,2250"/></g></svg>