<svg xmlns="http://www.w3.org/2000/svg" xmlns:svg="http://www.w3.org/2000/svg" id="svg8600" width="119.424" height="64.128" version="1.1" viewBox="0 0 111.96 60.12"><metadata id="metadata8605"/><g id="layer1" transform="translate(-189.73435,-293.73081)"><g style="fill:#840000;fill-opacity:0;stroke:#840000;stroke-width:60;stroke-linecap:round;stroke-linejoin:round;stroke-opacity:1" id="g996" transform="matrix(0.00899999,0,0,0.00899999,-190.78523,220.29089)"><path id="path998" d="m 53100,8960 -30,30 -90,30 -60,0 -80,-30 -60,-50 -30,-60 -30,-120 0,-80 30,-120 30,-50 60,-60 80,-30 60,0 90,30 30,30"/><path id="path1000" d="m 53350,9020 0,-600"/><path id="path1002" d="m 53350,8710 350,0"/><path id="path1004" d="m 53700,9020 0,-600"/><path id="path1006" d="m 53950,8480 30,-30 60,-30 140,0 60,30 30,30 30,60 0,50 -30,90 -340,340 370,0"/></g><g style="fill:#840000;fill-opacity:0;stroke:#840000;stroke-width:100;stroke-linecap:round;stroke-linejoin:round;stroke-opacity:1" id="g1008" transform="matrix(0.00899999,0,0,0.00899999,-190.78523,220.29089)"><polyline id="polyline1010" fill="none;" points="52250 8750 52550 9290 54640 9290 54640 8750 54640 8210 52550 8210 52250 8750"/></g><g style="fill:#840000;fill-opacity:0;stroke:#840000;stroke-width:60;stroke-linecap:round;stroke-linejoin:round;stroke-opacity:1" id="g1012" transform="matrix(0.00899999,0,0,0.00899999,-190.78523,220.29089)"><path id="path1014" d="m 43020,13950 -60,-30 -90,0 -80,30 -60,60 -30,50 -30,120 0,80 30,120 30,60 60,50 80,30 60,0 90,-30 30,-30 0,-200 -120,0"/><path id="path1016" d="m 43300,14520 0,-600 350,600 0,-600"/><path id="path1018" d="m 43930,14520 0,-600 150,0 80,30 60,60 30,50 30,120 0,80 -30,120 -30,60 -60,50 -80,30 -150,0"/></g><g style="fill:#840000;fill-opacity:0;stroke:#840000;stroke-width:100;stroke-linecap:round;stroke-linejoin:round;stroke-opacity:1" id="g1020" transform="matrix(0.00899999,0,0,0.00899999,-190.78523,220.29089)"><polyline id="polyline1022" fill="none;" points="44750 14250 44450 13710 42330 13710 42330 14250 42330 14790 44450 14790 44750 14250"/></g><g style="fill:#840000;fill-opacity:0;stroke:#840000;stroke-width:60;stroke-linecap:round;stroke-linejoin:round;stroke-opacity:1" id="g1024" transform="matrix(0.00899999,0,0,0.00899999,-190.78523,220.29089)"><path id="path1026" d="m 42720,8420 140,600 110,-430 120,430 140,-600"/><path id="path1028" d="m 43780,9020 -350,0"/><path id="path1030" d="m 43610,9020 0,-600 -60,90 -60,50 -60,30"/></g><g style="fill:#840000;fill-opacity:0;stroke:#840000;stroke-width:100;stroke-linecap:round;stroke-linejoin:round;stroke-opacity:1" id="g1032" transform="matrix(0.00899999,0,0,0.00899999,-190.78523,220.29089)"><polyline id="polyline1034" fill="none;" points="44250 8750 43950 8210 42400 8210 42400 8750 42400 9290 43950 9290 44250 8750"/></g><g style="fill:#840000;fill-opacity:0;stroke:#840000;stroke-width:60;stroke-linecap:round;stroke-linejoin:round;stroke-opacity:1" id="g1036" transform="matrix(0.00899999,0,0,0.00899999,-190.78523,220.29089)"><path id="path1038" d="m 43080,10210 -30,30 -90,30 -60,0 -80,-30 -60,-50 -30,-60 -30,-120 0,-80 30,-120 30,-50 60,-60 80,-30 60,0 90,30 30,30"/><path id="path1040" d="m 43330,10270 0,-600"/><path id="path1042" d="m 43330,9960 350,0"/><path id="path1044" d="m 43680,10270 0,-600"/><path id="path1046" d="m 44280,10270 -350,0"/><path id="path1048" d="m 44110,10270 0,-600 -60,90 -60,50 -60,30"/></g><g style="fill:#840000;fill-opacity:0;stroke:#840000;stroke-width:100;stroke-linecap:round;stroke-linejoin:round;stroke-opacity:1" id="g1050" transform="matrix(0.00899999,0,0,0.00899999,-190.78523,220.29089)"><polyline id="polyline1052" fill="none;" points="44750 10000 44450 9460 42360 9460 42360 10000 42360 10540 44450 10540 44750 10000"/></g><g style="fill:#008400;fill-opacity:0;stroke:#008400;stroke-width:60;stroke-linecap:round;stroke-linejoin:round;stroke-opacity:1" id="g1110" transform="matrix(0.00899999,0,0,0.00899999,-190.78523,220.29089)"><path id="path1112" d="m 49750,8750 2500,0"/><path id="path1114" d="m 44250,8750 2750,0"/><path id="path1116" d="m 44750,14250 0,500"/><path id="path1118" d="m 44750,14750 2250,0"/></g><g style="fill:#840000;fill-opacity:0;stroke:#840000;stroke-width:60;stroke-linecap:round;stroke-linejoin:round;stroke-opacity:1" id="g1124" transform="matrix(0.00899999,0,0,0.00899999,-190.78523,220.29089)"><path id="path1126" d="m 49740.4,9750.09 a 500,500 0 0 0 0,999.81"/><path id="path1128" d="m 49740.2,10750.1 a 510,510 0 0 0 0,1019.8"/><path id="path1130" d="m 49740.2,11750.1 a 510,510 0 0 0 0,1019.8"/><path id="path1132" d="m 49740.8,12750.1 a 480,480 0 0 0 0,959.8"/><polyline id="polyline1134" fill="none;" points="48750 9750 48750 13750"/><path id="path1136" d="m 49750,13750 0,1000"/><path id="path1138" d="m 49750,9750 0,-1000"/></g><g style="fill:#008484;fill-opacity:0;stroke:#008484;stroke-width:60;stroke-linecap:round;stroke-linejoin:round;stroke-opacity:1" id="g1140" transform="matrix(0.00899999,0,0,0.00899999,-190.78523,220.29089)"><path id="path1142" d="m 50510,12680 0,280"/><path id="path1144" d="m 50510,12820 -500,0 70,50 50,50 20,40"/><path id="path1146" d="m 50050,12480 -20,-20 -20,-50 0,-120 20,-40 20,-30 50,-20 50,0 70,20 290,290 0,-310"/><path id="path1148" d="m 50010,11740 0,240 230,20 -20,-20 -20,-50 0,-120 20,-40 20,-30 50,-20 120,0 50,20 20,30 30,40 0,120 -30,50 -20,20"/><path id="path1150" d="m 50510,11500 -340,0"/><path id="path1152" d="m 50220,11500 -20,-20 -30,-50 0,-70 30,-50 40,-20 270,0"/><path id="path1154" d="m 50240,11290 -40,-30 -30,-40 0,-80 30,-40 40,-30 270,0"/><path id="path1156" d="m 50510,10830 -500,0"/><path id="path1158" d="m 50240,10830 0,-280"/><path id="path1160" d="m 50510,10550 -500,0"/></g><g style="fill:#840000;fill-opacity:0;stroke:#840000;stroke-width:60;stroke-linecap:round;stroke-linejoin:round;stroke-opacity:1" id="g1162" transform="matrix(0.00899999,0,0,0.00899999,-190.78523,220.29089)"><path id="path1164" d="m 53070,13700 -60,-30 -90,0 -80,30 -60,60 -30,50 -30,120 0,80 30,120 30,60 60,50 80,30 60,0 90,-30 30,-30 0,-200 -120,0"/><path id="path1166" d="m 53350,14270 0,-600 350,600 0,-600"/><path id="path1168" d="m 53980,14270 0,-600 150,0 80,30 60,60 30,50 30,120 0,80 -30,120 -30,60 -60,50 -80,30 -150,0"/></g><g style="fill:#840000;fill-opacity:0;stroke:#840000;stroke-width:100;stroke-linecap:round;stroke-linejoin:round;stroke-opacity:1" id="g1170" transform="matrix(0.00899999,0,0,0.00899999,-190.78523,220.29089)"><polyline id="polyline1172" fill="none;" points="52250 14000 52550 14540 54670 14540 54670 14000 54670 13460 52550 13460 52250 14000"/></g><g style="fill:#008400;fill-opacity:0;stroke:#008400;stroke-width:60;stroke-linecap:round;stroke-linejoin:round;stroke-opacity:1" id="g1176" transform="matrix(0.00899999,0,0,0.00899999,-190.78523,220.29089)"><path id="path1178" d="m 52250,14000 0,750"/><path id="path1180" d="m 52250,14750 -2500,0"/><path id="path1182" d="m 44750,10000 250,0"/><path id="path1184" d="m 45000,10000 0,-1250"/></g><g style="fill:#008400;fill-opacity:1;stroke:#008400;stroke-width:100;stroke-linecap:round;stroke-linejoin:round;stroke-opacity:1" id="g1188" transform="matrix(0.00899999,0,0,0.00899999,-190.78523,220.29089)"><circle id="circle1190" cx="45000" cy="8750" r="200"/></g><g style="fill:#840000;fill-opacity:0;stroke:#840000;stroke-width:60;stroke-linecap:round;stroke-linejoin:round;stroke-opacity:1" id="g1196" transform="matrix(0.00899999,0,0,0.00899999,-190.78523,220.29089)"><path id="path1198" d="m 47009.6,13749.9 a 500,500 0 0 0 0,-999.8"/><path id="path1200" d="m 47009.8,12749.9 a 510,510 0 0 0 0,-1019.8"/><path id="path1202" d="m 47009.8,11749.9 a 510,510 0 0 0 0,-1019.8"/><path id="path1204" d="m 47009.2,10749.9 a 480,480 0 0 0 0,-959.81"/><polyline id="polyline1206" fill="none;" points="48000 13750 48000 9750"/><path id="path1208" d="m 47000,9750 0,-1000"/><path id="path1210" d="m 47000,13750 0,1000"/></g><g style="fill:#008484;fill-opacity:0;stroke:#008484;stroke-width:60;stroke-linecap:round;stroke-linejoin:round;stroke-opacity:1" id="g1212" transform="matrix(0.00899999,0,0,0.00899999,-190.78523,220.29089)"><path id="path1214" d="m 46700,12670 0,280"/><path id="path1216" d="m 46700,12810 -500,0 70,50 50,50 20,40"/><path id="path1218" d="m 46240,12470 -20,-20 -20,-50 0,-120 20,-40 20,-30 50,-20 50,0 70,20 290,290 0,-310"/><path id="path1220" d="m 46200,11730 0,240 230,20 -20,-20 -20,-50 0,-120 20,-40 20,-30 50,-20 120,0 50,20 20,30 30,40 0,120 -30,50 -20,20"/><path id="path1222" d="m 46700,11490 -340,0"/><path id="path1224" d="m 46410,11490 -20,-20 -30,-50 0,-70 30,-50 40,-20 270,0"/><path id="path1226" d="m 46430,11280 -40,-30 -30,-40 0,-80 30,-40 40,-30 270,0"/><path id="path1228" d="m 46700,10820 -500,0"/><path id="path1230" d="m 46430,10820 0,-280"/><path id="path1232" d="m 46700,10540 -500,0"/></g></g></svg>