<svg xmlns="http://www.w3.org/2000/svg" xmlns:svg="http://www.w3.org/2000/svg" id="svg2" width="110.496" height="66.528" version="1.1" viewBox="0 0 11509.995 6930"><metadata id="metadata278"/><title id="title4">SVG Picture created as fets.sch.svg date 2016/06/14 00:05:02</title><desc id="desc6">Picture generated by Eeschema-SVG</desc><g style="fill:#840000;fill-opacity:0;stroke:#840000;stroke-width:100;stroke-linecap:round;stroke-linejoin:round;stroke-opacity:1" id="g14" transform="translate(-6180.0203,-10160)"><circle id="circle16" cx="13500" cy="13500" r="1110"/><polyline id="polyline18" fill="none;" points="13100 12750 13100 14250 13100 14250"/></g><g style="fill:#840000;fill-opacity:0;stroke:#840000;stroke-width:60;stroke-linecap:round;stroke-linejoin:round;stroke-opacity:1" id="g20" transform="translate(-6180.0203,-10160)"><polyline id="polyline22" fill="none;" points="14000 14500 14000 14000 13100 14000"/><polyline id="polyline24" fill="none;" points="14000 12500 14000 12950 13100 12950"/></g><g style="fill:#840000;fill-opacity:1;stroke:#840000;stroke-width:60;stroke-linecap:round;stroke-linejoin:round;stroke-opacity:1" id="g26" transform="translate(-6180.0203,-10160)"><polyline style="fill-rule:evenodd" id="polyline28" points="13000 13500 12600 13350 12600 13650 13000 13500"/></g><g style="fill:#840000;fill-opacity:0;stroke:#840000;stroke-width:60;stroke-linecap:round;stroke-linejoin:round;stroke-opacity:1" id="g30" transform="translate(-6180.0203,-10160)"><path id="path32" d="m 14000,14500 0,1000"/><path id="path34" d="m 14580,14860 0,280"/><path id="path36" d="m 14580,15000 -500,0 70,50 50,50 20,40"/><path id="path38" d="m 14000,12500 0,-1000"/><path id="path40" d="m 14120,12140 -20,-20 -20,-50 0,-120 20,-40 20,-30 50,-20 50,0 70,20 290,290 0,-310"/><path id="path42" d="m 13100,13500 -2100,0"/><path id="path44" d="m 11880,13580 310,0 -170,190 80,0 40,20 30,20 20,50 0,120 -20,50 -30,20 -40,30 -150,0 -40,-30 -30,-20"/></g><g style="fill:#008484;fill-opacity:0;stroke:#008484;stroke-width:60;stroke-linecap:round;stroke-linejoin:round;stroke-opacity:1" id="g46" transform="translate(-6180.0203,-10160)"><path id="path48" d="m 14990,16590 -20,-20 -20,-50 0,-120 20,-40 20,-30 50,-20 50,0 70,20 290,290 0,-310"/><path id="path50" d="m 15450,16090 -500,0 500,-280 -500,0"/><path id="path52" d="m 15110,15360 340,0"/><path id="path54" d="m 14920,15480 360,110 0,-300"/><path id="path56" d="m 15110,14880 340,0"/><path id="path58" d="m 14920,15000 360,110 0,-300"/><path id="path60" d="m 15450,14350 0,280"/><path id="path62" d="m 15450,14490 -500,0 70,50 50,50 20,40"/><path id="path64" d="m 15160,14060 -20,50 -30,20 -40,20 -30,0 -50,-20 -20,-20 -20,-50 0,-100 20,-40 20,-30 50,-20 30,0 40,20 30,30 20,40 0,100 20,50 30,20 50,20 90,0 50,-20 20,-20 30,-50 0,-100 -30,-40 -20,-30 -50,-20 -90,0 -50,20 -30,30 -20,40"/><path id="path66" d="m 14950,13130 350,0 70,20 50,50 30,70 0,50"/><path id="path68" d="m 15180,12720 0,170"/><path id="path70" d="m 15450,12890 -500,0 0,-240"/><path id="path72" d="m 15180,12460 0,-170"/><path id="path74" d="m 15450,12220 0,240 -500,0 0,-240"/><path id="path76" d="m 14950,12080 0,-280"/><path id="path78" d="m 15450,11940 -500,0"/></g><g style="fill:#840000;fill-opacity:0;stroke:#840000;stroke-width:60;stroke-linecap:round;stroke-linejoin:round;stroke-opacity:1" id="g80" transform="translate(-6180.0203,-10160)"><path id="path82" d="m 6600,13770 0,-600 230,0 60,30 30,30 30,60 0,80 -30,60 -30,30 -60,30 -230,0"/><path id="path84" d="m 7120,13170 200,600 200,-600"/><path id="path86" d="m 7680,13230 30,-30 60,-30 140,0 60,30 30,30 30,60 0,50 -30,90 -340,340 370,0"/></g><g style="fill:#840000;fill-opacity:0;stroke:#840000;stroke-width:100;stroke-linecap:round;stroke-linejoin:round;stroke-opacity:1" id="g88" transform="translate(-6180.0203,-10160)"><polyline id="polyline90" fill="none;" points="8500 13500 8200 12960 6230 12960 6230 13500 6230 14040 8200 14040 8500 13500"/></g><g style="fill:#008400;fill-opacity:0;stroke:#008400;stroke-width:60;stroke-linecap:round;stroke-linejoin:round;stroke-opacity:1" id="g94" transform="translate(-6180.0203,-10160)"><path id="path96" d="m 8500,13500 2500,0"/></g><g style="fill:#840000;fill-opacity:0;stroke:#840000;stroke-width:60;stroke-linecap:round;stroke-linejoin:round;stroke-opacity:1" id="g98" transform="translate(-6180.0203,-10160)"><path id="path100" d="m 7020,16200 -60,-30 -90,0 -80,30 -60,60 -30,50 -30,120 0,80 30,120 30,60 60,50 80,30 60,0 90,-30 30,-30 0,-200 -120,0"/><path id="path102" d="m 7300,16770 0,-600 350,600 0,-600"/><path id="path104" d="m 7930,16770 0,-600 150,0 80,30 60,60 30,50 30,120 0,80 -30,120 -30,60 -60,50 -80,30 -150,0"/></g><g style="fill:#840000;fill-opacity:0;stroke:#840000;stroke-width:100;stroke-linecap:round;stroke-linejoin:round;stroke-opacity:1" id="g106" transform="translate(-6180.0203,-10160)"><polyline id="polyline108" fill="none;" points="8750 16500 8450 15960 6330 15960 6330 16500 6330 17040 8450 17040 8750 16500"/></g><g style="fill:#008400;fill-opacity:0;stroke:#008400;stroke-width:60;stroke-linecap:round;stroke-linejoin:round;stroke-opacity:1" id="g112" transform="translate(-6180.0203,-10160)"><path id="path114" d="m 14000,16500 0,-1000"/><path id="path116" d="m 8750,16500 5250,0"/></g><g style="fill:#840000;fill-opacity:0;stroke:#840000;stroke-width:60;stroke-linecap:round;stroke-linejoin:round;stroke-opacity:1" id="g118" transform="translate(-6180.0203,-10160)"><path id="path120" d="m 6600,11020 0,-600 230,0 60,30 30,30 30,60 0,80 -30,60 -30,30 -60,30 -230,0"/><path id="path122" d="m 7120,10420 200,600 200,-600"/><path id="path124" d="m 8030,11020 -350,0"/><path id="path126" d="m 7860,11020 0,-600 -60,90 -60,50 -60,30"/></g><g style="fill:#840000;fill-opacity:0;stroke:#840000;stroke-width:100;stroke-linecap:round;stroke-linejoin:round;stroke-opacity:1" id="g128" transform="translate(-6180.0203,-10160)"><polyline id="polyline130" fill="none;" points="8500 10750 8200 10210 6230 10210 6230 10750 6230 11290 8200 11290 8500 10750"/></g><g style="fill:#840000;fill-opacity:0;stroke:#840000;stroke-width:100;stroke-linecap:round;stroke-linejoin:round;stroke-opacity:1" id="g134" transform="translate(-6180.0203,-10160)"><rect id="rect136" width="2000" height="800" x="10250" y="10350" rx="0"/></g><g style="fill:#840000;fill-opacity:0;stroke:#840000;stroke-width:60;stroke-linecap:round;stroke-linejoin:round;stroke-opacity:1" id="g138" transform="translate(-6180.0203,-10160)"><path id="path140" d="m 12250,10750 500,0"/><path id="path142" d="m 10250,10750 -500,0"/></g><g style="fill:#008400;fill-opacity:0;stroke:#008400;stroke-width:60;stroke-linecap:round;stroke-linejoin:round;stroke-opacity:1" id="g156" transform="translate(-6180.0203,-10160)"><path id="path158" d="m 12750,10750 2500,0"/><path id="path160" d="m 14000,10750 0,750"/><path id="path162" d="m 8500,10750 1250,0"/></g><g style="fill:#840000;fill-opacity:0;stroke:#840000;stroke-width:60;stroke-linecap:round;stroke-linejoin:round;stroke-opacity:1" id="g164" transform="translate(-6180.0203,-10160)"><path id="path166" d="m 16100,10960 -30,30 -90,30 -60,0 -80,-30 -60,-50 -30,-60 -30,-120 0,-80 30,-120 30,-50 60,-60 80,-30 60,0 90,30 30,30"/><path id="path168" d="m 16350,11020 0,-600"/><path id="path170" d="m 16350,10710 350,0"/><path id="path172" d="m 16700,11020 0,-600"/><path id="path174" d="m 17300,11020 -350,0"/><path id="path176" d="m 17130,11020 0,-600 -60,90 -60,50 -60,30"/></g><g style="fill:#840000;fill-opacity:0;stroke:#840000;stroke-width:100;stroke-linecap:round;stroke-linejoin:round;stroke-opacity:1" id="g178" transform="translate(-6180.0203,-10160)"><polyline id="polyline180" fill="none;" points="15250 10750 15550 11290 17640 11290 17640 10750 17640 10210 15550 10210 15250 10750"/></g><g style="fill:#008400;fill-opacity:1;stroke:#008400;stroke-width:100;stroke-linecap:round;stroke-linejoin:round;stroke-opacity:1" id="g186" transform="translate(-6180.0203,-10160)"><circle id="circle188" cx="14000" cy="10750" r="200"/></g><g style="fill:#0000c2;fill-opacity:0;stroke:#0000c2;stroke-width:60;stroke-linecap:round;stroke-linejoin:round;stroke-opacity:1" id="g192" transform="translate(-6180.0203,-10160)"><path id="path194" d="m 11960,12900 -60,-30 -90,0 -80,30 -60,60 -30,50 -30,120 0,80 30,120 30,60 60,50 80,30 60,0 90,-30 30,-30 0,-200 -120,0"/><path id="path196" d="m 13360,15690 90,30 140,0 60,-30 30,-30 30,-50 0,-60 -30,-60 -30,-30 -60,-20 -110,-30 -60,-30 -30,-30 -30,-60 0,-50 30,-60 30,-30 60,-30 140,0 90,30"/><path id="path198" d="m 13390,12220 0,-600 150,0 80,30 60,60 30,50 30,120 0,80 -30,120 -30,60 -60,50 -80,30 -150,0"/></g><text style="font-style:normal;font-weight:400;font-size:1250.0012207px;line-height:125%;font-family:sans-serif;letter-spacing:0;word-spacing:0;fill:#000;fill-opacity:1;stroke:none;stroke-width:1px;stroke-linecap:butt;stroke-linejoin:miter;stroke-opacity:1" id="text4230" x="4170.797" y="815.288" xml:space="preserve"><tspan id="tspan4232" x="4170.797" y="815.288" style="font-size:694.44512939px">560R</tspan></text></svg>