<svg xmlns="http://www.w3.org/2000/svg" xmlns:svg="http://www.w3.org/2000/svg" id="svg2" width="100.366" height="43.246" version="1.1" viewBox="0 0 10454.802 4504.805"><metadata id="metadata428"/><title id="title4">SVG Picture created as halfwave.sch.svg date 2016/06/12 00:14:14</title><desc id="desc6">Picture generated by Eeschema-SVG</desc><g style="fill:#840000;fill-opacity:0;stroke:#840000;stroke-width:60;stroke-linecap:round;stroke-linejoin:round;stroke-opacity:1" id="g348" transform="translate(-52302.601,-20372.598)"><path id="path350" d="m 53510,22020 0,-600 230,0 60,30 30,30 30,60 0,80 -30,60 -30,30 -60,30 -230,0"/><path id="path352" d="m 54460,21960 -30,30 -90,30 -60,0 -80,-30 -60,-50 -30,-60 -30,-120 0,-80 30,-120 30,-50 60,-60 80,-30 60,0 90,30 30,30"/><path id="path354" d="m 54680,21990 90,30 140,0 60,-30 30,-30 30,-50 0,-60 -30,-60 -30,-30 -60,-20 -110,-30 -60,-30 -30,-30 -30,-60 0,-50 30,-60 30,-30 60,-30 140,0 90,30"/></g><g style="fill:#840000;fill-opacity:0;stroke:#840000;stroke-width:100;stroke-linecap:round;stroke-linejoin:round;stroke-opacity:1" id="g356" transform="translate(-52302.601,-20372.598)"><polyline id="polyline358" fill="none;" points="55500 21750 55200 21210 53140 21210 53140 21750 53140 22290 55200 22290 55500 21750"/></g><g style="fill:#840000;fill-opacity:0;stroke:#840000;stroke-width:60;stroke-linecap:round;stroke-linejoin:round;stroke-opacity:1" id="g360" transform="translate(-52302.601,-20372.598)"><path id="path362" d="m 60350,21960 -30,30 -90,30 -60,0 -80,-30 -60,-50 -30,-60 -30,-120 0,-80 30,-120 30,-50 60,-60 80,-30 60,0 90,30 30,30"/><path id="path364" d="m 60600,22020 0,-600"/><path id="path366" d="m 60600,21710 350,0"/><path id="path368" d="m 60950,22020 0,-600"/><path id="path370" d="m 61550,22020 -350,0"/><path id="path372" d="m 61380,22020 0,-600 -60,90 -60,50 -60,30"/></g><g style="fill:#840000;fill-opacity:0;stroke:#840000;stroke-width:100;stroke-linecap:round;stroke-linejoin:round;stroke-opacity:1" id="g374" transform="translate(-52302.601,-20372.598)"><polyline id="polyline376" fill="none;" points="59500 21750 59800 22290 61890 22290 61890 21750 61890 21210 59800 21210 59500 21750"/></g><g style="fill:#840000;fill-opacity:0;stroke:#840000;stroke-width:60;stroke-linecap:round;stroke-linejoin:round;stroke-opacity:1" id="g378" transform="translate(-52302.601,-20372.598)"><path id="path380" d="m 60320,23200 -60,-30 -90,0 -80,30 -60,60 -30,50 -30,120 0,80 30,120 30,60 60,50 80,30 60,0 90,-30 30,-30 0,-200 -120,0"/><path id="path382" d="m 60600,23770 0,-600 350,600 0,-600"/><path id="path384" d="m 61230,23770 0,-600 150,0 80,30 60,60 30,50 30,120 0,80 -30,120 -30,60 -60,50 -80,30 -150,0"/></g><g style="fill:#840000;fill-opacity:0;stroke:#840000;stroke-width:100;stroke-linecap:round;stroke-linejoin:round;stroke-opacity:1" id="g386" transform="translate(-52302.601,-20372.598)"><polyline id="polyline388" fill="none;" points="59500 23500 59800 24040 61920 24040 61920 23500 61920 22960 59800 22960 59500 23500"/></g><g style="fill:#840000;fill-opacity:0;stroke:#840000;stroke-width:100;stroke-linecap:round;stroke-linejoin:round;stroke-opacity:1" id="g392" transform="translate(-52302.601,-20372.598)"><rect id="rect394" width="2000" height="800" x="56000" y="23100" rx="0"/></g><g style="fill:#840000;fill-opacity:0;stroke:#840000;stroke-width:60;stroke-linecap:round;stroke-linejoin:round;stroke-opacity:1" id="g396" transform="translate(-52302.601,-20372.598)"><path id="path398" d="m 58000,23500 500,0"/><path id="path400" d="m 56000,23500 -500,0"/></g><g style="fill:#008484;fill-opacity:0;stroke:#008484;stroke-width:60;stroke-linecap:round;stroke-linejoin:round;stroke-opacity:1" id="g402" transform="translate(-52302.601,-20372.598)"><path id="path404" d="m 56410,23700 -280,0"/><path id="path406" d="m 56270,23700 0,-500 -50,70 -50,50 -40,20"/><path id="path408" d="m 56720,23200 50,0 50,20 20,20 30,50 20,100 0,120 -20,90 -30,50 -20,20 -50,30 -50,0 -40,-30 -30,-20 -20,-50 -20,-90 0,-120 20,-100 20,-50 30,-20 40,-20"/><path id="path410" d="m 57200,23200 50,0 50,20 20,20 30,50 20,100 0,120 -20,90 -30,50 -20,20 -50,30 -50,0 -40,-30 -30,-20 -20,-50 -20,-90 0,-120 20,-100 20,-50 30,-20 40,-20"/><path id="path412" d="m 57870,23700 -160,-240"/><path id="path414" d="m 57590,23700 0,-500 190,0 50,20 20,20 20,50 0,70 -20,50 -20,20 -50,30 -190,0"/></g><g style="fill:#008400;fill-opacity:0;stroke:#008400;stroke-width:60;stroke-linecap:round;stroke-linejoin:round;stroke-opacity:1" id="g416" transform="translate(-52302.601,-20372.598)"><path id="path418" d="m 55500,21750 0,1750"/><path id="path420" d="m 58500,23500 1000,0"/><path id="path422" d="m 59500,21750 -4000,0"/></g></svg>