<svg xmlns="http://www.w3.org/2000/svg" xmlns:svg="http://www.w3.org/2000/svg" id="svg9226" width="70.464" height="11.328" version="1.1" viewBox="0 0 66.06 10.62"><metadata id="metadata9231"/><g id="layer1" transform="translate(-272.68432,-507.05221)"><g style="fill:#840000;fill-opacity:0;stroke:#840000;stroke-width:60;stroke-linecap:round;stroke-linejoin:round;stroke-opacity:1" id="g580" transform="matrix(0.00899999,0,0,0.00899999,-31.965339,339.1124)"><path id="path582" d="m 34220,18920 140,600 110,-430 120,430 140,-600"/><path id="path584" d="m 35280,19520 -350,0"/><path id="path586" d="m 35110,19520 0,-600 -60,90 -60,50 -60,30"/></g><g style="fill:#840000;fill-opacity:0;stroke:#840000;stroke-width:100;stroke-linecap:round;stroke-linejoin:round;stroke-opacity:1" id="g588" transform="matrix(0.00899999,0,0,0.00899999,-31.965339,339.1124)"><polyline id="polyline590" fill="none;" points="35750 19250 35450 18710 33900 18710 33900 19250 33900 19790 35450 19790 35750 19250"/></g><g style="fill:#840000;fill-opacity:0;stroke:#840000;stroke-width:60;stroke-linecap:round;stroke-linejoin:round;stroke-opacity:1" id="g592" transform="matrix(0.00899999,0,0,0.00899999,-31.965339,339.1124)"><path id="path594" d="m 39600,19460 -30,30 -90,30 -60,0 -80,-30 -60,-50 -30,-60 -30,-120 0,-80 30,-120 30,-50 60,-60 80,-30 60,0 90,30 30,30"/><path id="path596" d="m 39850,19520 0,-600"/><path id="path598" d="m 39850,19210 350,0"/><path id="path600" d="m 40200,19520 0,-600"/><path id="path602" d="m 40800,19520 -350,0"/><path id="path604" d="m 40630,19520 0,-600 -60,90 -60,50 -60,30"/></g><g style="fill:#840000;fill-opacity:0;stroke:#840000;stroke-width:100;stroke-linecap:round;stroke-linejoin:round;stroke-opacity:1" id="g606" transform="matrix(0.00899999,0,0,0.00899999,-31.965339,339.1124)"><polyline id="polyline608" fill="none;" points="38750 19250 39050 19790 41140 19790 41140 19250 41140 18710 39050 18710 38750 19250"/></g><path style="fill:#008400;fill-opacity:0;stroke:#008400;stroke-width:.53999943;stroke-linecap:round;stroke-linejoin:round;stroke-opacity:1" id="path1012" d="m 289.7843,512.3622 26.99997,0"/></g></svg>