<svg xmlns="http://www.w3.org/2000/svg" xmlns:svg="http://www.w3.org/2000/svg" id="svg2" width="250" height="200" version="1.0"><defs id="defs3"><marker style="overflow:visible" id="Arrow2Mend" orient="auto" refX="0" refY="0"><path style="font-size:12px;fill-rule:evenodd;stroke-width:.625;stroke-linejoin:round" id="path3052" d="M 8.7185878,4.0337352 -2.2072895,0.01601326 8.7185884,-4.0017078 c -1.7454984,2.3720609 -1.7354408,5.6174519 -6e-7,8.035443 z" transform="matrix(-0.6,0,0,-0.6,3,0)"/></marker><marker style="overflow:visible" id="Arrow1Mstart" orient="auto" refX="0" refY="0"><path style="fill-rule:evenodd;stroke:#000;stroke-width:1pt;marker-start:none" id="path3060" d="M 0,0 5,-5 -12.5,0 5,5 0,0 z" transform="scale(0.4,0.4)"/></marker></defs><metadata id="metadata1901"/><path style="fill:none;stroke:#000;stroke-width:3.00000024;stroke-linecap:butt;stroke-linejoin:miter;stroke-miterlimit:4;stroke-opacity:1;stroke-dasharray:none" id="path3723" d="m 102.5,152.8652 0,45.62106"/><path style="fill:none;stroke:#000;stroke-width:1.00000012px;stroke-linecap:butt;stroke-linejoin:miter;stroke-opacity:1" id="path3725" d="m 221.5,67.5 -19.83871,0"/><path style="fill:none;stroke:#000;stroke-width:.99999982px;stroke-linecap:butt;stroke-linejoin:miter;stroke-opacity:1" id="path3727" d="M 221.34312,81.5 201.5,81.5"/><path style="fill:none;stroke:#000;stroke-width:1px;stroke-linecap:butt;stroke-linejoin:miter;stroke-opacity:1" id="path3733" d="m 211.67188,62 0,-20"/><path style="fill:none;stroke:#000;stroke-width:.99999976px;stroke-linecap:butt;stroke-linejoin:miter;stroke-opacity:1" id="path3735" d="m 211.67188,87.8077 0,20.1923"/><path style="fill:none;stroke:#000;stroke-width:1px;stroke-linecap:butt;stroke-linejoin:miter;stroke-opacity:1" id="path5556" d="m 2.5,152.5 125,0 70,-60 0,-35 -120,0 -75,60 0,35 z"/><path style="fill:#93aca7;fill-rule:evenodd;stroke:#000;stroke-width:1px;stroke-linecap:butt;stroke-linejoin:bevel;stroke-opacity:1" id="path5560" d="m 2.5,142.5 125,0 0,10 -125,0 0,-10"/><path style="fill:#3465a4;fill-rule:evenodd;stroke:#000;stroke-width:1px;stroke-linecap:butt;stroke-linejoin:miter;stroke-opacity:1" id="path5564" d="m 127.5,127.5 -125,0 0,15 125,0 0,-15 z"/><path style="fill:#93aca7;fill-rule:evenodd;stroke:#000;stroke-width:1px;stroke-linecap:butt;stroke-linejoin:bevel;stroke-opacity:1" id="path5566" d="m 2.5,117.5 125,0 0,10 -125,0 0,-10 z"/><path style="fill:#536c67;fill-rule:evenodd;stroke:#000;stroke-width:1px;stroke-linecap:butt;stroke-linejoin:bevel;stroke-opacity:1" id="path5568" d="m 127.5,117.5 70,-60 0,10 -70,60 0,-10 z"/><path style="fill:#d3d7cf;fill-rule:evenodd;stroke:#000;stroke-width:1px;stroke-linecap:butt;stroke-linejoin:bevel;stroke-opacity:1" id="path5570" d="m 2.5,117.5 75,-60 120,0 -70,60 -125,0 z"/><path style="fill:#204a87;fill-rule:evenodd;stroke:#000;stroke-width:1px;stroke-linecap:butt;stroke-linejoin:miter;stroke-opacity:1" id="path9160" d="m 127.5,142.5 70,-60 0,-15 -70,60 0,15 z"/><path style="fill:#4b625d;fill-opacity:1;fill-rule:evenodd;stroke:#000;stroke-width:1px;stroke-linecap:butt;stroke-linejoin:bevel;stroke-opacity:1" id="path9162" d="m 127.5,142.5 0,10 70,-60 0,-10 -70,60 z"/><path style="fill:none;stroke:#000;stroke-width:3.00000048;stroke-linecap:butt;stroke-linejoin:miter;stroke-miterlimit:4;stroke-opacity:1;stroke-dasharray:none" id="path10966" d="m 102.5,30 0,57.1875"/><text style="font-size:20px;font-style:normal;font-variant:normal;font-weight:400;font-stretch:normal;text-align:start;line-height:125%;writing-mode:lr-tb;text-anchor:start;fill:#000;fill-opacity:1;stroke:none;font-family:DejaVu Serif;-inkscape-font-specification:DejaVu Serif" id="text3043" x="65" y="18" xml:space="preserve"><tspan style="font-size:20px;font-style:normal;font-variant:normal;font-weight:400;font-stretch:normal;text-align:start;line-height:125%;writing-mode:lr-tb;text-anchor:start;font-family:DejaVu Serif;-inkscape-font-specification:DejaVu Serif" id="tspan3637" x="65" y="18">Conductive plates</tspan></text><text style="font-size:20px;font-style:normal;font-variant:normal;font-weight:400;font-stretch:normal;text-align:start;line-height:125%;writing-mode:lr-tb;text-anchor:start;fill:#000;fill-opacity:1;stroke:none;font-family:DejaVu Serif;-inkscape-font-specification:DejaVu Serif" id="text3047" x="135.509" y="171.302" xml:space="preserve"><tspan id="tspan3049" x="135.509" y="171.302" style="font-size:20px;font-style:normal;font-variant:normal;font-weight:400;font-stretch:normal;text-align:start;line-height:125%;writing-mode:lr-tb;text-anchor:start;font-family:DejaVu Serif;-inkscape-font-specification:DejaVu Serif">Dielectric</tspan></text><path style="fill:none;stroke:#000;stroke-width:1.5;stroke-linecap:butt;stroke-linejoin:miter;stroke-miterlimit:4;stroke-opacity:1;stroke-dasharray:none" id="path1901" d="m 149.46878,152.34924 -15,-15"/><path style="fill:none;stroke:#000;stroke-width:1.5;stroke-linecap:butt;stroke-linejoin:miter;stroke-miterlimit:4;stroke-opacity:1;stroke-dasharray:none" id="path2806" d="M 126.04833,67.452995 140.65947,23.397316"/><path style="fill:none;stroke:#000;stroke-width:1.5;stroke-linecap:butt;stroke-linejoin:miter;stroke-miterlimit:4;stroke-opacity:1;stroke-dasharray:none" id="path2808" d="M 150.00164,24.191494 172.5,102.5"/><text style="font-size:20px;font-style:italic;font-variant:normal;font-weight:400;font-stretch:normal;text-align:start;line-height:112.99999952%;writing-mode:lr-tb;text-anchor:start;fill:#000;fill-opacity:1;stroke:none;font-family:DejaVu Serif;-inkscape-font-specification:DejaVu Serif Italic" id="text8194" x="222.537" y="81.316" xml:space="preserve"><tspan id="tspan8196" x="222.537" y="81.316">d</tspan></text><text style="font-size:20px;font-style:italic;font-variant:normal;font-weight:400;font-stretch:normal;text-align:start;line-height:112.99999952%;writing-mode:lr-tb;text-anchor:start;fill:#000;fill-opacity:1;stroke:none;font-family:DejaVu Serif;-inkscape-font-specification:DejaVu Serif Italic" id="text10007" x="17" y="62" xml:space="preserve"><tspan id="tspan10009" x="17" y="62">A</tspan></text><path style="fill:none;stroke:#000;stroke-width:1.5;stroke-linecap:butt;stroke-linejoin:miter;stroke-miterlimit:4;stroke-opacity:1;stroke-dasharray:none" id="path10910" d="M 58.940479,85.239675 32.422319,62.397012"/><path style="fill:#000;fill-opacity:1;fill-rule:evenodd;stroke:#000;stroke-width:.99999994px;stroke-linecap:butt;stroke-linejoin:miter;stroke-opacity:1" id="path2800" d="m 66.517096,91.76615 -9.045074,-4.821737 2.936914,-3.409477 6.10816,8.231214 z"/><path style="fill:#000;fill-opacity:1;fill-rule:evenodd;stroke:#000;stroke-width:.99999994px;stroke-linecap:butt;stroke-linejoin:miter;stroke-opacity:1" id="path2800-9" d="m 124.49938,71.829336 0.91545,-10.209039 4.28448,1.375957 -5.19993,8.833082 z"/><path style="fill:#000;fill-opacity:1;fill-rule:evenodd;stroke:#000;stroke-width:.99999994px;stroke-linecap:butt;stroke-linejoin:miter;stroke-opacity:1" id="path2800-7" d="m 173.82284,106.99081 -5.04984,-8.919729 4.30712,-1.303325 0.74272,10.223054 z"/><path style="fill:#000;fill-opacity:1;fill-rule:evenodd;stroke:#000;stroke-width:.99999994px;stroke-linecap:butt;stroke-linejoin:miter;stroke-opacity:1" id="path2800-5" d="m 211.5,82 2.25,10 -4.5,0 2.25,-10 z"/><path style="fill:#000;fill-opacity:1;fill-rule:evenodd;stroke:#000;stroke-width:.99999994px;stroke-linecap:butt;stroke-linejoin:miter;stroke-opacity:1" id="path2800-3" d="m 211.5,67 -2.25,-10 4.5,0 -2.25,10 z"/><path style="fill:#000;fill-opacity:1;fill-rule:evenodd;stroke:#000;stroke-width:.99999994px;stroke-linecap:butt;stroke-linejoin:miter;stroke-opacity:1" id="path2800-2" d="m 130.22638,132.78157 8.49337,5.73804 -3.27621,3.08487 -5.21716,-8.82291 z"/></svg>