<svg xmlns="http://www.w3.org/2000/svg" xmlns:svg="http://www.w3.org/2000/svg" id="svg2" width="183.648" height="118.66" version="1.1" viewBox="0 0 19129.994 12360.427"><metadata id="metadata2444"/><title id="title4">SVG Picture created as opamps.sch.svg date 2016/06/16 11:35:15</title><desc id="desc6">Picture generated by Eeschema-SVG</desc><g style="fill:#0000c2;fill-opacity:0;stroke:#0000c2;stroke-width:60;stroke-linecap:round;stroke-linejoin:round;stroke-opacity:1" id="g1878" transform="translate(-56060.02,-8339.5727)"><path id="path1880" d="m 63390,8970 0,-600 230,0 60,30 30,30 30,60 0,80 -30,60 -30,30 -60,30 -230,0"/><path id="path1882" d="m 63990,8970 0,-400"/><path id="path1884" d="m 63990,8690 30,-60 30,-30 60,-30 50,0"/><path id="path1886" d="m 64590,8940 -60,30 -110,0 -60,-30 -30,-50 0,-230 30,-60 60,-30 110,0 60,30 30,60 0,50 -290,60"/><path id="path1888" d="m 65130,8940 -60,30 -110,0 -60,-30 -30,-30 -30,-50 0,-170 30,-60 30,-30 60,-30 110,0 60,30"/><path id="path1890" d="m 65380,8970 0,-400"/><path id="path1892" d="m 65380,8370 -30,30 30,30 30,-30 -30,-30 0,60"/><path id="path1894" d="m 65640,8940 60,30 120,0 50,-30 30,-50 0,-30 -30,-60 -50,-30 -90,0 -60,-30 -30,-50 0,-30 30,-60 60,-30 90,0 50,30"/><path id="path1896" d="m 66160,8970 0,-400"/><path id="path1898" d="m 66160,8370 -30,30 30,30 30,-30 -30,-30 0,60"/><path id="path1900" d="m 66540,8970 -60,-30 -30,-30 -30,-50 0,-170 30,-60 30,-30 60,-30 80,0 60,30 30,30 30,60 0,170 -30,50 -30,30 -60,30 -80,0"/><path id="path1902" d="m 66990,8570 0,400"/><path id="path1904" d="m 66990,8630 30,-30 60,-30 80,0 60,30 30,60 0,310"/><path id="path1906" d="m 68340,8970 -200,-280"/><path id="path1908" d="m 67990,8970 0,-600 230,0 60,30 30,30 30,60 0,80 -30,60 -30,30 -60,30 -230,0"/><path id="path1910" d="m 68820,8940 -60,30 -110,0 -60,-30 -30,-50 0,-230 30,-60 60,-30 110,0 60,30 30,60 0,50 -290,60"/><path id="path1912" d="m 69360,8940 -60,30 -110,0 -60,-30 -30,-30 -30,-50 0,-170 30,-60 30,-30 60,-30 110,0 60,30"/><path id="path1914" d="m 69530,8570 230,0"/><path id="path1916" d="m 69610,8370 0,520 30,50 60,30 60,0"/><path id="path1918" d="m 69950,8970 0,-400"/><path id="path1920" d="m 69950,8370 -30,30 30,30 30,-30 -30,-30 0,60"/><path id="path1922" d="m 70160,8570 230,0"/><path id="path1924" d="m 70240,8970 0,-510 30,-60 60,-30 60,0"/><path id="path1926" d="m 70580,8970 0,-400"/><path id="path1928" d="m 70580,8370 -30,30 30,30 30,-30 -30,-30 0,60"/><path id="path1930" d="m 71100,8940 -60,30 -110,0 -60,-30 -30,-50 0,-230 30,-60 60,-30 110,0 60,30 30,60 0,50 -290,60"/><path id="path1932" d="m 71380,8970 0,-400"/><path id="path1934" d="m 71380,8690 30,-60 30,-30 60,-30 50,0"/></g><g style="fill:#840000;fill-opacity:0;stroke:#840000;stroke-width:60;stroke-linecap:round;stroke-linejoin:round;stroke-opacity:1" id="g1936" transform="translate(-56060.02,-8339.5727)"><path id="path1938" d="m 66670,15670 200,600 200,-600"/><path id="path1940" d="m 67260,16040 460,0"/></g><g style="fill:#840000;fill-opacity:0;stroke:#840000;stroke-width:100;stroke-linecap:round;stroke-linejoin:round;stroke-opacity:1" id="g1942" transform="translate(-56060.02,-8339.5727)"><polyline id="polyline1944" fill="none;" points="66250 16000 66550 16540 68090 16540 68090 16000 68090 15460 66550 15460 66250 16000"/></g><g style="fill:#840000;fill-opacity:0;stroke:#840000;stroke-width:60;stroke-linecap:round;stroke-linejoin:round;stroke-opacity:1" id="g1946" transform="translate(-56060.02,-8339.5727)"><path id="path1948" d="m 66670,10920 200,600 200,-600"/><path id="path1950" d="m 67260,11290 460,0"/><path id="path1952" d="m 67490,11520 0,-460"/></g><g style="fill:#840000;fill-opacity:0;stroke:#840000;stroke-width:100;stroke-linecap:round;stroke-linejoin:round;stroke-opacity:1" id="g1954" transform="translate(-56060.02,-8339.5727)"><polyline id="polyline1956" fill="none;" points="66250 11250 66550 11790 68090 11790 68090 11250 68090 10710 66550 10710 66250 11250"/></g><g style="fill:#840000;fill-opacity:0;stroke:#840000;stroke-width:100;stroke-linecap:round;stroke-linejoin:round;stroke-opacity:1" id="g1960" transform="translate(-56060.02,-8339.5727)"><rect id="rect1962" width="2000" height="800" x="64750" y="19850" rx="0"/></g><g style="fill:#840000;fill-opacity:0;stroke:#840000;stroke-width:60;stroke-linecap:round;stroke-linejoin:round;stroke-opacity:1" id="g1964" transform="translate(-56060.02,-8339.5727)"><path id="path1966" d="m 64750,20250 -500,0"/><path id="path1968" d="m 66750,20250 500,0"/></g><g style="fill:#008484;fill-opacity:0;stroke:#008484;stroke-width:60;stroke-linecap:round;stroke-linejoin:round;stroke-opacity:1" id="g1970" transform="translate(-56060.02,-8339.5727)"><path id="path1972" d="m 65660,19710 -160,-240"/><path id="path1974" d="m 65380,19710 0,-500 190,0 50,20 20,20 20,50 0,70 -20,50 -20,20 -50,30 -190,0"/><path id="path1976" d="m 65860,19250 20,-20 50,-20 120,0 40,20 30,20 20,50 0,50 -20,70 -290,290 310,0"/><path id="path1978" d="m 65400,20510 -280,0"/><path id="path1980" d="m 65260,20510 0,-500 -50,70 -50,50 -40,20"/><path id="path1982" d="m 65710,20010 50,0 50,20 20,20 30,50 20,100 0,120 -20,90 -30,50 -20,20 -50,30 -50,0 -40,-30 -30,-20 -20,-50 -20,-90 0,-120 20,-100 20,-50 30,-20 40,-20"/><path id="path1984" d="m 66100,20510 0,-500"/><path id="path1986" d="m 66380,20510 -210,-290"/><path id="path1988" d="m 66380,20010 -280,280"/></g><g style="fill:#840000;fill-opacity:0;stroke:#840000;stroke-width:60;stroke-linecap:round;stroke-linejoin:round;stroke-opacity:1" id="g1990" transform="translate(-56060.02,-8339.5727)"><path id="path1992" d="m 56470,14920 140,600 110,-430 120,430 140,-600"/><path id="path1994" d="m 57530,15520 -350,0"/><path id="path1996" d="m 57360,15520 0,-600 -60,90 -60,50 -60,30"/></g><g style="fill:#840000;fill-opacity:0;stroke:#840000;stroke-width:100;stroke-linecap:round;stroke-linejoin:round;stroke-opacity:1" id="g1998" transform="translate(-56060.02,-8339.5727)"><polyline id="polyline2000" fill="none;" points="58000 15250 57700 14710 56150 14710 56150 15250 56150 15790 57700 15790 58000 15250"/></g><g style="fill:#840000;fill-opacity:0;stroke:#840000;stroke-width:60;stroke-linecap:round;stroke-linejoin:round;stroke-opacity:1" id="g2002" transform="translate(-56060.02,-8339.5727)"><path id="path2004" d="m 60270,12950 -60,-30 -90,0 -80,30 -60,60 -30,50 -30,120 0,80 30,120 30,60 60,50 80,30 60,0 90,-30 30,-30 0,-200 -120,0"/><path id="path2006" d="m 60550,13520 0,-600 350,600 0,-600"/><path id="path2008" d="m 61180,13520 0,-600 150,0 80,30 60,60 30,50 30,120 0,80 -30,120 -30,60 -60,50 -80,30 -150,0"/></g><g style="fill:#840000;fill-opacity:0;stroke:#840000;stroke-width:100;stroke-linecap:round;stroke-linejoin:round;stroke-opacity:1" id="g2010" transform="translate(-56060.02,-8339.5727)"><polyline id="polyline2012" fill="none;" points="62000 13250 61700 12710 59580 12710 59580 13250 59580 13790 61700 13790 62000 13250"/></g><g style="fill:#840000;fill-opacity:0;stroke:#840000;stroke-width:60;stroke-linecap:round;stroke-linejoin:round;stroke-opacity:1" id="g2014" transform="translate(-56060.02,-8339.5727)"><path id="path2016" d="m 73600,14460 -30,30 -90,30 -60,0 -80,-30 -60,-50 -30,-60 -30,-120 0,-80 30,-120 30,-50 60,-60 80,-30 60,0 90,30 30,30"/><path id="path2018" d="m 73850,14520 0,-600"/><path id="path2020" d="m 73850,14210 350,0"/><path id="path2022" d="m 74200,14520 0,-600"/><path id="path2024" d="m 74450,13980 30,-30 60,-30 140,0 60,30 30,30 30,60 0,50 -30,90 -340,340 370,0"/></g><g style="fill:#840000;fill-opacity:0;stroke:#840000;stroke-width:100;stroke-linecap:round;stroke-linejoin:round;stroke-opacity:1" id="g2026" transform="translate(-56060.02,-8339.5727)"><polyline id="polyline2028" fill="none;" points="72750 14250 73050 14790 75140 14790 75140 14250 75140 13710 73050 13710 72750 14250"/></g><g style="fill:#840000;fill-opacity:0;stroke:#840000;stroke-width:60;stroke-linecap:round;stroke-linejoin:round;stroke-opacity:1" id="g2030" transform="translate(-56060.02,-8339.5727)"><path id="path2032" d="m 56830,17460 -30,30 -90,30 -60,0 -80,-30 -60,-50 -30,-60 -30,-120 0,-80 30,-120 30,-50 60,-60 80,-30 60,0 90,30 30,30"/><path id="path2034" d="m 57080,17520 0,-600"/><path id="path2036" d="m 57080,17210 350,0"/><path id="path2038" d="m 57430,17520 0,-600"/><path id="path2040" d="m 58030,17520 -350,0"/><path id="path2042" d="m 57860,17520 0,-600 -60,90 -60,50 -60,30"/></g><g style="fill:#840000;fill-opacity:0;stroke:#840000;stroke-width:100;stroke-linecap:round;stroke-linejoin:round;stroke-opacity:1" id="g2044" transform="translate(-56060.02,-8339.5727)"><polyline id="polyline2046" fill="none;" points="58500 17250 58200 16710 56110 16710 56110 17250 56110 17790 58200 17790 58500 17250"/></g><g style="fill:#ffffc2;fill-opacity:.6;stroke:#ffffc2;stroke-width:0;stroke-linecap:round;stroke-linejoin:round;stroke-opacity:1" id="g2052" transform="translate(-56060.02,-8339.5727)"><polyline style="fill-rule:evenodd" id="polyline2054" points="64250 12250 68250 14250 64250 16250 64250 12250"/></g><g style="fill:#840000;fill-opacity:0;stroke:#840000;stroke-width:60;stroke-linecap:round;stroke-linejoin:round;stroke-opacity:1" id="g2058" transform="translate(-56060.02,-8339.5727)"><polyline id="polyline2060" fill="none;" points="64250 12250 68250 14250 64250 16250 64250 12250"/><path id="path2062" d="m 65250,15750 0,1500"/></g><g style="fill:#008484;fill-opacity:0;stroke:#008484;stroke-width:60;stroke-linecap:round;stroke-linejoin:round;stroke-opacity:1" id="g2064" transform="translate(-56060.02,-8339.5727)"><path id="path2066" d="m 65030,15610 400,-130 -400,-130"/><path id="path2068" d="m 65280,15210 0,-300"/></g><g style="fill:#840000;fill-opacity:0;stroke:#840000;stroke-width:60;stroke-linecap:round;stroke-linejoin:round;stroke-opacity:1" id="g2070" transform="translate(-56060.02,-8339.5727)"><path id="path2072" d="m 64860,16420 270,0"/><path id="path2074" d="m 64710,16520 290,90 0,-240"/><path id="path2076" d="m 65250,12750 0,-1500"/></g><g style="fill:#008484;fill-opacity:0;stroke:#008484;stroke-width:60;stroke-linecap:round;stroke-linejoin:round;stroke-opacity:1" id="g2078" transform="translate(-56060.02,-8339.5727)"><path id="path2080" d="m 65030,13650 400,-130 -400,-130"/><path id="path2082" d="m 65280,13250 0,-300"/><path id="path2084" d="m 65430,13100 -300,0"/></g><g style="fill:#840000;fill-opacity:0;stroke:#840000;stroke-width:60;stroke-linecap:round;stroke-linejoin:round;stroke-opacity:1" id="g2086" transform="translate(-56060.02,-8339.5727)"><path id="path2088" d="m 64730,12130 0,-260 400,170"/><path id="path2090" d="m 64250,15250 -1500,0"/></g><g style="fill:#008484;fill-opacity:0;stroke:#008484;stroke-width:60;stroke-linecap:round;stroke-linejoin:round;stroke-opacity:1" id="g2092" transform="translate(-56060.02,-8339.5727)"><path id="path2094" d="m 64450,15280 300,0"/></g><g style="fill:#840000;fill-opacity:0;stroke:#840000;stroke-width:60;stroke-linecap:round;stroke-linejoin:round;stroke-opacity:1" id="g2096" transform="translate(-56060.02,-8339.5727)"><path id="path2098" d="m 63390,14770 20,-20 30,-20 100,0 40,20 20,20 10,40 0,40 -10,50 -230,230 240,0"/><path id="path2100" d="m 64250,13250 -1500,0"/></g><g style="fill:#008484;fill-opacity:0;stroke:#008484;stroke-width:60;stroke-linecap:round;stroke-linejoin:round;stroke-opacity:1" id="g2102" transform="translate(-56060.02,-8339.5727)"><path id="path2104" d="m 64450,13280 300,0"/><path id="path2106" d="m 64600,13430 0,-300"/></g><g style="fill:#840000;fill-opacity:0;stroke:#840000;stroke-width:60;stroke-linecap:round;stroke-linejoin:round;stroke-opacity:1" id="g2108" transform="translate(-56060.02,-8339.5727)"><path id="path2110" d="m 63370,12730 240,0 -130,150 60,0 40,20 20,20 10,40 0,90 -10,40 -20,20 -40,20 -120,0 -30,-20 -20,-20"/><path id="path2112" d="m 68250,14250 1500,0"/><path id="path2114" d="m 69080,13730 -80,0 -40,20 -20,20 -30,60 -20,70 0,150 20,40 10,20 40,20 80,0 40,-20 20,-20 10,-40 0,-90 -10,-40 -20,-20 -40,-20 -80,0 -40,20 -10,20 -20,40"/></g><g style="fill:#840000;fill-opacity:0;stroke:#840000;stroke-width:60;stroke-linecap:round;stroke-linejoin:round;stroke-opacity:1" id="g2118" transform="translate(-56060.02,-8339.5727)"><polyline id="polyline2120" fill="none;" points="67750 19000 67750 18000"/></g><g style="fill:#840000;fill-opacity:1;stroke:#840000;stroke-width:60;stroke-linecap:round;stroke-linejoin:round;stroke-opacity:1" id="g2122" transform="translate(-56060.02,-8339.5727)"><polyline style="fill-rule:evenodd" id="polyline2124" points="66750 19000 67750 18500 66750 18000"/></g><g style="fill:#840000;fill-opacity:0;stroke:#840000;stroke-width:60;stroke-linecap:round;stroke-linejoin:round;stroke-opacity:1" id="g2126" transform="translate(-56060.02,-8339.5727)"><path id="path2128" d="m 67750,18500 1000,0"/><path id="path2130" d="m 66750,18500 -1000,0"/></g><g style="fill:#840000;fill-opacity:0;stroke:#840000;stroke-width:60;stroke-linecap:round;stroke-linejoin:round;stroke-opacity:1" id="g2134" transform="translate(-56060.02,-8339.5727)"><polyline id="polyline2136" fill="none;" points="71750 14750 71750 13750"/></g><g style="fill:#840000;fill-opacity:1;stroke:#840000;stroke-width:60;stroke-linecap:round;stroke-linejoin:round;stroke-opacity:1" id="g2138" transform="translate(-56060.02,-8339.5727)"><polyline style="fill-rule:evenodd" id="polyline2140" points="70750 14750 71750 14250 70750 13750"/></g><g style="fill:#840000;fill-opacity:0;stroke:#840000;stroke-width:60;stroke-linecap:round;stroke-linejoin:round;stroke-opacity:1" id="g2142" transform="translate(-56060.02,-8339.5727)"><path id="path2144" d="m 71750,14250 1000,0"/><path id="path2146" d="m 70750,14250 -1000,0"/></g><g style="fill:#008400;fill-opacity:0;stroke:#008400;stroke-width:60;stroke-linecap:round;stroke-linejoin:round;stroke-opacity:1" id="g2258" transform="translate(-56060.02,-8339.5727)"><path id="path2362" d="m 66250,11250 -1000,0"/><path id="path2364" d="m 62000,15250 750,0"/><path id="path2366" d="m 62000,13250 750,0"/><path id="path2368" d="m 59000,15250 0,2000"/><path id="path2370" d="m 59000,17250 -500,0"/><path id="path2372" d="m 58000,15250 1000,0"/><path id="path2374" d="m 66250,16000 -750,0"/><path id="path2376" d="m 65500,16000 0,1250"/><path id="path2378" d="m 65500,17250 -250,0"/><path id="path2380" d="m 64250,20250 -1500,0"/><path id="path2382" d="m 62750,20250 0,-5000"/><path id="path2384" d="m 65750,18500 -3000,0"/></g><g style="fill:#008400;fill-opacity:1;stroke:#008400;stroke-width:100;stroke-linecap:round;stroke-linejoin:round;stroke-opacity:1" id="g2388" transform="translate(-56060.02,-8339.5727)"><circle id="circle2390" cx="62750" cy="18500" r="200"/></g><g style="fill:#008400;fill-opacity:0;stroke:#008400;stroke-width:60;stroke-linecap:round;stroke-linejoin:round;stroke-opacity:1" id="g2394" transform="translate(-56060.02,-8339.5727)"><path id="path2396" d="m 69750,14250 0,4250"/><path id="path2398" d="m 69750,18500 -1000,0"/><path id="path2400" d="m 67250,20250 5500,0"/><path id="path2402" d="m 72750,20250 0,-6000"/></g><g style="fill:#840000;fill-opacity:0;stroke:#840000;stroke-width:100;stroke-linecap:round;stroke-linejoin:round;stroke-opacity:1" id="g2408" transform="translate(-56060.02,-8339.5727)"><rect id="rect2410" width="2000" height="800" x="59500" y="14850" rx="0"/></g><g style="fill:#840000;fill-opacity:0;stroke:#840000;stroke-width:60;stroke-linecap:round;stroke-linejoin:round;stroke-opacity:1" id="g2412" transform="translate(-56060.02,-8339.5727)"><path id="path2414" d="m 59500,15250 -500,0"/><path id="path2416" d="m 61500,15250 500,0"/></g><g style="fill:#008484;fill-opacity:0;stroke:#008484;stroke-width:60;stroke-linecap:round;stroke-linejoin:round;stroke-opacity:1" id="g2418" transform="translate(-56060.02,-8339.5727)"><path id="path2420" d="m 60410,16510 -160,-240"/><path id="path2422" d="m 60130,16510 0,-500 190,0 50,20 20,20 20,50 0,70 -20,50 -20,20 -50,30 -190,0"/><path id="path2424" d="m 60890,16510 -280,0"/><path id="path2426" d="m 60750,16510 0,-500 -50,70 -50,50 -40,20"/><path id="path2428" d="m 60150,15510 -280,0"/><path id="path2430" d="m 60010,15510 0,-500 -50,70 -50,50 -40,20"/><path id="path2432" d="m 60460,15010 50,0 50,20 20,20 30,50 20,100 0,120 -20,90 -30,50 -20,20 -50,30 -50,0 -40,-30 -30,-20 -20,-50 -20,-90 0,-120 20,-100 20,-50 30,-20 40,-20"/><path id="path2434" d="m 60850,15510 0,-500"/><path id="path2436" d="m 61130,15510 -210,-290"/><path id="path2438" d="m 61130,15010 -280,280"/></g></svg>