<svg xmlns="http://www.w3.org/2000/svg" xmlns:svg="http://www.w3.org/2000/svg" id="svg2" width="195.936" height="122.404" version="1.1" viewBox="0 0 20409.993 12750.427"><metadata id="metadata2350"/><title id="title4">SVG Picture created as filter.sch.svg date 2016/06/13 11:29:05</title><desc id="desc6">Picture generated by Eeschema-SVG</desc><g style="fill:#840000;fill-opacity:0;stroke:#840000;stroke-width:60;stroke-linecap:round;stroke-linejoin:round;stroke-opacity:1" id="g1698" transform="translate(-33460.422,-30824.972)"><path id="path1700" d="m 46920,35670 200,600 200,-600"/><path id="path1702" d="m 47510,36040 460,0"/></g><g style="fill:#840000;fill-opacity:0;stroke:#840000;stroke-width:100;stroke-linecap:round;stroke-linejoin:round;stroke-opacity:1" id="g1704" transform="translate(-33530.02,-24839.573)"><polyline id="polyline1706" fill="none;" points="46500 36000 46800 36540 48340 36540 48340 36000 48340 35460 46800 35460 46500 36000"/></g><g style="fill:#840000;fill-opacity:0;stroke:#840000;stroke-width:60;stroke-linecap:round;stroke-linejoin:round;stroke-opacity:1" id="g1708" transform="translate(-33443.023,-18801.976)"><path id="path1710" d="m 46920,29670 200,600 200,-600"/><path id="path1712" d="m 47510,30040 460,0"/><path id="path1714" d="m 47740,30270 0,-460"/></g><g style="fill:#840000;fill-opacity:0;stroke:#840000;stroke-width:100;stroke-linecap:round;stroke-linejoin:round;stroke-opacity:1" id="g1716" transform="translate(-33530.02,-24839.573)"><polyline id="polyline1718" fill="none;" points="46500 30000 46800 30540 48340 30540 48340 30000 48340 29460 46800 29460 46500 30000"/></g><g style="fill:#840000;fill-opacity:0;stroke:#840000;stroke-width:100;stroke-linecap:round;stroke-linejoin:round;stroke-opacity:1" id="g1722" transform="translate(-33530.02,-24839.573)"><rect id="rect1724" width="800" height="2000" x="37100" y="31500" rx="0"/></g><g style="fill:#840000;fill-opacity:0;stroke:#840000;stroke-width:60;stroke-linecap:round;stroke-linejoin:round;stroke-opacity:1" id="g1726" transform="translate(-33530.02,-24839.573)"><path id="path1728" d="m 37500,31500 0,-500"/><path id="path1730" d="m 37500,33500 0,500"/></g><g style="fill:#008484;fill-opacity:0;stroke:#008484;stroke-width:60;stroke-linecap:round;stroke-linejoin:round;stroke-opacity:1" id="g1732" transform="translate(-33530.02,-24839.573)"><path id="path1734" d="m 37700,32610 0,280"/><path id="path1736" d="m 37700,32750 -500,0 70,50 50,50 20,40"/><path id="path1738" d="m 37700,32390 -500,0"/><path id="path1740" d="m 37700,32110 -290,210"/><path id="path1742" d="m 37200,32110 280,280"/></g><g style="fill:#840000;fill-opacity:0;stroke:#840000;stroke-width:60;stroke-linecap:round;stroke-linejoin:round;stroke-opacity:1" id="g1744" transform="translate(-33530.02,-24839.573)"><path id="path1746" d="m 39970,27490 90,30 140,0 60,-30 30,-30 30,-50 0,-60 -30,-60 -30,-30 -60,-20 -110,-30 -60,-30 -30,-30 -30,-60 0,-50 30,-60 30,-30 60,-30 140,0 90,30"/><path id="path1748" d="m 40970,27580 -50,-30 -60,-60 -90,-80 -50,-30 -60,0"/><path id="path1750" d="m 40690,27520 -60,-30 -60,-50 -30,-120 0,-200 30,-110 60,-60 60,-30 110,0 60,30 60,60 20,110 0,200 -20,120 -60,50 -60,30 -110,0"/><path id="path1752" d="m 41550,27520 -200,-280"/><path id="path1754" d="m 41200,27520 0,-600 230,0 60,30 30,30 30,60 0,80 -30,60 -30,30 -60,30 -230,0"/><path id="path1756" d="m 42120,27520 -350,0"/><path id="path1758" d="m 41950,27520 0,-600 -60,90 -60,50 -60,30"/></g><g style="fill:#840000;fill-opacity:0;stroke:#840000;stroke-width:100;stroke-linecap:round;stroke-linejoin:round;stroke-opacity:1" id="g1760" transform="translate(-33530.02,-24839.573)"><polyline id="polyline1762" fill="none;" points="39500 27250 39800 27790 42460 27790 42460 27250 42460 26710 39800 26710 39500 27250"/></g><g style="fill:#840000;fill-opacity:0;stroke:#840000;stroke-width:60;stroke-linecap:round;stroke-linejoin:round;stroke-opacity:1" id="g1764" transform="translate(-33530.02,-24839.573)"><path id="path1766" d="m 34270,36700 -60,-30 -90,0 -80,30 -60,60 -30,50 -30,120 0,80 30,120 30,60 60,50 80,30 60,0 90,-30 30,-30 0,-200 -120,0"/><path id="path1768" d="m 34550,37270 0,-600 350,600 0,-600"/><path id="path1770" d="m 35180,37270 0,-600 150,0 80,30 60,60 30,50 30,120 0,80 -30,120 -30,60 -60,50 -80,30 -150,0"/></g><g style="fill:#840000;fill-opacity:0;stroke:#840000;stroke-width:100;stroke-linecap:round;stroke-linejoin:round;stroke-opacity:1" id="g1772" transform="translate(-33530.02,-24839.573)"><polyline id="polyline1774" fill="none;" points="36000 37000 35700 36460 33580 36460 33580 37000 33580 37540 35700 37540 36000 37000"/></g><g style="fill:#840000;fill-opacity:0;stroke:#840000;stroke-width:60;stroke-linecap:round;stroke-linejoin:round;stroke-opacity:1" id="g1776" transform="translate(-33530.02,-24839.573)"><path id="path1778" d="m 52350,33210 -30,30 -90,30 -60,0 -80,-30 -60,-50 -30,-60 -30,-120 0,-80 30,-120 30,-50 60,-60 80,-30 60,0 90,30 30,30"/><path id="path1780" d="m 52600,33270 0,-600"/><path id="path1782" d="m 52600,32960 350,0"/><path id="path1784" d="m 52950,33270 0,-600"/><path id="path1786" d="m 53550,33270 -350,0"/><path id="path1788" d="m 53380,33270 0,-600 -60,90 -60,50 -60,30"/></g><g style="fill:#840000;fill-opacity:0;stroke:#840000;stroke-width:100;stroke-linecap:round;stroke-linejoin:round;stroke-opacity:1" id="g1790" transform="translate(-33530.02,-24839.573)"><polyline id="polyline1792" fill="none;" points="51500 33000 51800 33540 53890 33540 53890 33000 53890 32460 51800 32460 51500 33000"/></g><g style="fill:#ffffc2;fill-opacity:.6;stroke:#ffffc2;stroke-width:0;stroke-linecap:round;stroke-linejoin:round;stroke-opacity:1" id="g1798" transform="translate(-33530.02,-24839.573)"><polyline style="fill-rule:evenodd" id="polyline1800" points="44500 35000 48500 33000 44500 31000 44500 35000"/></g><g style="fill:#840000;fill-opacity:0;stroke:#840000;stroke-width:60;stroke-linecap:round;stroke-linejoin:round;stroke-opacity:1" id="g1804" transform="translate(-33530.02,-24839.573)"><polyline id="polyline1806" fill="none;" points="44500 35000 48500 33000 44500 31000 44500 35000"/><path id="path1808" d="m 45500,31500 0,-1500"/></g><g style="fill:#008484;fill-opacity:0;stroke:#008484;stroke-width:60;stroke-linecap:round;stroke-linejoin:round;stroke-opacity:1" id="g1810" transform="translate(-33530.02,-24839.573)"><path id="path1812" d="m 45280,32400 400,-130 -400,-130"/><path id="path1814" d="m 45530,32000 0,-300"/></g><g style="fill:#840000;fill-opacity:0;stroke:#840000;stroke-width:60;stroke-linecap:round;stroke-linejoin:round;stroke-opacity:1" id="g1816" transform="translate(-33530.02,-24839.573)"><path id="path1818" d="m 45110,30670 270,0"/><path id="path1820" d="m 44960,30770 290,90 0,-240"/><path id="path1822" d="m 45500,34500 0,1500"/></g><g style="fill:#008484;fill-opacity:0;stroke:#008484;stroke-width:60;stroke-linecap:round;stroke-linejoin:round;stroke-opacity:1" id="g1824" transform="translate(-33530.02,-24839.573)"><path id="path1826" d="m 45280,34360 400,-130 -400,-130"/><path id="path1828" d="m 45530,33960 0,-300"/><path id="path1830" d="m 45680,33810 -300,0"/></g><g style="fill:#840000;fill-opacity:0;stroke:#840000;stroke-width:60;stroke-linecap:round;stroke-linejoin:round;stroke-opacity:1" id="g1832" transform="translate(-33530.02,-24839.573)"><path id="path1834" d="m 44980,35380 0,-260 400,170"/><path id="path1836" d="m 44500,32000 -1500,0"/></g><g style="fill:#008484;fill-opacity:0;stroke:#008484;stroke-width:60;stroke-linecap:round;stroke-linejoin:round;stroke-opacity:1" id="g1838" transform="translate(-33530.02,-24839.573)"><path id="path1840" d="m 44700,32030 300,0"/></g><g style="fill:#840000;fill-opacity:0;stroke:#840000;stroke-width:60;stroke-linecap:round;stroke-linejoin:round;stroke-opacity:1" id="g1842" transform="translate(-33530.02,-24839.573)"><path id="path1844" d="m 43640,31520 20,-20 30,-20 100,0 40,20 20,20 10,40 0,40 -10,50 -230,230 240,0"/><path id="path1846" d="m 44500,34000 -1500,0"/></g><g style="fill:#008484;fill-opacity:0;stroke:#008484;stroke-width:60;stroke-linecap:round;stroke-linejoin:round;stroke-opacity:1" id="g1848" transform="translate(-33530.02,-24839.573)"><path id="path1850" d="m 44700,34030 300,0"/><path id="path1852" d="m 44850,34180 0,-300"/></g><g style="fill:#840000;fill-opacity:0;stroke:#840000;stroke-width:60;stroke-linecap:round;stroke-linejoin:round;stroke-opacity:1" id="g1854" transform="translate(-33530.02,-24839.573)"><path id="path1856" d="m 43620,33480 240,0 -130,150 60,0 40,20 20,20 10,40 0,90 -10,40 -20,20 -40,20 -120,0 -30,-20 -20,-20"/><path id="path1858" d="m 48500,33000 1500,0"/><path id="path1860" d="m 49330,32480 -80,0 -40,20 -20,20 -30,60 -20,70 0,150 20,40 10,20 40,20 80,0 40,-20 20,-20 10,-40 0,-90 -10,-40 -20,-20 -40,-20 -80,0 -40,20 -10,20 -20,40"/></g><g style="fill:#840000;fill-opacity:0;stroke:#840000;stroke-width:200;stroke-linecap:round;stroke-linejoin:round;stroke-opacity:1" id="g1864" transform="translate(-33530.02,-24839.573)"><polyline id="polyline1866" fill="none;" points="36700 35800 38300 35800"/><polyline id="polyline1868" fill="none;" points="36700 35200 38300 35200"/></g><g style="fill:#840000;fill-opacity:0;stroke:#840000;stroke-width:60;stroke-linecap:round;stroke-linejoin:round;stroke-opacity:1" id="g1870" transform="translate(-33530.02,-24839.573)"><path id="path1872" d="m 37500,35100 0,-1100"/><path id="path1874" d="m 37500,35900 0,1100"/></g><g style="fill:#008484;fill-opacity:0;stroke:#008484;stroke-width:60;stroke-linecap:round;stroke-linejoin:round;stroke-opacity:1" id="g1876" transform="translate(-33530.02,-24839.573)"><path id="path1878" d="m 38900,36130 20,-20 30,20 -30,20 -20,-20 50,0"/><path id="path1880" d="m 38950,35630 0,280"/><path id="path1882" d="m 38950,35770 -500,0 70,50 50,50 20,40"/><path id="path1884" d="m 38610,35200 340,0"/><path id="path1886" d="m 38610,35410 260,0 50,-20 30,-50 0,-70 -30,-50 -20,-20"/><path id="path1888" d="m 38680,34790 0,170"/><path id="path1890" d="m 38950,34960 -500,0 0,-240"/></g><g style="fill:#0000c2;fill-opacity:0;stroke:#0000c2;stroke-width:60;stroke-linecap:round;stroke-linejoin:round;stroke-opacity:1" id="g1892" transform="translate(-33530.02,-24839.573)"><path id="path1894" d="m 40490,25470 -200,-280"/><path id="path1896" d="m 40140,25470 0,-600 230,0 60,30 30,30 30,60 0,80 -30,60 -30,30 -60,30 -230,0"/><path id="path1898" d="m 41000,25470 0,-310 -30,-60 -60,-30 -110,0 -60,30"/><path id="path1900" d="m 41000,25440 -60,30 -140,0 -60,-30 -30,-50 0,-60 30,-60 60,-30 140,0 60,-30"/><path id="path1902" d="m 41280,25470 0,-400"/><path id="path1904" d="m 41280,25130 30,-30 60,-30 80,0 60,30 30,60 0,310"/><path id="path1906" d="m 41540,25160 30,-60 60,-30 80,0 60,30 30,60 0,310"/><path id="path1908" d="m 42080,25070 0,600"/><path id="path1910" d="m 42080,25100 60,-30 110,0 60,30 30,30 30,60 0,170 -30,50 -30,30 -60,30 -110,0 -60,-30"/><path id="path1912" d="m 43400,24900 -60,-30 -90,0 -80,30 -60,60 -30,50 -30,120 0,80 30,120 30,60 60,50 80,30 60,0 90,-30 30,-30 0,-200 -120,0"/><path id="path1914" d="m 43910,25440 -60,30 -110,0 -60,-30 -30,-50 0,-230 30,-60 60,-30 110,0 60,30 30,60 0,50 -290,60"/><path id="path1916" d="m 44190,25070 0,400"/><path id="path1918" d="m 44190,25130 30,-30 60,-30 80,0 60,30 30,60 0,310"/><path id="path1920" d="m 44960,25440 -60,30 -110,0 -60,-30 -30,-50 0,-230 30,-60 60,-30 110,0 60,30 30,60 0,50 -290,60"/><path id="path1922" d="m 45240,25470 0,-400"/><path id="path1924" d="m 45240,25190 30,-60 30,-30 60,-30 50,0"/><path id="path1926" d="m 45870,25470 0,-310 -30,-60 -60,-30 -110,0 -60,30"/><path id="path1928" d="m 45870,25440 -60,30 -140,0 -60,-30 -30,-50 0,-60 30,-60 60,-30 140,0 60,-30"/><path id="path1930" d="m 46070,25070 230,0"/><path id="path1932" d="m 46150,24870 0,520 30,50 60,30 60,0"/><path id="path1934" d="m 46580,25470 -60,-30 -30,-30 -30,-50 0,-170 30,-60 30,-30 60,-30 80,0 60,30 30,30 30,60 0,170 -30,50 -30,30 -60,30 -80,0"/><path id="path1936" d="m 47030,25470 0,-400"/><path id="path1938" d="m 47030,25190 30,-60 30,-30 60,-30 50,0"/></g><g style="fill:#840000;fill-opacity:0;stroke:#840000;stroke-width:100;stroke-linecap:round;stroke-linejoin:round;stroke-opacity:1" id="g1944" transform="translate(-33530.02,-24839.573)"><rect id="rect1946" width="800" height="2000" x="37100" y="27750" rx="0"/></g><g style="fill:#840000;fill-opacity:0;stroke:#840000;stroke-width:60;stroke-linecap:round;stroke-linejoin:round;stroke-opacity:1" id="g1948" transform="translate(-33530.02,-24839.573)"><path id="path1950" d="m 37500,27750 0,-500"/><path id="path1952" d="m 37500,29750 0,500"/></g><g style="fill:#008484;fill-opacity:0;stroke:#008484;stroke-width:60;stroke-linecap:round;stroke-linejoin:round;stroke-opacity:1" id="g1954" transform="translate(-33530.02,-24839.573)"><path id="path1956" d="m 37700,29100 0,280"/><path id="path1958" d="m 37700,29240 -500,0 70,50 50,50 20,40"/><path id="path1960" d="m 37200,28790 0,-50 20,-50 20,-20 50,-30 100,-20 120,0 90,20 50,30 20,20 30,50 0,50 -30,40 -20,30 -50,20 -90,20 -120,0 -100,-20 -50,-20 -20,-30 -20,-40"/><path id="path1962" d="m 37700,28400 -500,0"/><path id="path1964" d="m 37700,28120 -290,210"/><path id="path1966" d="m 37200,28120 280,280"/></g><g style="fill:#840000;fill-opacity:0;stroke:#840000;stroke-width:80;stroke-linecap:round;stroke-linejoin:round;stroke-opacity:1" id="g1972" transform="translate(-33530.02,-24839.573)"><polyline id="polyline1974" fill="none;" points="40300 29750 40500 29950 40500 30550 40700 30750 40700 30750"/></g><g style="fill:#840000;fill-opacity:1;stroke:#840000;stroke-width:60;stroke-linecap:round;stroke-linejoin:round;stroke-opacity:1" id="g1976" transform="translate(-33530.02,-24839.573)"><polyline style="fill-rule:evenodd" id="polyline1978" points="40500 30250 41500 29750 41500 30750 40500 30250 40500 30250"/></g><g style="fill:#840000;fill-opacity:0;stroke:#840000;stroke-width:60;stroke-linecap:round;stroke-linejoin:round;stroke-opacity:1" id="g1980" transform="translate(-33530.02,-24839.573)"><path id="path1982" d="m 40500,30250 -1500,0"/><path id="path1984" d="m 41500,30250 1500,0"/></g><g style="fill:#008484;fill-opacity:0;stroke:#008484;stroke-width:60;stroke-linecap:round;stroke-linejoin:round;stroke-opacity:1" id="g1986" transform="translate(-33530.02,-24839.573)"><path id="path1988" d="m 40260,28950 310,0 -170,190 80,0 40,20 30,20 20,50 0,120 -20,50 -30,20 -40,30 -150,0 -40,-30 -30,-20"/><path id="path1990" d="m 40790,29400 20,20 -20,30 -20,-30 20,-20 0,50"/><path id="path1992" d="m 40980,28950 310,0 -170,190 80,0 40,20 30,20 20,50 0,120 -20,50 -30,20 -40,30 -150,0 -40,-30 -30,-20"/><path id="path1994" d="m 41440,28950 160,500 170,-500"/></g><g style="fill:#840000;fill-opacity:0;stroke:#840000;stroke-width:80;stroke-linecap:round;stroke-linejoin:round;stroke-opacity:1" id="g2000" transform="translate(-33530.02,-24839.573)"><polyline id="polyline2002" fill="none;" points="41700 32500 41500 32300 41500 31700 41300 31500 41300 31500"/></g><g style="fill:#840000;fill-opacity:1;stroke:#840000;stroke-width:60;stroke-linecap:round;stroke-linejoin:round;stroke-opacity:1" id="g2004" transform="translate(-33530.02,-24839.573)"><polyline style="fill-rule:evenodd" id="polyline2006" points="41500 32000 40500 32500 40500 31500 41500 32000 41500 32000"/></g><g style="fill:#840000;fill-opacity:0;stroke:#840000;stroke-width:60;stroke-linecap:round;stroke-linejoin:round;stroke-opacity:1" id="g2008" transform="translate(-33530.02,-24839.573)"><path id="path2010" d="m 41500,32000 1500,0"/><path id="path2012" d="m 40500,32000 -1500,0"/></g><g style="fill:#008484;fill-opacity:0;stroke:#008484;stroke-width:60;stroke-linecap:round;stroke-linejoin:round;stroke-opacity:1" id="g2014" transform="translate(-33530.02,-24839.573)"><path id="path2016" d="m 40250,32760 310,0 -170,190 80,0 40,20 30,20 20,50 0,120 -20,50 -30,20 -40,30 -150,0 -40,-30 -30,-20"/><path id="path2018" d="m 40780,33210 20,20 -20,30 -20,-30 20,-20 0,50"/><path id="path2020" d="m 40970,32760 310,0 -170,190 80,0 40,20 30,20 20,50 0,120 -20,50 -30,20 -40,30 -150,0 -40,-30 -30,-20"/><path id="path2022" d="m 41430,32760 160,500 170,-500"/></g><g style="fill:#008400;fill-opacity:0;stroke:#008400;stroke-width:60;stroke-linecap:round;stroke-linejoin:round;stroke-opacity:1" id="g2282" transform="translate(-33530.02,-24839.573)"><path id="path2312" d="m 46500,36000 -1000,0"/><path id="path2314" d="m 46500,30000 -1000,0"/><path id="path2316" d="m 50000,33000 1500,0"/></g><g style="fill:#008400;fill-opacity:1;stroke:#008400;stroke-width:100;stroke-linecap:round;stroke-linejoin:round;stroke-opacity:1" id="g2320" transform="translate(-33530.02,-24839.573)"><circle id="circle2322" cx="50250" cy="33000" r="200"/></g><g style="fill:#008400;fill-opacity:0;stroke:#008400;stroke-width:60;stroke-linecap:round;stroke-linejoin:round;stroke-opacity:1" id="g2326" transform="translate(-33530.02,-24839.573)"><path id="path2328" d="m 43000,29000 0,3000"/><path id="path2330" d="m 50250,29000 0,4000"/><path id="path2332" d="m 39000,32000 0,-1750"/><path id="path2334" d="m 37500,31000 0,-750"/><path id="path2336" d="m 37500,30250 1500,0"/><path id="path2338" d="m 36000,37000 1500,0"/><path id="path2340" d="m 43000,29000 7250,0"/><path id="path2342" d="m 43000,34000 -5500,0"/><path id="path2344" d="m 39500,27250 -2000,0"/></g></svg>