<svg xmlns="http://www.w3.org/2000/svg" xmlns:svg="http://www.w3.org/2000/svg" id="svg5836" width="85.248" height="57.971" version="1.1" viewBox="0 0 79.92 54.348"><metadata id="metadata5841"/><g id="layer1" transform="translate(-132.41523,-674.4885)"><g style="fill:#840000;fill-opacity:0;stroke:#840000;stroke-width:60;stroke-linecap:round;stroke-linejoin:round;stroke-opacity:1" id="g202" transform="matrix(0.00899999,0,0,0.00899999,70.855299,470.53672)"><path id="path204" d="m 7260,24770 0,-600 230,0 60,30 30,30 30,60 0,80 -30,60 -30,30 -60,30 -230,0"/><path id="path206" d="m 8210,24710 -30,30 -90,30 -60,0 -80,-30 -60,-50 -30,-60 -30,-120 0,-80 30,-120 30,-50 60,-60 80,-30 60,0 90,30 30,30"/><path id="path208" d="m 8430,24740 90,30 140,0 60,-30 30,-30 30,-50 0,-60 -30,-60 -30,-30 -60,-20 -110,-30 -60,-30 -30,-30 -30,-60 0,-50 30,-60 30,-30 60,-30 140,0 90,30"/></g><g style="fill:#840000;fill-opacity:0;stroke:#840000;stroke-width:100;stroke-linecap:round;stroke-linejoin:round;stroke-opacity:1" id="g210" transform="matrix(0.00899999,0,0,0.00899999,70.855299,470.53672)"><polyline id="polyline212" fill="none;" points="9250 24500 8950 23960 6890 23960 6890 24500 6890 25040 8950 25040 9250 24500"/></g><g style="fill:#840000;fill-opacity:0;stroke:#840000;stroke-width:60;stroke-linecap:round;stroke-linejoin:round;stroke-opacity:1" id="g214" transform="matrix(0.00899999,0,0,0.00899999,70.855299,470.53672)"><path id="path216" d="m 14100,24710 -30,30 -90,30 -60,0 -80,-30 -60,-50 -30,-60 -30,-120 0,-80 30,-120 30,-50 60,-60 80,-30 60,0 90,30 30,30"/><path id="path218" d="m 14350,24770 0,-600"/><path id="path220" d="m 14350,24460 350,0"/><path id="path222" d="m 14700,24770 0,-600"/><path id="path224" d="m 15300,24770 -350,0"/><path id="path226" d="m 15130,24770 0,-600 -60,90 -60,50 -60,30"/></g><g style="fill:#840000;fill-opacity:0;stroke:#840000;stroke-width:100;stroke-linecap:round;stroke-linejoin:round;stroke-opacity:1" id="g228" transform="matrix(0.00899999,0,0,0.00899999,70.855299,470.53672)"><polyline id="polyline230" fill="none;" points="13250 24500 13550 25040 15640 25040 15640 24500 15640 23960 13550 23960 13250 24500"/></g><g style="fill:#840000;fill-opacity:0;stroke:#840000;stroke-width:60;stroke-linecap:round;stroke-linejoin:round;stroke-opacity:1" id="g232" transform="matrix(0.00899999,0,0,0.00899999,70.855299,470.53672)"><path id="path234" d="m 14070,26950 -60,-30 -90,0 -80,30 -60,60 -30,50 -30,120 0,80 30,120 30,60 60,50 80,30 60,0 90,-30 30,-30 0,-200 -120,0"/><path id="path236" d="m 14350,27520 0,-600 350,600 0,-600"/><path id="path238" d="m 14980,27520 0,-600 150,0 80,30 60,60 30,50 30,120 0,80 -30,120 -30,60 -60,50 -80,30 -150,0"/></g><g style="fill:#840000;fill-opacity:0;stroke:#840000;stroke-width:100;stroke-linecap:round;stroke-linejoin:round;stroke-opacity:1" id="g240" transform="matrix(0.00899999,0,0,0.00899999,70.855299,470.53672)"><polyline id="polyline242" fill="none;" points="13250 27250 13550 27790 15670 27790 15670 27250 15670 26710 13550 26710 13250 27250"/></g><g style="fill:#840000;fill-opacity:0;stroke:#840000;stroke-width:100;stroke-linecap:round;stroke-linejoin:round;stroke-opacity:1" id="g246" transform="matrix(0.00899999,0,0,0.00899999,70.855299,470.53672)"><rect id="rect248" width="2000" height="800" x="10250" y="27850" rx="0"/></g><g style="fill:#840000;fill-opacity:0;stroke:#840000;stroke-width:60;stroke-linecap:round;stroke-linejoin:round;stroke-opacity:1" id="g250" transform="matrix(0.00899999,0,0,0.00899999,70.855299,470.53672)"><path id="path252" d="m 12250,28250 500,0"/><path id="path254" d="m 10250,28250 -500,0"/></g><g style="fill:#008484;fill-opacity:0;stroke:#008484;stroke-width:60;stroke-linecap:round;stroke-linejoin:round;stroke-opacity:1" id="g256" transform="matrix(0.00899999,0,0,0.00899999,70.855299,470.53672)"><path id="path258" d="m 10660,28450 -280,0"/><path id="path260" d="m 10520,28450 0,-500 -50,70 -50,50 -40,20"/><path id="path262" d="m 10970,27950 50,0 50,20 20,20 30,50 20,100 0,120 -20,90 -30,50 -20,20 -50,30 -50,0 -40,-30 -30,-20 -20,-50 -20,-90 0,-120 20,-100 20,-50 30,-20 40,-20"/><path id="path264" d="m 11450,27950 50,0 50,20 20,20 30,50 20,100 0,120 -20,90 -30,50 -20,20 -50,30 -50,0 -40,-30 -30,-20 -20,-50 -20,-90 0,-120 20,-100 20,-50 30,-20 40,-20"/><path id="path266" d="m 12120,28450 -160,-240"/><path id="path268" d="m 11840,28450 0,-500 190,0 50,20 20,20 20,50 0,70 -20,50 -20,20 -50,30 -190,0"/></g><g style="fill:#840000;fill-opacity:0;stroke:#840000;stroke-width:100;stroke-linecap:round;stroke-linejoin:round;stroke-opacity:1" id="g274" transform="matrix(0.00899999,0,0,0.00899999,70.855299,470.53672)"><rect id="rect276" width="2000" height="800" x="10250" y="26100" rx="0"/></g><g style="fill:#840000;fill-opacity:0;stroke:#840000;stroke-width:60;stroke-linecap:round;stroke-linejoin:round;stroke-opacity:1" id="g278" transform="matrix(0.00899999,0,0,0.00899999,70.855299,470.53672)"><path id="path280" d="m 10250,26500 -500,0"/><path id="path282" d="m 12250,26500 500,0"/></g><g style="fill:#008484;fill-opacity:0;stroke:#008484;stroke-width:60;stroke-linecap:round;stroke-linejoin:round;stroke-opacity:1" id="g284" transform="matrix(0.00899999,0,0,0.00899999,70.855299,470.53672)"><path id="path286" d="m 10660,26760 -280,0"/><path id="path288" d="m 10520,26760 0,-500 -50,70 -50,50 -40,20"/><path id="path290" d="m 10970,26260 50,0 50,20 20,20 30,50 20,100 0,120 -20,90 -30,50 -20,20 -50,30 -50,0 -40,-30 -30,-20 -20,-50 -20,-90 0,-120 20,-100 20,-50 30,-20 40,-20"/><path id="path292" d="m 11450,26260 50,0 50,20 20,20 30,50 20,100 0,120 -20,90 -30,50 -20,20 -50,30 -50,0 -40,-30 -30,-20 -20,-50 -20,-90 0,-120 20,-100 20,-50 30,-20 40,-20"/><path id="path294" d="m 12120,26760 -160,-240"/><path id="path296" d="m 11840,26760 0,-500 190,0 50,20 20,20 20,50 0,70 -20,50 -20,20 -50,30 -190,0"/></g><g style="fill:#0000c2;fill-opacity:0;stroke:#0000c2;stroke-width:60;stroke-linecap:round;stroke-linejoin:round;stroke-opacity:1" id="g298" transform="matrix(0.00899999,0,0,0.00899999,58.228392,410.43264)"><path id="path328" d="m 10240,29970 -200,-280"/><path id="path330" d="m 9890,29970 0,-600 230,0 60,30 30,30 30,60 0,80 -30,60 -30,30 -60,30 -230,0"/><path id="path332" d="m 10950,29970 0,-400"/><path id="path334" d="m 10950,29370 -30,30 30,30 30,-30 -30,-30 0,60"/><path id="path336" d="m 11240,29570 0,400"/><path id="path338" d="m 11240,29630 30,-30 60,-30 80,0 60,30 30,60 0,310"/><path id="path340" d="m 12240,29570 0,600"/><path id="path342" d="m 12240,29600 60,-30 110,0 60,30 30,30 30,60 0,170 -30,50 -30,30 -60,30 -110,0 -60,-30"/><path id="path344" d="m 13040,29970 0,-310 -30,-60 -60,-30 -110,0 -60,30"/><path id="path346" d="m 13040,29940 -60,30 -140,0 -60,-30 -30,-50 0,-60 30,-60 60,-30 140,0 60,-30"/><path id="path348" d="m 13320,29970 0,-400"/><path id="path350" d="m 13320,29690 30,-60 30,-30 60,-30 50,0"/><path id="path352" d="m 13950,29970 0,-310 -30,-60 -60,-30 -110,0 -60,30"/><path id="path354" d="m 13950,29940 -60,30 -140,0 -60,-30 -30,-50 0,-60 30,-60 60,-30 140,0 60,-30"/><path id="path356" d="m 14320,29970 -60,-30 -30,-50 0,-520"/><path id="path358" d="m 14630,29970 -60,-30 -30,-50 0,-520"/><path id="path360" d="m 15080,29940 -60,30 -110,0 -60,-30 -30,-50 0,-230 30,-60 60,-30 110,0 60,30 30,60 0,50 -290,60"/><path id="path362" d="m 15450,29970 -60,-30 -30,-50 0,-520"/></g><g style="fill:#008400;fill-opacity:0;stroke:#008400;stroke-width:60;stroke-linecap:round;stroke-linejoin:round;stroke-opacity:1" id="g952" transform="matrix(0.00899999,0,0,0.00899999,70.855299,470.53672)"><path id="path968" d="m 13250,24500 -4000,0"/><path id="path970" d="m 9250,24500 0,2750"/><path id="path972" d="m 12750,28250 0,-1750"/><path id="path974" d="m 13250,27250 -500,0"/></g><g style="fill:#008400;fill-opacity:1;stroke:#008400;stroke-width:100;stroke-linecap:round;stroke-linejoin:round;stroke-opacity:1" id="g978" transform="matrix(0.00899999,0,0,0.00899999,70.855299,470.53672)"><circle id="circle980" cx="12750" cy="27250" r="200"/></g><g style="fill:#008400;fill-opacity:0;stroke:#008400;stroke-width:60;stroke-linecap:round;stroke-linejoin:round;stroke-opacity:1" id="g984" transform="matrix(0.00899999,0,0,0.00899999,70.855299,470.53672)"><path id="path986" d="m 9750,26500 0,1750"/><path id="path988" d="m 9250,27250 500,0"/></g><g style="fill:#008400;fill-opacity:1;stroke:#008400;stroke-width:100;stroke-linecap:round;stroke-linejoin:round;stroke-opacity:1" id="g992" transform="matrix(0.00899999,0,0,0.00899999,70.855299,470.53672)"><circle id="circle994" cx="9750" cy="27250" r="200"/></g></g></svg>