<svg xmlns="http://www.w3.org/2000/svg" xmlns:svg="http://www.w3.org/2000/svg" id="svg5836" width="85.248" height="47.328" version="1.1" viewBox="0 0 79.92 44.37"><metadata id="metadata5841"/><g id="layer1" transform="translate(-132.41523,-620.47655)"><g style="fill:#840000;fill-opacity:0;stroke:#840000;stroke-width:60;stroke-linecap:round;stroke-linejoin:round;stroke-opacity:1" id="g106" transform="matrix(0.00899999,0,0,0.00899999,70.855299,470.53672)"><path id="path108" d="m 7260,17520 0,-600 230,0 60,30 30,30 30,60 0,80 -30,60 -30,30 -60,30 -230,0"/><path id="path110" d="m 8210,17460 -30,30 -90,30 -60,0 -80,-30 -60,-50 -30,-60 -30,-120 0,-80 30,-120 30,-50 60,-60 80,-30 60,0 90,30 30,30"/><path id="path112" d="m 8430,17490 90,30 140,0 60,-30 30,-30 30,-50 0,-60 -30,-60 -30,-30 -60,-20 -110,-30 -60,-30 -30,-30 -30,-60 0,-50 30,-60 30,-30 60,-30 140,0 90,30"/></g><g style="fill:#840000;fill-opacity:0;stroke:#840000;stroke-width:100;stroke-linecap:round;stroke-linejoin:round;stroke-opacity:1" id="g114" transform="matrix(0.00899999,0,0,0.00899999,70.855299,470.53672)"><polyline id="polyline116" fill="none;" points="9250 17250 8950 16710 6890 16710 6890 17250 6890 17790 8950 17790 9250 17250"/></g><g style="fill:#840000;fill-opacity:0;stroke:#840000;stroke-width:60;stroke-linecap:round;stroke-linejoin:round;stroke-opacity:1" id="g118" transform="matrix(0.00899999,0,0,0.00899999,70.855299,470.53672)"><path id="path120" d="m 14100,17460 -30,30 -90,30 -60,0 -80,-30 -60,-50 -30,-60 -30,-120 0,-80 30,-120 30,-50 60,-60 80,-30 60,0 90,30 30,30"/><path id="path122" d="m 14350,17520 0,-600"/><path id="path124" d="m 14350,17210 350,0"/><path id="path126" d="m 14700,17520 0,-600"/><path id="path128" d="m 15300,17520 -350,0"/><path id="path130" d="m 15130,17520 0,-600 -60,90 -60,50 -60,30"/></g><g style="fill:#840000;fill-opacity:0;stroke:#840000;stroke-width:100;stroke-linecap:round;stroke-linejoin:round;stroke-opacity:1" id="g132" transform="matrix(0.00899999,0,0,0.00899999,70.855299,470.53672)"><polyline id="polyline134" fill="none;" points="13250 17250 13550 17790 15640 17790 15640 17250 15640 16710 13550 16710 13250 17250"/></g><g style="fill:#840000;fill-opacity:0;stroke:#840000;stroke-width:60;stroke-linecap:round;stroke-linejoin:round;stroke-opacity:1" id="g136" transform="matrix(0.00899999,0,0,0.00899999,70.855299,470.53672)"><path id="path138" d="m 14070,20700 -60,-30 -90,0 -80,30 -60,60 -30,50 -30,120 0,80 30,120 30,60 60,50 80,30 60,0 90,-30 30,-30 0,-200 -120,0"/><path id="path140" d="m 14350,21270 0,-600 350,600 0,-600"/><path id="path142" d="m 14980,21270 0,-600 150,0 80,30 60,60 30,50 30,120 0,80 -30,120 -30,60 -60,50 -80,30 -150,0"/></g><g style="fill:#840000;fill-opacity:0;stroke:#840000;stroke-width:100;stroke-linecap:round;stroke-linejoin:round;stroke-opacity:1" id="g144" transform="matrix(0.00899999,0,0,0.00899999,70.855299,470.53672)"><polyline id="polyline146" fill="none;" points="13250 21000 13550 21540 15670 21540 15670 21000 15670 20460 13550 20460 13250 21000"/></g><g style="fill:#840000;fill-opacity:0;stroke:#840000;stroke-width:100;stroke-linecap:round;stroke-linejoin:round;stroke-opacity:1" id="g150" transform="matrix(0.00899999,0,0,0.00899999,70.855299,470.53672)"><rect id="rect152" width="2000" height="800" x="10250" y="20600" rx="0"/></g><g style="fill:#840000;fill-opacity:0;stroke:#840000;stroke-width:60;stroke-linecap:round;stroke-linejoin:round;stroke-opacity:1" id="g154" transform="matrix(0.00899999,0,0,0.00899999,70.855299,470.53672)"><path id="path156" d="m 12250,21000 500,0"/><path id="path158" d="m 10250,21000 -500,0"/></g><g style="fill:#008484;fill-opacity:0;stroke:#008484;stroke-width:60;stroke-linecap:round;stroke-linejoin:round;stroke-opacity:1" id="g160" transform="matrix(0.00899999,0,0,0.00899999,70.855299,470.53672)"><path id="path162" d="m 10660,21200 -280,0"/><path id="path164" d="m 10520,21200 0,-500 -50,70 -50,50 -40,20"/><path id="path166" d="m 10970,20700 50,0 50,20 20,20 30,50 20,100 0,120 -20,90 -30,50 -20,20 -50,30 -50,0 -40,-30 -30,-20 -20,-50 -20,-90 0,-120 20,-100 20,-50 30,-20 40,-20"/><path id="path168" d="m 11450,20700 50,0 50,20 20,20 30,50 20,100 0,120 -20,90 -30,50 -20,20 -50,30 -50,0 -40,-30 -30,-20 -20,-50 -20,-90 0,-120 20,-100 20,-50 30,-20 40,-20"/><path id="path170" d="m 12120,21200 -160,-240"/><path id="path172" d="m 11840,21200 0,-500 190,0 50,20 20,20 20,50 0,70 -20,50 -20,20 -50,30 -190,0"/></g><g style="fill:#840000;fill-opacity:0;stroke:#840000;stroke-width:100;stroke-linecap:round;stroke-linejoin:round;stroke-opacity:1" id="g178" transform="matrix(0.00899999,0,0,0.00899999,70.855299,470.53672)"><rect id="rect180" width="800" height="2000" x="8850" y="18500" rx="0"/></g><g style="fill:#840000;fill-opacity:0;stroke:#840000;stroke-width:60;stroke-linecap:round;stroke-linejoin:round;stroke-opacity:1" id="g182" transform="matrix(0.00899999,0,0,0.00899999,70.855299,470.53672)"><path id="path184" d="m 9250,20500 0,500"/><path id="path186" d="m 9250,18500 0,-500"/></g><g style="fill:#008484;fill-opacity:0;stroke:#008484;stroke-width:60;stroke-linecap:round;stroke-linejoin:round;stroke-opacity:1" id="g188" transform="matrix(0.00899999,0,0,0.00899999,70.855299,470.53672)"><path id="path190" d="m 9510,20090 0,280"/><path id="path192" d="m 9510,20230 -500,0 70,50 50,50 20,40"/><path id="path194" d="m 9010,19780 0,-50 20,-50 20,-20 50,-30 100,-20 120,0 90,20 50,30 20,20 30,50 0,50 -30,40 -20,30 -50,20 -90,20 -120,0 -100,-20 -50,-20 -20,-30 -20,-40"/><path id="path196" d="m 9010,19300 0,-50 20,-50 20,-20 50,-30 100,-20 120,0 90,20 50,30 20,20 30,50 0,50 -30,40 -20,30 -50,20 -90,20 -120,0 -100,-20 -50,-20 -20,-30 -20,-40"/><path id="path198" d="m 9510,18630 -240,160"/><path id="path200" d="m 9510,18910 -500,0 0,-190 20,-50 20,-20 50,-20 70,0 50,20 20,20 30,50 0,190"/></g><g style="fill:#0000c2;fill-opacity:0;stroke:#0000c2;stroke-width:60;stroke-linecap:round;stroke-linejoin:round;stroke-opacity:1" id="g298" transform="matrix(0.00899999,0,0,0.00899999,70.855299,470.53672)"><path id="path300" d="m 10740,19470 -200,-280"/><path id="path302" d="m 10390,19470 0,-600 230,0 60,30 30,30 30,60 0,80 -30,60 -30,30 -60,30 -230,0"/><path id="path304" d="m 11450,19470 0,-400"/><path id="path306" d="m 11450,18870 -30,30 30,30 30,-30 -30,-30 0,60"/><path id="path308" d="m 11740,19070 0,400"/><path id="path310" d="m 11740,19130 30,-30 60,-30 80,0 60,30 30,60 0,310"/><path id="path312" d="m 12710,19440 60,30 120,0 50,-30 30,-50 0,-30 -30,-60 -50,-30 -90,0 -60,-30 -30,-50 0,-30 30,-60 60,-30 90,0 50,30"/><path id="path314" d="m 13460,19440 -60,30 -110,0 -60,-30 -30,-50 0,-230 30,-60 60,-30 110,0 60,30 30,60 0,50 -290,60"/><path id="path316" d="m 13740,19470 0,-400"/><path id="path318" d="m 13740,19190 30,-60 30,-30 60,-30 50,0"/><path id="path320" d="m 14110,19470 0,-400"/><path id="path322" d="m 14110,18870 -30,30 30,30 30,-30 -30,-30 0,60"/><path id="path324" d="m 14630,19440 -60,30 -110,0 -60,-30 -30,-50 0,-230 30,-60 60,-30 110,0 60,30 30,60 0,50 -290,60"/><path id="path326" d="m 14880,19440 60,30 120,0 50,-30 30,-50 0,-30 -30,-60 -50,-30 -90,0 -60,-30 -30,-50 0,-30 30,-60 60,-30 90,0 50,30"/></g><g style="fill:#008400;fill-opacity:0;stroke:#008400;stroke-width:60;stroke-linecap:round;stroke-linejoin:round;stroke-opacity:1" id="g952" transform="matrix(0.00899999,0,0,0.00899999,70.855299,470.53672)"><path id="path960" d="m 13250,17250 -4000,0"/><path id="path962" d="m 9250,17250 0,750"/><path id="path964" d="m 9750,21000 -500,0"/><path id="path966" d="m 13250,21000 -500,0"/></g></g></svg>