<svg xmlns="http://www.w3.org/2000/svg" xmlns:svg="http://www.w3.org/2000/svg" id="svg6592" width="118.56" height="16.032" version="1.1" viewBox="0 0 111.15 15.03"><metadata id="metadata6597"/><g id="layer1" transform="translate(-287.2822,-453.41864)"><path style="fill:#840000;fill-opacity:0;stroke:#840000;stroke-width:.53999943;stroke-linecap:round;stroke-linejoin:round;stroke-opacity:1" id="path922" d="m 381.2421,465.29863 0.81,0.27 1.26,0 0.54,-0.27 0.27,-0.27 0.27,-0.45 0,-0.54 -0.27,-0.54 -0.27,-0.27 -0.54,-0.18 -0.99,-0.27 -0.54,-0.27 -0.27,-0.27 -0.27,-0.54 0,-0.45 0.27,-0.54 0.27,-0.27 0.54,-0.27 1.26,0 0.81,0.27"/><path style="fill:#840000;fill-opacity:0;stroke:#840000;stroke-width:.53999943;stroke-linecap:round;stroke-linejoin:round;stroke-opacity:1" id="path924" d="m 386.64209,462.77863 1.8,0"/><path style="fill:#840000;fill-opacity:0;stroke:#840000;stroke-width:.53999943;stroke-linecap:round;stroke-linejoin:round;stroke-opacity:1" id="path926" d="m 389.25209,465.56863 -2.61,0 0,-5.4 2.61,0"/><path style="fill:#840000;fill-opacity:0;stroke:#840000;stroke-width:.53999943;stroke-linecap:round;stroke-linejoin:round;stroke-opacity:1" id="path928" d="m 391.50208,465.56863 0,-5.4 3.15,5.4 0,-5.4"/><polyline style="fill:#840000;fill-opacity:0;stroke:#840000;stroke-width:100;stroke-linecap:round;stroke-linejoin:round;stroke-opacity:1" id="polyline932" points="21000 39000 21300 39540 23330 39540 23330 39000 23330 38460 21300 38460 21000 39000" transform="matrix(0.00899999,0,0,0.00899999,188.01231,112.13902)"/><path style="fill:#840000;fill-opacity:0;stroke:#840000;stroke-width:.53999943;stroke-linecap:round;stroke-linejoin:round;stroke-opacity:1" id="path936" d="m 293.9422,460.43863 -0.54,-0.27 -0.81,0 -0.72,0.27 -0.54,0.54 -0.27,0.45 -0.27,1.08 0,0.72 0.27,1.08 0.27,0.54 0.54,0.45 0.72,0.27 0.54,0 0.81,-0.27 0.27,-0.27 0,-1.8 -1.08,0"/><path style="fill:#840000;fill-opacity:0;stroke:#840000;stroke-width:.53999943;stroke-linecap:round;stroke-linejoin:round;stroke-opacity:1" id="path938" d="m 296.46219,465.56863 0,-5.4 3.15,5.4 0,-5.4"/><path style="fill:#840000;fill-opacity:0;stroke:#840000;stroke-width:.53999943;stroke-linecap:round;stroke-linejoin:round;stroke-opacity:1" id="path940" d="m 302.13219,465.56863 0,-5.4 1.35,0 0.72,0.27 0.54,0.54 0.26999,0.45 0.27,1.08 0,0.72 -0.27,1.08 -0.26999,0.54 -0.54,0.45 -0.72,0.27 -1.35,0"/><polyline style="fill:#840000;fill-opacity:0;stroke:#840000;stroke-width:100;stroke-linecap:round;stroke-linejoin:round;stroke-opacity:1" id="polyline944" points="13500 39000 13200 38460 11080 38460 11080 39000 11080 39540 13200 39540 13500 39000" transform="matrix(0.00899999,0,0,0.00899999,188.01231,112.13902)"/><rect style="fill:#840000;fill-opacity:0;stroke:#840000;stroke-width:.89999902;stroke-linecap:round;stroke-linejoin:round;stroke-opacity:1" id="rect950" width="18" height="7.2" x="318.512" y="459.539" rx="0"/><path style="fill:#840000;fill-opacity:0;stroke:#840000;stroke-width:.53999943;stroke-linecap:round;stroke-linejoin:round;stroke-opacity:1" id="path954" d="m 336.51215,463.13863 4.49999,0"/><path style="fill:#840000;fill-opacity:0;stroke:#840000;stroke-width:.53999943;stroke-linecap:round;stroke-linejoin:round;stroke-opacity:1" id="path956" d="m 318.51217,463.13863 -4.5,0"/><path style="fill:#008484;fill-opacity:0;stroke:#008484;stroke-width:.53999943;stroke-linecap:round;stroke-linejoin:round;stroke-opacity:1" id="path968" d="m 324.36216,464.93863 -2.51999,0"/><path style="fill:#008484;fill-opacity:0;stroke:#008484;stroke-width:.53999943;stroke-linecap:round;stroke-linejoin:round;stroke-opacity:1" id="path970" d="m 323.10216,464.93863 0,-4.5 -0.44999,0.63 -0.45,0.45 -0.36,0.18"/><path style="fill:#008484;fill-opacity:0;stroke:#008484;stroke-width:.53999943;stroke-linecap:round;stroke-linejoin:round;stroke-opacity:1" id="path972" d="m 327.15216,460.43863 0.45,0 0.45,0.18 0.18,0.18 0.27,0.45 0.18,0.9 0,1.08 -0.18,0.81 -0.27,0.45 -0.18,0.18 -0.45,0.27 -0.45,0 -0.36,-0.27 -0.27,-0.18 -0.18,-0.45 -0.18,-0.81 0,-1.08 0.18,-0.9 0.18,-0.45 0.27,-0.18 0.36,-0.18"/><path style="fill:#008484;fill-opacity:0;stroke:#008484;stroke-width:.53999943;stroke-linecap:round;stroke-linejoin:round;stroke-opacity:1" id="path974" d="m 330.66216,464.93863 0,-4.5"/><path style="fill:#008484;fill-opacity:0;stroke:#008484;stroke-width:.53999943;stroke-linecap:round;stroke-linejoin:round;stroke-opacity:1" id="path976" d="m 333.18215,464.93863 -1.88999,-2.61"/><path style="fill:#008484;fill-opacity:0;stroke:#008484;stroke-width:.53999943;stroke-linecap:round;stroke-linejoin:round;stroke-opacity:1" id="path978" d="m 333.18215,460.43863 -2.51999,2.52"/><rect style="fill:#840000;fill-opacity:0;stroke:#840000;stroke-width:.89999902;stroke-linecap:round;stroke-linejoin:round;stroke-opacity:1" id="rect986" width="18" height="7.2" x="350.012" y="459.539" rx="0"/><path style="fill:#840000;fill-opacity:0;stroke:#840000;stroke-width:.53999943;stroke-linecap:round;stroke-linejoin:round;stroke-opacity:1" id="path990" d="m 368.01211,463.13863 4.5,0"/><path style="fill:#840000;fill-opacity:0;stroke:#840000;stroke-width:.53999943;stroke-linecap:round;stroke-linejoin:round;stroke-opacity:1" id="path992" d="m 350.01213,463.13863 -4.49999,0"/><path style="fill:#008484;fill-opacity:0;stroke:#008484;stroke-width:.53999943;stroke-linecap:round;stroke-linejoin:round;stroke-opacity:1" id="path996" d="m 353.70213,458.18864 -1.44,-2.16"/><path style="fill:#008484;fill-opacity:0;stroke:#008484;stroke-width:.53999943;stroke-linecap:round;stroke-linejoin:round;stroke-opacity:1" id="path998" d="m 351.18213,458.18864 0,-4.5 1.71,0 0.45,0.18 0.18,0.18 0.18,0.45 0,0.63 -0.18,0.45 -0.18,0.18 -0.45,0.27 -1.71,0"/><path style="fill:#008484;fill-opacity:0;stroke:#008484;stroke-width:.53999943;stroke-linecap:round;stroke-linejoin:round;stroke-opacity:1" id="path1000" d="m 358.02213,458.18864 -2.52,0"/><path style="fill:#008484;fill-opacity:0;stroke:#008484;stroke-width:.53999943;stroke-linecap:round;stroke-linejoin:round;stroke-opacity:1" id="path1002" d="m 356.76213,458.18864 0,-4.5 -0.45,0.63 -0.45,0.45 -0.36,0.18"/><path style="fill:#008484;fill-opacity:0;stroke:#008484;stroke-width:.53999943;stroke-linecap:round;stroke-linejoin:round;stroke-opacity:1" id="path1004" d="m 358.02213,464.93863 -2.52,0"/><path style="fill:#008484;fill-opacity:0;stroke:#008484;stroke-width:.53999943;stroke-linecap:round;stroke-linejoin:round;stroke-opacity:1" id="path1006" d="m 356.76213,464.93863 0,-4.5 -0.45,0.63 -0.45,0.45 -0.36,0.18"/><path style="fill:#008484;fill-opacity:0;stroke:#008484;stroke-width:.53999943;stroke-linecap:round;stroke-linejoin:round;stroke-opacity:1" id="path1008" d="m 360.00212,464.93863 0,-4.5"/><path style="fill:#008484;fill-opacity:0;stroke:#008484;stroke-width:.53999943;stroke-linecap:round;stroke-linejoin:round;stroke-opacity:1" id="path1010" d="m 362.52212,464.93863 -1.89,-2.61"/><path style="fill:#008484;fill-opacity:0;stroke:#008484;stroke-width:.53999943;stroke-linecap:round;stroke-linejoin:round;stroke-opacity:1" id="path1012" d="m 362.52212,460.43863 -2.52,2.52"/><path style="fill:#008400;fill-opacity:0;stroke:#008400;stroke-width:.53999943;stroke-linecap:round;stroke-linejoin:round;stroke-opacity:1" id="path1160" d="m 345.51214,463.13863 -4.5,0"/><path style="fill:#008400;fill-opacity:0;stroke:#008400;stroke-width:.53999943;stroke-linecap:round;stroke-linejoin:round;stroke-opacity:1" id="path1162" d="m 314.01217,463.13863 -4.49999,0"/><path style="fill:#008400;fill-opacity:0;stroke:#008400;stroke-width:.53999943;stroke-linecap:round;stroke-linejoin:round;stroke-opacity:1" id="path1164" d="m 372.51211,463.13863 4.49999,0"/><path style="fill:#008484;fill-opacity:0;stroke:#008484;stroke-width:.53355247;stroke-linecap:round;stroke-linejoin:round;stroke-opacity:1" id="path1088" d="m 320.98903,458.35687 -1.40378,-2.16313"/><path style="fill:#008484;fill-opacity:0;stroke:#008484;stroke-width:.53355247;stroke-linecap:round;stroke-linejoin:round;stroke-opacity:1" id="path1090" d="m 318.53241,458.35687 0,-4.50652 1.667,0 0.43868,0.18026 0.17546,0.18026 0.17548,0.45065 0,0.63091 -0.17548,0.45066 -0.17546,0.18026 -0.43868,0.27039 -1.667,0"/><path style="fill:#008484;fill-opacity:0;stroke:#008484;stroke-width:.53355247;stroke-linecap:round;stroke-linejoin:round;stroke-opacity:1" id="path1092" d="m 322.74376,454.21087 0.17548,-0.18026 0.43868,-0.18026 1.05284,0 0.35095,0.18026 0.26321,0.18026 0.17547,0.45065 0,0.45065 -0.17547,0.63092 -2.54437,2.61378 2.71984,0"/></g></svg>