<svg xmlns="http://www.w3.org/2000/svg" xmlns:svg="http://www.w3.org/2000/svg" id="svg2" width="195.048" height="250.324" version="1.1" viewBox="0 0 20317.556 26075.478"><metadata id="metadata3210"/><title id="title4">SVG Picture created as halfwave.sch.svg date 2016/06/12 16:57:24</title><desc id="desc6">Picture generated by Eeschema-SVG</desc><g style="fill:#840000;fill-opacity:0;stroke:#840000;stroke-width:60;stroke-linecap:round;stroke-linejoin:round;stroke-opacity:1" id="g2078" transform="translate(-81918.703,-7855.3702)"><path id="path2080" d="m 94420,16920 200,600 200,-600"/><path id="path2082" d="m 95010,17290 460,0"/></g><g style="fill:#840000;fill-opacity:0;stroke:#840000;stroke-width:100;stroke-linecap:round;stroke-linejoin:round;stroke-opacity:1" id="g2084" transform="translate(-81918.703,-7855.3702)"><polyline id="polyline2086" fill="none;" points="94000 17250 94300 17790 95840 17790 95840 17250 95840 16710 94300 16710 94000 17250"/></g><g style="fill:#840000;fill-opacity:0;stroke:#840000;stroke-width:60;stroke-linecap:round;stroke-linejoin:round;stroke-opacity:1" id="g2088" transform="translate(-81918.703,-7855.3702)"><path id="path2090" d="m 94420,10920 200,600 200,-600"/><path id="path2092" d="m 95010,11290 460,0"/><path id="path2094" d="m 95240,11520 0,-460"/></g><g style="fill:#840000;fill-opacity:0;stroke:#840000;stroke-width:100;stroke-linecap:round;stroke-linejoin:round;stroke-opacity:1" id="g2096" transform="translate(-81918.703,-7855.3702)"><polyline id="polyline2098" fill="none;" points="94000 11250 94300 11790 95840 11790 95840 11250 95840 10710 94300 10710 94000 11250"/></g><g style="fill:#840000;fill-opacity:0;stroke:#840000;stroke-width:100;stroke-linecap:round;stroke-linejoin:round;stroke-opacity:1" id="g2102" transform="translate(-81918.703,-7855.3702)"><rect id="rect2104" width="2000" height="800" x="87250" y="14850" rx="0"/></g><g style="fill:#840000;fill-opacity:0;stroke:#840000;stroke-width:60;stroke-linecap:round;stroke-linejoin:round;stroke-opacity:1" id="g2106" transform="translate(-81918.703,-7855.3702)"><path id="path2108" d="m 87250,15250 -500,0"/><path id="path2110" d="m 89250,15250 500,0"/></g><g style="fill:#008484;fill-opacity:0;stroke:#008484;stroke-width:60;stroke-linecap:round;stroke-linejoin:round;stroke-opacity:1" id="g2112" transform="translate(-81918.703,-7855.3702)"><path id="path2114" d="m 87900,15510 -280,0"/><path id="path2116" d="m 87760,15510 0,-500 -50,70 -50,50 -40,20"/><path id="path2118" d="m 88210,15010 50,0 50,20 20,20 30,50 20,100 0,120 -20,90 -30,50 -20,20 -50,30 -50,0 -40,-30 -30,-20 -20,-50 -20,-90 0,-120 20,-100 20,-50 30,-20 40,-20"/><path id="path2120" d="m 88600,15510 0,-500"/><path id="path2122" d="m 88880,15510 -210,-290"/><path id="path2124" d="m 88880,15010 -280,280"/></g><g style="fill:#840000;fill-opacity:0;stroke:#840000;stroke-width:60;stroke-linecap:round;stroke-linejoin:round;stroke-opacity:1" id="g2126" transform="translate(-81918.703,-7855.3702)"><path id="path2128" d="m 83850,15520 0,-600 230,0 60,30 30,30 30,60 0,80 -30,60 -30,30 -60,30 -230,0"/><path id="path2130" d="m 84370,14920 200,600 200,-600"/><path id="path2132" d="m 84930,14980 30,-30 60,-30 140,0 60,30 30,30 30,60 0,50 -30,90 -340,340 370,0"/></g><g style="fill:#840000;fill-opacity:0;stroke:#840000;stroke-width:100;stroke-linecap:round;stroke-linejoin:round;stroke-opacity:1" id="g2134" transform="translate(-81918.703,-7855.3702)"><polyline id="polyline2136" fill="none;" points="85750 15250 85450 14710 83480 14710 83480 15250 83480 15790 85450 15790 85750 15250"/></g><g style="fill:#840000;fill-opacity:0;stroke:#840000;stroke-width:60;stroke-linecap:round;stroke-linejoin:round;stroke-opacity:1" id="g2138" transform="translate(-81918.703,-7855.3702)"><path id="path2140" d="m 88020,11700 -60,-30 -90,0 -80,30 -60,60 -30,50 -30,120 0,80 30,120 30,60 60,50 80,30 60,0 90,-30 30,-30 0,-200 -120,0"/><path id="path2142" d="m 88300,12270 0,-600 350,600 0,-600"/><path id="path2144" d="m 88930,12270 0,-600 150,0 80,30 60,60 30,50 30,120 0,80 -30,120 -30,60 -60,50 -80,30 -150,0"/></g><g style="fill:#840000;fill-opacity:0;stroke:#840000;stroke-width:100;stroke-linecap:round;stroke-linejoin:round;stroke-opacity:1" id="g2146" transform="translate(-81918.703,-7855.3702)"><polyline id="polyline2148" fill="none;" points="89750 12000 89450 11460 87330 11460 87330 12000 87330 12540 89450 12540 89750 12000"/></g><g style="fill:#840000;fill-opacity:0;stroke:#840000;stroke-width:60;stroke-linecap:round;stroke-linejoin:round;stroke-opacity:1" id="g2150" transform="translate(-81918.703,-7855.3702)"><path id="path2152" d="m 99850,14460 -30,30 -90,30 -60,0 -80,-30 -60,-50 -30,-60 -30,-120 0,-80 30,-120 30,-50 60,-60 80,-30 60,0 90,30 30,30"/><path id="path2154" d="m 100100,14520 0,-600"/><path id="path2156" d="m 100100,14210 350,0"/><path id="path2158" d="m 100450,14520 0,-600"/><path id="path2160" d="m 101050,14520 -350,0"/><path id="path2162" d="m 100880,14520 0,-600 -60,90 -60,50 -60,30"/></g><g style="fill:#840000;fill-opacity:0;stroke:#840000;stroke-width:100;stroke-linecap:round;stroke-linejoin:round;stroke-opacity:1" id="g2164" transform="translate(-81918.703,-7855.3702)"><polyline id="polyline2166" fill="none;" points="99000 14250 99300 14790 101390 14790 101390 14250 101390 13710 99300 13710 99000 14250"/></g><g style="fill:#840000;fill-opacity:0;stroke:#840000;stroke-width:100;stroke-linecap:round;stroke-linejoin:round;stroke-opacity:1" id="g2170" transform="translate(-81918.703,-7855.3702)"><rect id="rect2172" width="2000" height="800" x="87250" y="16850" rx="0"/></g><g style="fill:#840000;fill-opacity:0;stroke:#840000;stroke-width:60;stroke-linecap:round;stroke-linejoin:round;stroke-opacity:1" id="g2174" transform="translate(-81918.703,-7855.3702)"><path id="path2176" d="m 87250,17250 -500,0"/><path id="path2178" d="m 89250,17250 500,0"/></g><g style="fill:#008484;fill-opacity:0;stroke:#008484;stroke-width:60;stroke-linecap:round;stroke-linejoin:round;stroke-opacity:1" id="g2180" transform="translate(-81918.703,-7855.3702)"><path id="path2182" d="m 87900,17510 -280,0"/><path id="path2184" d="m 87760,17510 0,-500 -50,70 -50,50 -40,20"/><path id="path2186" d="m 88210,17010 50,0 50,20 20,20 30,50 20,100 0,120 -20,90 -30,50 -20,20 -50,30 -50,0 -40,-30 -30,-20 -20,-50 -20,-90 0,-120 20,-100 20,-50 30,-20 40,-20"/><path id="path2188" d="m 88600,17510 0,-500"/><path id="path2190" d="m 88880,17510 -210,-290"/><path id="path2192" d="m 88880,17010 -280,280"/></g><g style="fill:#840000;fill-opacity:0;stroke:#840000;stroke-width:60;stroke-linecap:round;stroke-linejoin:round;stroke-opacity:1" id="g2194" transform="translate(-81918.703,-7855.3702)"><path id="path2196" d="m 83850,17520 0,-600 230,0 60,30 30,30 30,60 0,80 -30,60 -30,30 -60,30 -230,0"/><path id="path2198" d="m 84370,16920 200,600 200,-600"/><path id="path2200" d="m 84910,16920 370,0 -200,230 80,0 60,30 30,30 30,50 0,150 -30,50 -30,30 -60,30 -170,0 -60,-30 -20,-30"/></g><g style="fill:#840000;fill-opacity:0;stroke:#840000;stroke-width:100;stroke-linecap:round;stroke-linejoin:round;stroke-opacity:1" id="g2202" transform="translate(-81918.703,-7855.3702)"><polyline id="polyline2204" fill="none;" points="85750 17250 85450 16710 83480 16710 83480 17250 83480 17790 85450 17790 85750 17250"/></g><g style="fill:#840000;fill-opacity:0;stroke:#840000;stroke-width:100;stroke-linecap:round;stroke-linejoin:round;stroke-opacity:1" id="g2208" transform="translate(-81918.703,-7855.3702)"><rect id="rect2210" width="2000" height="800" x="93000" y="18850" rx="0"/></g><g style="fill:#840000;fill-opacity:0;stroke:#840000;stroke-width:60;stroke-linecap:round;stroke-linejoin:round;stroke-opacity:1" id="g2212" transform="translate(-81918.703,-7855.3702)"><path id="path2214" d="m 93000,19250 -500,0"/><path id="path2216" d="m 95000,19250 500,0"/></g><g style="fill:#008484;fill-opacity:0;stroke:#008484;stroke-width:60;stroke-linecap:round;stroke-linejoin:round;stroke-opacity:1" id="g2218" transform="translate(-81918.703,-7855.3702)"><path id="path2220" d="m 93870,19010 -240,0 -20,230 20,-20 50,-20 120,0 40,20 30,20 20,50 0,120 -20,50 -30,20 -40,30 -120,0 -50,-30 -20,-20"/><path id="path2222" d="m 94110,19510 0,-500"/><path id="path2224" d="m 94390,19510 -210,-290"/><path id="path2226" d="m 94390,19010 -280,280"/></g><g style="fill:#008400;fill-opacity:0;stroke:#008400;stroke-width:60;stroke-linecap:round;stroke-linejoin:round;stroke-opacity:1" id="g2554" transform="translate(-81918.703,-7855.3702)"><path id="path2566" d="m 94000,17250 -1000,0"/><path id="path2568" d="m 94000,11250 -1000,0"/><path id="path2570" d="m 97500,19250 0,-5000"/><path id="path2572" d="m 89750,15250 750,0"/><path id="path2574" d="m 97500,14250 1500,0"/><path id="path2576" d="m 85750,15250 1000,0"/><path id="path2578" d="m 86750,17250 -1000,0"/><path id="path2580" d="m 90500,15250 0,4000"/><path id="path2582" d="m 89750,17250 0,-2000"/><path id="path2584" d="m 90500,19250 2000,0"/><path id="path2586" d="m 95500,19250 2000,0"/></g><g style="fill:#ffffc2;fill-opacity:.6;stroke:#ffffc2;stroke-width:0;stroke-linecap:round;stroke-linejoin:round;stroke-opacity:1" id="g2730" transform="translate(-81918.703,-7855.3702)"><polyline style="fill-rule:evenodd" id="polyline2732" points="92000 12250 96000 14250 92000 16250 92000 12250"/></g><g style="fill:#840000;fill-opacity:0;stroke:#840000;stroke-width:60;stroke-linecap:round;stroke-linejoin:round;stroke-opacity:1" id="g2736" transform="translate(-81918.703,-7855.3702)"><polyline id="polyline2738" fill="none;" points="92000 12250 96000 14250 92000 16250 92000 12250"/><path id="path2740" d="m 93000,15750 0,1500"/></g><g style="fill:#008484;fill-opacity:0;stroke:#008484;stroke-width:60;stroke-linecap:round;stroke-linejoin:round;stroke-opacity:1" id="g2742" transform="translate(-81918.703,-7855.3702)"><path id="path2744" d="m 92780,15610 400,-130 -400,-130"/><path id="path2746" d="m 93030,15210 0,-300"/></g><g style="fill:#840000;fill-opacity:0;stroke:#840000;stroke-width:60;stroke-linecap:round;stroke-linejoin:round;stroke-opacity:1" id="g2748" transform="translate(-81918.703,-7855.3702)"><path id="path2750" d="m 92610,16420 270,0"/><path id="path2752" d="m 92460,16520 290,90 0,-240"/><path id="path2754" d="m 93000,12750 0,-1500"/></g><g style="fill:#008484;fill-opacity:0;stroke:#008484;stroke-width:60;stroke-linecap:round;stroke-linejoin:round;stroke-opacity:1" id="g2756" transform="translate(-81918.703,-7855.3702)"><path id="path2758" d="m 92780,13650 400,-130 -400,-130"/><path id="path2760" d="m 93030,13250 0,-300"/><path id="path2762" d="m 93180,13100 -300,0"/></g><g style="fill:#840000;fill-opacity:0;stroke:#840000;stroke-width:60;stroke-linecap:round;stroke-linejoin:round;stroke-opacity:1" id="g2764" transform="translate(-81918.703,-7855.3702)"><path id="path2766" d="m 92480,12130 0,-260 400,170"/><path id="path2768" d="m 92000,15250 -1500,0"/></g><g style="fill:#008484;fill-opacity:0;stroke:#008484;stroke-width:60;stroke-linecap:round;stroke-linejoin:round;stroke-opacity:1" id="g2770" transform="translate(-81918.703,-7855.3702)"><path id="path2772" d="m 92200,15280 300,0"/></g><g style="fill:#840000;fill-opacity:0;stroke:#840000;stroke-width:60;stroke-linecap:round;stroke-linejoin:round;stroke-opacity:1" id="g2774" transform="translate(-81918.703,-7855.3702)"><path id="path2776" d="m 91140,14770 20,-20 30,-20 100,0 40,20 20,20 10,40 0,40 -10,50 -230,230 240,0"/><path id="path2778" d="m 92000,13250 -1500,0"/></g><g style="fill:#008484;fill-opacity:0;stroke:#008484;stroke-width:60;stroke-linecap:round;stroke-linejoin:round;stroke-opacity:1" id="g2780" transform="translate(-81918.703,-7855.3702)"><path id="path2782" d="m 92200,13280 300,0"/><path id="path2784" d="m 92350,13430 0,-300"/></g><g style="fill:#840000;fill-opacity:0;stroke:#840000;stroke-width:60;stroke-linecap:round;stroke-linejoin:round;stroke-opacity:1" id="g2786" transform="translate(-81918.703,-7855.3702)"><path id="path2788" d="m 91120,12730 240,0 -130,150 60,0 40,20 20,20 10,40 0,90 -10,40 -20,20 -40,20 -120,0 -30,-20 -20,-20"/><path id="path2790" d="m 96000,14250 1500,0"/><path id="path2792" d="m 96830,13730 -80,0 -40,20 -20,20 -30,60 -20,70 0,150 20,40 10,20 40,20 80,0 40,-20 20,-20 10,-40 0,-90 -10,-40 -20,-20 -40,-20 -80,0 -40,20 -10,20 -20,40"/><path id="path2794" d="m 93920,28920 200,600 200,-600"/><path id="path2796" d="m 94510,29290 460,0"/></g><g style="fill:#840000;fill-opacity:0;stroke:#840000;stroke-width:100;stroke-linecap:round;stroke-linejoin:round;stroke-opacity:1" id="g2798" transform="translate(-81918.703,-7855.3702)"><polyline id="polyline2800" fill="none;" points="93500 29250 93800 29790 95340 29790 95340 29250 95340 28710 93800 28710 93500 29250"/></g><g style="fill:#840000;fill-opacity:0;stroke:#840000;stroke-width:60;stroke-linecap:round;stroke-linejoin:round;stroke-opacity:1" id="g2802" transform="translate(-81918.703,-7855.3702)"><path id="path2804" d="m 93920,22920 200,600 200,-600"/><path id="path2806" d="m 94510,23290 460,0"/><path id="path2808" d="m 94740,23520 0,-460"/></g><g style="fill:#840000;fill-opacity:0;stroke:#840000;stroke-width:100;stroke-linecap:round;stroke-linejoin:round;stroke-opacity:1" id="g2810" transform="translate(-81918.703,-7855.3702)"><polyline id="polyline2812" fill="none;" points="93500 23250 93800 23790 95340 23790 95340 23250 95340 22710 93800 22710 93500 23250"/></g><g style="fill:#840000;fill-opacity:0;stroke:#840000;stroke-width:100;stroke-linecap:round;stroke-linejoin:round;stroke-opacity:1" id="g2816" transform="translate(-81918.703,-7855.3702)"><rect id="rect2818" width="2000" height="800" x="86750" y="26850" rx="0"/></g><g style="fill:#840000;fill-opacity:0;stroke:#840000;stroke-width:60;stroke-linecap:round;stroke-linejoin:round;stroke-opacity:1" id="g2820" transform="translate(-81918.703,-7855.3702)"><path id="path2822" d="m 86750,27250 -500,0"/><path id="path2824" d="m 88750,27250 500,0"/></g><g style="fill:#008484;fill-opacity:0;stroke:#008484;stroke-width:60;stroke-linecap:round;stroke-linejoin:round;stroke-opacity:1" id="g2826" transform="translate(-81918.703,-7855.3702)"><path id="path2828" d="m 87400,27510 -280,0"/><path id="path2830" d="m 87260,27510 0,-500 -50,70 -50,50 -40,20"/><path id="path2832" d="m 87710,27010 50,0 50,20 20,20 30,50 20,100 0,120 -20,90 -30,50 -20,20 -50,30 -50,0 -40,-30 -30,-20 -20,-50 -20,-90 0,-120 20,-100 20,-50 30,-20 40,-20"/><path id="path2834" d="m 88100,27510 0,-500"/><path id="path2836" d="m 88380,27510 -210,-290"/><path id="path2838" d="m 88380,27010 -280,280"/></g><g style="fill:#840000;fill-opacity:0;stroke:#840000;stroke-width:60;stroke-linecap:round;stroke-linejoin:round;stroke-opacity:1" id="g2840" transform="translate(-81918.703,-7855.3702)"><path id="path2842" d="m 83720,26920 140,600 110,-430 120,430 140,-600"/><path id="path2844" d="m 84780,27520 -350,0"/><path id="path2846" d="m 84610,27520 0,-600 -60,90 -60,50 -60,30"/></g><g style="fill:#840000;fill-opacity:0;stroke:#840000;stroke-width:100;stroke-linecap:round;stroke-linejoin:round;stroke-opacity:1" id="g2848" transform="translate(-81918.703,-7855.3702)"><polyline id="polyline2850" fill="none;" points="85250 27250 84950 26710 83400 26710 83400 27250 83400 27790 84950 27790 85250 27250"/></g><g style="fill:#840000;fill-opacity:0;stroke:#840000;stroke-width:60;stroke-linecap:round;stroke-linejoin:round;stroke-opacity:1" id="g2852" transform="translate(-81918.703,-7855.3702)"><path id="path2854" d="m 87520,24950 -60,-30 -90,0 -80,30 -60,60 -30,50 -30,120 0,80 30,120 30,60 60,50 80,30 60,0 90,-30 30,-30 0,-200 -120,0"/><path id="path2856" d="m 87800,25520 0,-600 350,600 0,-600"/><path id="path2858" d="m 88430,25520 0,-600 150,0 80,30 60,60 30,50 30,120 0,80 -30,120 -30,60 -60,50 -80,30 -150,0"/></g><g style="fill:#840000;fill-opacity:0;stroke:#840000;stroke-width:100;stroke-linecap:round;stroke-linejoin:round;stroke-opacity:1" id="g2860" transform="translate(-81918.703,-7855.3702)"><polyline id="polyline2862" fill="none;" points="89250 25250 88950 24710 86830 24710 86830 25250 86830 25790 88950 25790 89250 25250"/></g><g style="fill:#840000;fill-opacity:0;stroke:#840000;stroke-width:60;stroke-linecap:round;stroke-linejoin:round;stroke-opacity:1" id="g2864" transform="translate(-81918.703,-7855.3702)"><path id="path2866" d="m 99350,26460 -30,30 -90,30 -60,0 -80,-30 -60,-50 -30,-60 -30,-120 0,-80 30,-120 30,-50 60,-60 80,-30 60,0 90,30 30,30"/><path id="path2868" d="m 99600,26520 0,-600"/><path id="path2870" d="m 99600,26210 350,0"/><path id="path2872" d="m 99950,26520 0,-600"/><path id="path2874" d="m 100550,26520 -350,0"/><path id="path2876" d="m 100380,26520 0,-600 -60,90 -60,50 -60,30"/></g><g style="fill:#840000;fill-opacity:0;stroke:#840000;stroke-width:100;stroke-linecap:round;stroke-linejoin:round;stroke-opacity:1" id="g2878" transform="translate(-81918.703,-7855.3702)"><polyline id="polyline2880" fill="none;" points="98500 26250 98800 26790 100890 26790 100890 26250 100890 25710 98800 25710 98500 26250"/></g><g style="fill:#840000;fill-opacity:0;stroke:#840000;stroke-width:100;stroke-linecap:round;stroke-linejoin:round;stroke-opacity:1" id="g2884" transform="translate(-81918.703,-7855.3702)"><rect id="rect2886" width="2000" height="800" x="86750" y="28850" rx="0"/></g><g style="fill:#840000;fill-opacity:0;stroke:#840000;stroke-width:60;stroke-linecap:round;stroke-linejoin:round;stroke-opacity:1" id="g2888" transform="translate(-81918.703,-7855.3702)"><path id="path2890" d="m 86750,29250 -500,0"/><path id="path2892" d="m 88750,29250 500,0"/></g><g style="fill:#008484;fill-opacity:0;stroke:#008484;stroke-width:60;stroke-linecap:round;stroke-linejoin:round;stroke-opacity:1" id="g2894" transform="translate(-81918.703,-7855.3702)"><path id="path2896" d="m 87400,29510 -280,0"/><path id="path2898" d="m 87260,29510 0,-500 -50,70 -50,50 -40,20"/><path id="path2900" d="m 87710,29010 50,0 50,20 20,20 30,50 20,100 0,120 -20,90 -30,50 -20,20 -50,30 -50,0 -40,-30 -30,-20 -20,-50 -20,-90 0,-120 20,-100 20,-50 30,-20 40,-20"/><path id="path2902" d="m 88100,29510 0,-500"/><path id="path2904" d="m 88380,29510 -210,-290"/><path id="path2906" d="m 88380,29010 -280,280"/></g><g style="fill:#840000;fill-opacity:0;stroke:#840000;stroke-width:60;stroke-linecap:round;stroke-linejoin:round;stroke-opacity:1" id="g2908" transform="translate(-81918.703,-7855.3702)"><path id="path2910" d="m 83720,28920 140,600 110,-430 120,430 140,-600"/><path id="path2912" d="m 84430,28980 30,-30 60,-30 140,0 60,30 30,30 30,60 0,50 -30,90 -340,340 370,0"/></g><g style="fill:#840000;fill-opacity:0;stroke:#840000;stroke-width:100;stroke-linecap:round;stroke-linejoin:round;stroke-opacity:1" id="g2914" transform="translate(-81918.703,-7855.3702)"><polyline id="polyline2916" fill="none;" points="85250 29250 84950 28710 83400 28710 83400 29250 83400 29790 84950 29790 85250 29250"/></g><g style="fill:#840000;fill-opacity:0;stroke:#840000;stroke-width:100;stroke-linecap:round;stroke-linejoin:round;stroke-opacity:1" id="g2920" transform="translate(-81918.703,-7855.3702)"><rect id="rect2922" width="2000" height="800" x="92500" y="30850" rx="0"/></g><g style="fill:#840000;fill-opacity:0;stroke:#840000;stroke-width:60;stroke-linecap:round;stroke-linejoin:round;stroke-opacity:1" id="g2924" transform="translate(-81918.703,-7855.3702)"><path id="path2926" d="m 92500,31250 -500,0"/><path id="path2928" d="m 94500,31250 500,0"/></g><g style="fill:#008484;fill-opacity:0;stroke:#008484;stroke-width:60;stroke-linecap:round;stroke-linejoin:round;stroke-opacity:1" id="g2930" transform="translate(-81918.703,-7855.3702)"><path id="path2932" d="m 93370,31010 -240,0 -20,230 20,-20 50,-20 120,0 40,20 30,20 20,50 0,120 -20,50 -30,20 -40,30 -120,0 -50,-30 -20,-20"/><path id="path2934" d="m 93610,31510 0,-500"/><path id="path2936" d="m 93890,31510 -210,-290"/><path id="path2938" d="m 93890,31010 -280,280"/></g><g style="fill:#008400;fill-opacity:0;stroke:#008400;stroke-width:60;stroke-linecap:round;stroke-linejoin:round;stroke-opacity:1" id="g2940" transform="translate(-81918.703,-7855.3702)"><path id="path2942" d="m 93500,29250 -1000,0"/><path id="path2944" d="m 93500,23250 -1000,0"/><path id="path2946" d="m 97000,31250 0,-5000"/><path id="path2948" d="m 89250,27250 750,0"/><path id="path2950" d="m 89250,25250 750,0"/><path id="path2952" d="m 97000,26250 1500,0"/><path id="path2954" d="m 85250,27250 1000,0"/><path id="path2956" d="m 86250,29250 -1000,0"/><path id="path2958" d="m 90000,27250 0,4000"/><path id="path2960" d="m 89250,29250 0,-2000"/><path id="path2962" d="m 90000,31250 2000,0"/><path id="path2964" d="m 95000,31250 2000,0"/></g><g style="fill:#ffffc2;fill-opacity:.6;stroke:#ffffc2;stroke-width:0;stroke-linecap:round;stroke-linejoin:round;stroke-opacity:1" id="g2972" transform="translate(-81918.703,-7855.3702)"><polyline style="fill-rule:evenodd" id="polyline2974" points="91500 24250 95500 26250 91500 28250 91500 24250"/></g><g style="fill:#840000;fill-opacity:0;stroke:#840000;stroke-width:60;stroke-linecap:round;stroke-linejoin:round;stroke-opacity:1" id="g2978" transform="translate(-81918.703,-7855.3702)"><polyline id="polyline2980" fill="none;" points="91500 24250 95500 26250 91500 28250 91500 24250"/><path id="path2982" d="m 92500,27750 0,1500"/></g><g style="fill:#008484;fill-opacity:0;stroke:#008484;stroke-width:60;stroke-linecap:round;stroke-linejoin:round;stroke-opacity:1" id="g2984" transform="translate(-81918.703,-7855.3702)"><path id="path2986" d="m 92280,27610 400,-130 -400,-130"/><path id="path2988" d="m 92530,27210 0,-300"/></g><g style="fill:#840000;fill-opacity:0;stroke:#840000;stroke-width:60;stroke-linecap:round;stroke-linejoin:round;stroke-opacity:1" id="g2990" transform="translate(-81918.703,-7855.3702)"><path id="path2992" d="m 92110,28420 270,0"/><path id="path2994" d="m 91960,28520 290,90 0,-240"/><path id="path2996" d="m 92500,24750 0,-1500"/></g><g style="fill:#008484;fill-opacity:0;stroke:#008484;stroke-width:60;stroke-linecap:round;stroke-linejoin:round;stroke-opacity:1" id="g2998" transform="translate(-81918.703,-7855.3702)"><path id="path3000" d="m 92280,25650 400,-130 -400,-130"/><path id="path3002" d="m 92530,25250 0,-300"/><path id="path3004" d="m 92680,25100 -300,0"/></g><g style="fill:#840000;fill-opacity:0;stroke:#840000;stroke-width:60;stroke-linecap:round;stroke-linejoin:round;stroke-opacity:1" id="g3006" transform="translate(-81918.703,-7855.3702)"><path id="path3008" d="m 91980,24130 0,-260 400,170"/><path id="path3010" d="m 91500,27250 -1500,0"/></g><g style="fill:#008484;fill-opacity:0;stroke:#008484;stroke-width:60;stroke-linecap:round;stroke-linejoin:round;stroke-opacity:1" id="g3012" transform="translate(-81918.703,-7855.3702)"><path id="path3014" d="m 91700,27280 300,0"/></g><g style="fill:#840000;fill-opacity:0;stroke:#840000;stroke-width:60;stroke-linecap:round;stroke-linejoin:round;stroke-opacity:1" id="g3016" transform="translate(-81918.703,-7855.3702)"><path id="path3018" d="m 90640,26770 20,-20 30,-20 100,0 40,20 20,20 10,40 0,40 -10,50 -230,230 240,0"/><path id="path3020" d="m 91500,25250 -1500,0"/></g><g style="fill:#008484;fill-opacity:0;stroke:#008484;stroke-width:60;stroke-linecap:round;stroke-linejoin:round;stroke-opacity:1" id="g3022" transform="translate(-81918.703,-7855.3702)"><path id="path3024" d="m 91700,25280 300,0"/><path id="path3026" d="m 91850,25430 0,-300"/></g><g style="fill:#840000;fill-opacity:0;stroke:#840000;stroke-width:60;stroke-linecap:round;stroke-linejoin:round;stroke-opacity:1" id="g3028" transform="translate(-81918.703,-7855.3702)"><path id="path3030" d="m 90620,24730 240,0 -130,150 60,0 40,20 20,20 10,40 0,90 -10,40 -20,20 -40,20 -120,0 -30,-20 -20,-20"/><path id="path3032" d="m 95500,26250 1500,0"/><path id="path3034" d="m 96330,25730 -80,0 -40,20 -20,20 -30,60 -20,70 0,150 20,40 10,20 40,20 80,0 40,-20 20,-20 10,-40 0,-90 -10,-40 -20,-20 -40,-20 -80,0 -40,20 -10,20 -20,40"/></g><g style="fill:#0000c2;fill-opacity:0;stroke:#0000c2;stroke-width:60;stroke-linecap:round;stroke-linejoin:round;stroke-opacity:1" id="g3036" transform="translate(-81918.703,-7855.3702)"><path id="path3038" d="m 90640,9720 0,-600 150,0 80,30 60,60 30,50 30,120 0,80 -30,120 -30,60 -60,50 -80,30 -150,0"/><path id="path3040" d="m 91590,9660 -30,30 -90,30 -60,0 -80,-30 -60,-50 -30,-60 -30,-120 0,-80 30,-120 30,-50 60,-60 80,-30 60,0 90,30 30,30"/><path id="path3042" d="m 92270,9690 90,30 140,0 60,-30 30,-30 30,-50 0,-60 -30,-60 -30,-30 -60,-20 -110,-30 -60,-30 -30,-30 -30,-60 0,-50 30,-60 30,-30 60,-30 140,0 90,30"/><path id="path3044" d="m 93130,9320 0,400"/><path id="path3046" d="m 92870,9320 0,320 30,50 60,30 80,0 60,-30 30,-30"/><path id="path3048" d="m 93410,9720 0,-400"/><path id="path3050" d="m 93410,9380 30,-30 60,-30 80,0 60,30 30,60 0,310"/><path id="path3052" d="m 93670,9410 30,-60 60,-30 80,0 60,30 30,60 0,310"/><path id="path3054" d="m 94210,9720 0,-400"/><path id="path3056" d="m 94210,9380 30,-30 60,-30 80,0 60,30 30,60 0,310"/><path id="path3058" d="m 94470,9410 30,-60 60,-30 80,0 60,30 30,60 0,310"/><path id="path3060" d="m 95010,9720 0,-400"/><path id="path3062" d="m 95010,9120 -30,30 30,30 30,-30 -30,-30 0,60"/><path id="path3064" d="m 95300,9320 0,400"/><path id="path3066" d="m 95300,9380 30,-30 60,-30 80,0 60,30 30,60 0,310"/><path id="path3068" d="m 96100,9320 0,490 -30,50 -30,30 -50,30 -90,0 -60,-30"/><path id="path3070" d="m 96100,9690 -60,30 -110,0 -60,-30 -30,-30 -30,-50 0,-170 30,-60 30,-30 60,-30 110,0 60,30"/><path id="path3072" d="m 90610,21800 290,0"/><path id="path3074" d="m 90560,21970 200,-600 200,600"/><path id="path3076" d="m 91500,21910 -30,30 -90,30 -60,0 -80,-30 -60,-50 -30,-60 -30,-120 0,-80 30,-120 30,-50 60,-60 80,-30 60,0 90,30 30,30"/><path id="path3078" d="m 92180,21940 90,30 140,0 60,-30 30,-30 30,-50 0,-60 -30,-60 -30,-30 -60,-20 -110,-30 -60,-30 -30,-30 -30,-60 0,-50 30,-60 30,-30 60,-30 140,0 90,30"/><path id="path3080" d="m 93040,21570 0,400"/><path id="path3082" d="m 92780,21570 0,320 30,50 60,30 80,0 60,-30 30,-30"/><path id="path3084" d="m 93320,21970 0,-400"/><path id="path3086" d="m 93320,21630 30,-30 60,-30 80,0 60,30 30,60 0,310"/><path id="path3088" d="m 93580,21660 30,-60 60,-30 80,0 60,30 30,60 0,310"/><path id="path3090" d="m 94120,21970 0,-400"/><path id="path3092" d="m 94120,21630 30,-30 60,-30 80,0 60,30 30,60 0,310"/><path id="path3094" d="m 94380,21660 30,-60 60,-30 80,0 60,30 30,60 0,310"/><path id="path3096" d="m 94920,21970 0,-400"/><path id="path3098" d="m 94920,21370 -30,30 30,30 30,-30 -30,-30 0,60"/><path id="path3100" d="m 95210,21570 0,400"/><path id="path3102" d="m 95210,21630 30,-30 60,-30 80,0 60,30 30,60 0,310"/><path id="path3104" d="m 96010,21570 0,490 -30,50 -30,30 -50,30 -90,0 -60,-30"/><path id="path3106" d="m 96010,21940 -60,30 -110,0 -60,-30 -30,-30 -30,-50 0,-170 30,-60 30,-30 60,-30 110,0 60,30"/></g><g style="fill:#008400;fill-opacity:0;stroke:#008400;stroke-width:60;stroke-linecap:round;stroke-linejoin:round;stroke-opacity:1" id="g3108" transform="translate(-81918.703,-7855.3702)"><path id="path3110" d="m 90500,13250 0,-1250"/><path id="path3112" d="m 90500,12000 -750,0"/></g><g style="fill:#840000;fill-opacity:0;stroke:#840000;stroke-width:60;stroke-linecap:round;stroke-linejoin:round;stroke-opacity:1" id="g3114" transform="translate(-81918.703,-7855.3702)"><path id="path3116" d="m 83580,25460 -30,30 -90,30 -60,0 -80,-30 -60,-50 -30,-60 -30,-120 0,-80 30,-120 30,-50 60,-60 80,-30 60,0 90,30 30,30"/><path id="path3118" d="m 83830,25520 0,-600"/><path id="path3120" d="m 83830,25210 350,0"/><path id="path3122" d="m 84180,25520 0,-600"/><path id="path3124" d="m 84430,24980 30,-30 60,-30 140,0 60,30 30,30 30,60 0,50 -30,90 -340,340 370,0"/></g><g style="fill:#840000;fill-opacity:0;stroke:#840000;stroke-width:100;stroke-linecap:round;stroke-linejoin:round;stroke-opacity:1" id="g3126" transform="translate(-81918.703,-7855.3702)"><polyline id="polyline3128" fill="none;" points="85250 25250 84950 24710 82860 24710 82860 25250 82860 25790 84950 25790 85250 25250"/></g><g style="fill:#840000;fill-opacity:0;stroke:#840000;stroke-width:60;stroke-linecap:round;stroke-linejoin:round;stroke-opacity:1" id="g3130" transform="translate(-81918.703,-7855.3702)"><path id="path3132" d="m 83580,31210 -30,30 -90,30 -60,0 -80,-30 -60,-50 -30,-60 -30,-120 0,-80 30,-120 30,-50 60,-60 80,-30 60,0 90,30 30,30"/><path id="path3134" d="m 83830,31270 0,-600"/><path id="path3136" d="m 83830,30960 350,0"/><path id="path3138" d="m 84180,31270 0,-600"/><path id="path3140" d="m 84410,30670 370,0 -200,230 80,0 60,30 30,30 30,50 0,150 -30,50 -30,30 -60,30 -170,0 -60,-30 -20,-30"/></g><g style="fill:#840000;fill-opacity:0;stroke:#840000;stroke-width:100;stroke-linecap:round;stroke-linejoin:round;stroke-opacity:1" id="g3142" transform="translate(-81918.703,-7855.3702)"><polyline id="polyline3144" fill="none;" points="85250 31000 84950 30460 82860 30460 82860 31000 82860 31540 84950 31540 85250 31000"/></g><g style="fill:#008400;fill-opacity:0;stroke:#008400;stroke-width:60;stroke-linecap:round;stroke-linejoin:round;stroke-opacity:1" id="g3148" transform="translate(-81918.703,-7855.3702)"><path id="path3150" d="m 85250,25250 1000,0"/><path id="path3152" d="m 86250,25250 0,2000"/><path id="path3154" d="m 86250,29250 0,1750"/><path id="path3156" d="m 86250,31000 -1000,0"/></g><g style="fill:#840000;fill-opacity:0;stroke:#840000;stroke-width:60;stroke-linecap:round;stroke-linejoin:round;stroke-opacity:1" id="g3158" transform="translate(-81918.703,-7855.3702)"><path id="path3160" d="m 84080,13460 -30,30 -90,30 -60,0 -80,-30 -60,-50 -30,-60 -30,-120 0,-80 30,-120 30,-50 60,-60 80,-30 60,0 90,30 30,30"/><path id="path3162" d="m 84330,13520 0,-600"/><path id="path3164" d="m 84330,13210 350,0"/><path id="path3166" d="m 84680,13520 0,-600"/><path id="path3168" d="m 84930,12980 30,-30 60,-30 140,0 60,30 30,30 30,60 0,50 -30,90 -340,340 370,0"/></g><g style="fill:#840000;fill-opacity:0;stroke:#840000;stroke-width:100;stroke-linecap:round;stroke-linejoin:round;stroke-opacity:1" id="g3170" transform="translate(-81918.703,-7855.3702)"><polyline id="polyline3172" fill="none;" points="85750 13250 85450 12710 83360 12710 83360 13250 83360 13790 85450 13790 85750 13250"/></g><g style="fill:#008400;fill-opacity:0;stroke:#008400;stroke-width:60;stroke-linecap:round;stroke-linejoin:round;stroke-opacity:1" id="g3176" transform="translate(-81918.703,-7855.3702)"><path id="path3178" d="m 85750,13250 1000,0"/><path id="path3180" d="m 86750,13250 0,2000"/></g><g style="fill:#840000;fill-opacity:0;stroke:#840000;stroke-width:60;stroke-linecap:round;stroke-linejoin:round;stroke-opacity:1" id="g3182" transform="translate(-81918.703,-7855.3702)"><path id="path3184" d="m 84080,19210 -30,30 -90,30 -60,0 -80,-30 -60,-50 -30,-60 -30,-120 0,-80 30,-120 30,-50 60,-60 80,-30 60,0 90,30 30,30"/><path id="path3186" d="m 84330,19270 0,-600"/><path id="path3188" d="m 84330,18960 350,0"/><path id="path3190" d="m 84680,19270 0,-600"/><path id="path3192" d="m 84910,18670 370,0 -200,230 80,0 60,30 30,30 30,50 0,150 -30,50 -30,30 -60,30 -170,0 -60,-30 -20,-30"/></g><g style="fill:#840000;fill-opacity:0;stroke:#840000;stroke-width:100;stroke-linecap:round;stroke-linejoin:round;stroke-opacity:1" id="g3194" transform="translate(-81918.703,-7855.3702)"><polyline id="polyline3196" fill="none;" points="85750 19000 85450 18460 83360 18460 83360 19000 83360 19540 85450 19540 85750 19000"/></g><g style="fill:#008400;fill-opacity:0;stroke:#008400;stroke-width:60;stroke-linecap:round;stroke-linejoin:round;stroke-opacity:1" id="g3200" transform="translate(-81918.703,-7855.3702)"><path id="path3202" d="m 86750,17250 0,1750"/><path id="path3204" d="m 86750,19000 -1000,0"/></g></svg>