<svg xmlns="http://www.w3.org/2000/svg" xmlns:svg="http://www.w3.org/2000/svg" id="svg2" width="114.048" height="66.528" version="1.1" viewBox="0 0 11879.996 6930"><metadata id="metadata338"/><title id="title4">SVG Picture created as transistor.sch.svg date 2016/06/14 13:34:48</title><desc id="desc6">Picture generated by Eeschema-SVG</desc><g style="fill:#840000;fill-opacity:0;stroke:#840000;stroke-width:60;stroke-linecap:round;stroke-linejoin:round;stroke-opacity:1" id="g12" transform="translate(-8310.0203,-10410)"><path id="path14" d="m 8850,14020 0,-600 230,0 60,30 30,30 30,60 0,80 -30,60 -30,30 -60,30 -230,0"/><path id="path16" d="m 9370,13420 200,600 200,-600"/><path id="path18" d="m 9930,13480 30,-30 60,-30 140,0 60,30 30,30 30,60 0,50 -30,90 -340,340 370,0"/></g><g style="fill:#840000;fill-opacity:0;stroke:#840000;stroke-width:100;stroke-linecap:round;stroke-linejoin:round;stroke-opacity:1" id="g20" transform="translate(-8310.0203,-10410)"><polyline id="polyline22" fill="none;" points="10750 13750 10450 13210 8480 13210 8480 13750 8480 14290 10450 14290 10750 13750"/></g><g style="fill:#840000;fill-opacity:0;stroke:#840000;stroke-width:60;stroke-linecap:round;stroke-linejoin:round;stroke-opacity:1" id="g24" transform="translate(-8310.0203,-10410)"><path id="path26" d="m 9270,16450 -60,-30 -90,0 -80,30 -60,60 -30,50 -30,120 0,80 30,120 30,60 60,50 80,30 60,0 90,-30 30,-30 0,-200 -120,0"/><path id="path28" d="m 9550,17020 0,-600 350,600 0,-600"/><path id="path30" d="m 10180,17020 0,-600 150,0 80,30 60,60 30,50 30,120 0,80 -30,120 -30,60 -60,50 -80,30 -150,0"/></g><g style="fill:#840000;fill-opacity:0;stroke:#840000;stroke-width:100;stroke-linecap:round;stroke-linejoin:round;stroke-opacity:1" id="g32" transform="translate(-8310.0203,-10410)"><polyline id="polyline34" fill="none;" points="11000 16750 10700 16210 8580 16210 8580 16750 8580 17290 10700 17290 11000 16750"/></g><g style="fill:#840000;fill-opacity:0;stroke:#840000;stroke-width:60;stroke-linecap:round;stroke-linejoin:round;stroke-opacity:1" id="g36" transform="translate(-8310.0203,-10410)"><path id="path38" d="m 8850,11270 0,-600 230,0 60,30 30,30 30,60 0,80 -30,60 -30,30 -60,30 -230,0"/><path id="path40" d="m 9370,10670 200,600 200,-600"/><path id="path42" d="m 10280,11270 -350,0"/><path id="path44" d="m 10110,11270 0,-600 -60,90 -60,50 -60,30"/></g><g style="fill:#840000;fill-opacity:0;stroke:#840000;stroke-width:100;stroke-linecap:round;stroke-linejoin:round;stroke-opacity:1" id="g46" transform="translate(-8310.0203,-10410)"><polyline id="polyline48" fill="none;" points="10750 11000 10450 10460 8480 10460 8480 11000 8480 11540 10450 11540 10750 11000"/></g><g style="fill:#840000;fill-opacity:0;stroke:#840000;stroke-width:100;stroke-linecap:round;stroke-linejoin:round;stroke-opacity:1" id="g52" transform="translate(-8310.0203,-10410)"><rect id="rect54" width="2000" height="800" x="12750" y="10600" rx="0"/></g><g style="fill:#840000;fill-opacity:0;stroke:#840000;stroke-width:60;stroke-linecap:round;stroke-linejoin:round;stroke-opacity:1" id="g56" transform="translate(-8310.0203,-10410)"><path id="path58" d="m 14750,11000 500,0"/><path id="path60" d="m 12750,11000 -500,0"/></g><g style="fill:#008484;fill-opacity:0;stroke:#008484;stroke-width:60;stroke-linecap:round;stroke-linejoin:round;stroke-opacity:1" id="g62" transform="translate(-8310.0203,-10410)"><path id="path64" d="m 13640,11200 -280,0"/><path id="path66" d="m 13500,11200 0,-500 -50,70 -50,50 -40,20"/><path id="path68" d="m 13860,11200 0,-500"/><path id="path70" d="m 14140,11200 -210,-290"/><path id="path72" d="m 14140,10700 -280,280"/></g><g style="fill:#840000;fill-opacity:0;stroke:#840000;stroke-width:60;stroke-linecap:round;stroke-linejoin:round;stroke-opacity:1" id="g74" transform="translate(-8310.0203,-10410)"><path id="path76" d="m 18600,11210 -30,30 -90,30 -60,0 -80,-30 -60,-50 -30,-60 -30,-120 0,-80 30,-120 30,-50 60,-60 80,-30 60,0 90,30 30,30"/><path id="path78" d="m 18850,11270 0,-600"/><path id="path80" d="m 18850,10960 350,0"/><path id="path82" d="m 19200,11270 0,-600"/><path id="path84" d="m 19800,11270 -350,0"/><path id="path86" d="m 19630,11270 0,-600 -60,90 -60,50 -60,30"/></g><g style="fill:#840000;fill-opacity:0;stroke:#840000;stroke-width:100;stroke-linecap:round;stroke-linejoin:round;stroke-opacity:1" id="g88" transform="translate(-8310.0203,-10410)"><polyline id="polyline90" fill="none;" points="17750 11000 18050 11540 20140 11540 20140 11000 20140 10460 18050 10460 17750 11000"/></g><g style="fill:#840000;fill-opacity:0;stroke:#840000;stroke-width:100;stroke-linecap:round;stroke-linejoin:round;stroke-opacity:1" id="g188" transform="translate(-8310.0203,-10410)"><rect id="rect190" width="2000" height="800" x="11250" y="13350" rx="0"/></g><g style="fill:#840000;fill-opacity:0;stroke:#840000;stroke-width:60;stroke-linecap:round;stroke-linejoin:round;stroke-opacity:1" id="g192" transform="translate(-8310.0203,-10410)"><path id="path194" d="m 13250,13750 500,0"/><path id="path196" d="m 11250,13750 -500,0"/></g><g style="fill:#008484;fill-opacity:0;stroke:#008484;stroke-width:60;stroke-linecap:round;stroke-linejoin:round;stroke-opacity:1" id="g198" transform="translate(-8310.0203,-10410)"><path id="path200" d="m 11380,13490 20,-20 50,-20 120,0 40,20 30,20 20,50 0,50 -20,70 -290,290 310,0"/><path id="path202" d="m 11970,13450 50,0 50,20 20,20 30,50 20,100 0,120 -20,90 -30,50 -20,20 -50,30 -50,0 -40,-30 -30,-20 -20,-50 -20,-90 0,-120 20,-100 20,-50 30,-20 40,-20"/><path id="path204" d="m 12450,13450 50,0 50,20 20,20 30,50 20,100 0,120 -20,90 -30,50 -20,20 -50,30 -50,0 -40,-30 -30,-20 -20,-50 -20,-90 0,-120 20,-100 20,-50 30,-20 40,-20"/><path id="path206" d="m 12840,13950 0,-500"/><path id="path208" d="m 13120,13950 -210,-290"/><path id="path210" d="m 13120,13450 -280,280"/></g><g style="fill:#840000;fill-opacity:0;stroke:#840000;stroke-width:100;stroke-linecap:round;stroke-linejoin:round;stroke-opacity:1" id="g216" transform="translate(-8310.0203,-10410)"><circle id="circle218" cx="16250" cy="13750" r="1110"/></g><g style="fill:#840000;fill-opacity:0;stroke:#840000;stroke-width:60;stroke-linecap:round;stroke-linejoin:round;stroke-opacity:1" id="g220" transform="translate(-8310.0203,-10410)"><polyline id="polyline222" fill="none;" points="15750 13750 16000 13750"/><polyline id="polyline224" fill="none;" points="16750 14750 16000 14000"/><polyline id="polyline226" fill="none;" points="16750 12750 16000 13500"/></g><g style="fill:#840000;fill-opacity:0;stroke:#840000;stroke-width:200;stroke-linecap:round;stroke-linejoin:round;stroke-opacity:1" id="g228" transform="translate(-8310.0203,-10410)"><polyline id="polyline230" fill="none;" points="16000 13000 16000 14500 16000 14500"/></g><g style="fill:#840000;fill-opacity:0;stroke:#840000;stroke-width:60;stroke-linecap:round;stroke-linejoin:round;stroke-opacity:1" id="g232" transform="translate(-8310.0203,-10410)"><polyline id="polyline234" fill="none;" points="16700 14700 16500 14500 16500 14500"/></g><g style="fill:#840000;fill-opacity:1;stroke:#840000;stroke-width:60;stroke-linecap:round;stroke-linejoin:round;stroke-opacity:1" id="g236" transform="translate(-8310.0203,-10410)"><polyline style="fill-rule:evenodd" id="polyline238" points="16300 14500 16500 14300 16700 14700 16300 14500 16300 14500"/></g><g style="fill:#840000;fill-opacity:0;stroke:#840000;stroke-width:60;stroke-linecap:round;stroke-linejoin:round;stroke-opacity:1" id="g240" transform="translate(-8310.0203,-10410)"><path id="path242" d="m 16750,14750 0,1000"/></g><g style="fill:#008484;fill-opacity:0;stroke:#008484;stroke-width:60;stroke-linecap:round;stroke-linejoin:round;stroke-opacity:1" id="g244" transform="translate(-8310.0203,-10410)"><path id="path246" d="m 16360,15350 0,-170"/><path id="path248" d="m 16630,15110 0,240 -500,0 0,-240"/></g><g style="fill:#840000;fill-opacity:0;stroke:#840000;stroke-width:60;stroke-linecap:round;stroke-linejoin:round;stroke-opacity:1" id="g250" transform="translate(-8310.0203,-10410)"><path id="path252" d="m 17330,15110 0,280"/><path id="path254" d="m 17330,15250 -500,0 70,50 50,50 20,40"/><path id="path256" d="m 15750,13750 -2000,0"/></g><g style="fill:#008484;fill-opacity:0;stroke:#008484;stroke-width:60;stroke-linecap:round;stroke-linejoin:round;stroke-opacity:1" id="g258" transform="translate(-8310.0203,-10410)"><path id="path260" d="m 14790,13360 70,30 20,20 20,50 0,70 -20,50 -20,20 -50,30 -190,0 0,-500 170,0 40,20 30,20 20,50 0,50 -20,50 -30,20 -40,20 -170,0"/></g><g style="fill:#840000;fill-opacity:0;stroke:#840000;stroke-width:60;stroke-linecap:round;stroke-linejoin:round;stroke-opacity:1" id="g262" transform="translate(-8310.0203,-10410)"><path id="path264" d="m 14610,13870 20,-20 50,-20 120,0 40,20 30,20 20,50 0,50 -20,70 -290,290 310,0"/><path id="path266" d="m 16750,12750 0,-1000"/></g><g style="fill:#008484;fill-opacity:0;stroke:#008484;stroke-width:60;stroke-linecap:round;stroke-linejoin:round;stroke-opacity:1" id="g268" transform="translate(-8310.0203,-10410)"><path id="path270" d="m 16580,12100 20,20 30,70 0,50 -30,70 -50,50 -40,20 -100,20 -70,0 -90,-20 -50,-20 -50,-50 -20,-70 0,-50 20,-70 20,-20"/></g><g style="fill:#840000;fill-opacity:0;stroke:#840000;stroke-width:60;stroke-linecap:round;stroke-linejoin:round;stroke-opacity:1" id="g272" transform="translate(-8310.0203,-10410)"><path id="path274" d="m 16830,12420 0,-310 190,170 0,-80 20,-40 20,-30 50,-20 120,0 50,20 20,30 30,40 0,150 -30,40 -20,30"/></g><g style="fill:#008484;fill-opacity:0;stroke:#008484;stroke-width:60;stroke-linecap:round;stroke-linejoin:round;stroke-opacity:1" id="g276" transform="translate(-8310.0203,-10410)"><path id="path278" d="m 17740,14900 -20,-20 -20,-50 0,-120 20,-40 20,-30 50,-20 50,0 70,20 290,290 0,-310"/><path id="path280" d="m 18200,14400 -500,0 500,-280 -500,0"/><path id="path282" d="m 17740,13900 -20,-20 -20,-50 0,-120 20,-40 20,-30 50,-20 50,0 70,20 290,290 0,-310"/><path id="path284" d="m 17740,13420 -20,-20 -20,-50 0,-120 20,-40 20,-30 50,-20 50,0 70,20 290,290 0,-310"/><path id="path286" d="m 17740,12940 -20,-20 -20,-50 0,-120 20,-40 20,-30 50,-20 50,0 70,20 290,290 0,-310"/><path id="path288" d="m 17740,12460 -20,-20 -20,-50 0,-120 20,-40 20,-30 50,-20 50,0 70,20 290,290 0,-310"/></g><g style="fill:#840000;fill-opacity:0;stroke:#840000;stroke-width:60;stroke-linecap:round;stroke-linejoin:round;stroke-opacity:1" id="g290" transform="translate(-8310.0203,-10410)"><path id="path292" d="m 9080,15210 -30,30 -90,30 -60,0 -80,-30 -60,-50 -30,-60 -30,-120 0,-80 30,-120 30,-50 60,-60 80,-30 60,0 90,30 30,30"/><path id="path294" d="m 9330,15270 0,-600"/><path id="path296" d="m 9330,14960 350,0"/><path id="path298" d="m 9680,15270 0,-600"/><path id="path300" d="m 9910,14670 370,0 -200,230 80,0 60,30 30,30 30,50 0,150 -30,50 -30,30 -60,30 -170,0 -60,-30 -20,-30"/></g><g style="fill:#840000;fill-opacity:0;stroke:#840000;stroke-width:100;stroke-linecap:round;stroke-linejoin:round;stroke-opacity:1" id="g302" transform="translate(-8310.0203,-10410)"><polyline id="polyline304" fill="none;" points="10750 15000 10450 14460 8360 14460 8360 15000 8360 15540 10450 15540 10750 15000"/></g><g style="fill:#008400;fill-opacity:0;stroke:#008400;stroke-width:60;stroke-linecap:round;stroke-linejoin:round;stroke-opacity:1" id="g308" transform="translate(-8310.0203,-10410)"><path id="path310" d="m 11000,16750 5750,0"/><path id="path312" d="m 15250,11000 2500,0"/><path id="path314" d="m 10750,11000 1500,0"/><path id="path316" d="m 16750,11750 0,-750"/></g><g style="fill:#008400;fill-opacity:1;stroke:#008400;stroke-width:100;stroke-linecap:round;stroke-linejoin:round;stroke-opacity:1" id="g320" transform="translate(-8310.0203,-10410)"><circle id="circle322" cx="16750" cy="11000" r="200"/></g><g style="fill:#008400;fill-opacity:0;stroke:#008400;stroke-width:60;stroke-linecap:round;stroke-linejoin:round;stroke-opacity:1" id="g326" transform="translate(-8310.0203,-10410)"><path id="path328" d="m 16750,16750 0,-1000"/><path id="path330" d="m 13750,13750 0,1250"/><path id="path332" d="m 13750,15000 -3000,0"/></g></svg>